<svg xmlns="http://www.w3.org/2000/svg" xmlns:xlink="http://www.w3.org/1999/xlink" width="19" height="12" viewBox="0 0 19 12">
  <defs>
    <clipPath id="clip-path">
      <rect id="Rectángulo_54" data-name="Rectángulo 54" width="19" height="12" transform="translate(0 -0.124)" fill="#6e6e6e"/>
    </clipPath>
  </defs>
  <g id="Grupo_765" data-name="Grupo 765" transform="translate(-0.405 0.01)">
    <g id="Grupo_764" data-name="Grupo 764" transform="translate(0.405 0.114)">
      <g id="Grupo_763" data-name="Grupo 763" clip-path="url(#clip-path)">
        <path id="Trazado_2103" data-name="Trazado 2103" d="M621.313,339.688h-4.8v-1.193h4.8Zm-8,4.892a3.157,3.157,0,0,1,.465,1.747,3.478,3.478,0,0,1-.53,1.9,3.305,3.305,0,0,1-.844.937,3.26,3.26,0,0,1-1.347.6,8.3,8.3,0,0,1-1.684.161H604V338h5.761a3.66,3.66,0,0,1,3.089,1.271,3.032,3.032,0,0,1,.546,1.821,2.654,2.654,0,0,1-.551,1.756,2.808,2.808,0,0,1-.909.679,2.653,2.653,0,0,1,1.376,1.054Zm-6.561-1.877h2.524a2.384,2.384,0,0,0,1.261-.3,1.125,1.125,0,0,0,.484-1.049,1.067,1.067,0,0,0-.641-1.1,4.52,4.52,0,0,0-1.407-.187h-2.221Zm4.512,3.454a1.278,1.278,0,0,0-.758-1.277,3,3,0,0,0-1.193-.2h-2.561v3.18h2.521a2.8,2.8,0,0,0,1.207-.209,1.5,1.5,0,0,0,.783-1.49Zm11.832-1.94a11.2,11.2,0,0,1,.074,1.7h-6.221a2.043,2.043,0,0,0,.892,1.8,2.251,2.251,0,0,0,1.231.321,1.736,1.736,0,0,0,1.7-.979h2.28a2.785,2.785,0,0,1-.828,1.545,4.154,4.154,0,0,1-3.214,1.247A4.667,4.667,0,0,1,616,348.8a4.152,4.152,0,0,1-1.3-3.423,4.628,4.628,0,0,1,1.175-3.406,4.12,4.12,0,0,1,3.057-1.185,4.864,4.864,0,0,1,2.009.4,3.462,3.462,0,0,1,1.475,1.265,4.221,4.221,0,0,1,.681,1.768Zm-2.245.223a1.869,1.869,0,0,0-.6-1.351,1.946,1.946,0,0,0-1.324-.463,1.768,1.768,0,0,0-1.332.491,2.3,2.3,0,0,0-.6,1.323Zm0,0" transform="translate(-604.37 -337.935)" fill="#6e6e6e"/>
      </g>
    </g>
  </g>
</svg>
