<svg xmlns="http://www.w3.org/2000/svg" width="13.428" height="13.428" viewBox="0 0 13.428 13.428">
  <g id="Grupo_762" data-name="Grupo 762" transform="translate(0)">
    <path id="Trazado_1858" data-name="Trazado 1858" d="M-434.572-55.434H-440a4,4,0,0,0-4,4v5.427a4,4,0,0,0,4,4h5.427a4,4,0,0,0,4-4v-5.427A4,4,0,0,0-434.572-55.434Zm2.649,9.428a2.649,2.649,0,0,1-2.649,2.649H-440a2.649,2.649,0,0,1-2.649-2.649v-5.427A2.649,2.649,0,0,1-440-54.083h5.427a2.649,2.649,0,0,1,2.649,2.649v5.427Z" transform="translate(444 55.434)" fill="#6e6e6e"/>
    <path id="Trazado_1859" data-name="Trazado 1859" d="M-307.527,77.566A3.477,3.477,0,0,0-311,81.039a3.477,3.477,0,0,0,3.473,3.473,3.477,3.477,0,0,0,3.473-3.473A3.477,3.477,0,0,0-307.527,77.566Zm0,5.6a2.122,2.122,0,0,1-2.122-2.122,2.122,2.122,0,0,1,2.122-2.122,2.122,2.122,0,0,1,2.122,2.122A2.122,2.122,0,0,1-307.527,83.161Z" transform="translate(314.241 -74.325)" fill="#6e6e6e"/>
    <circle id="Elipse_16" data-name="Elipse 16" cx="0.832" cy="0.832" r="0.832" transform="translate(9.361 2.435)" fill="#6e6e6e"/>
  </g>
</svg>
