<svg xmlns="http://www.w3.org/2000/svg" width="12.916" height="12.914" viewBox="0 0 12.916 12.914">
  <path id="LinkIn" d="M10.146,12.914V8.252c0-1.172-.4-1.97-1.4-1.97A1.522,1.522,0,0,0,7.325,7.341a2.033,2.033,0,0,0-.092.706v4.867H4.465s.036-7.9,0-8.714H7.233V5.435A2.731,2.731,0,0,1,9.728,4c1.821,0,3.188,1.246,3.188,3.923v5Zm-9.981,0V4.2H2.931v8.714Zm1.364-9.9A1.463,1.463,0,0,1,0,1.507,1.474,1.474,0,0,1,1.566,0,1.469,1.469,0,0,1,3.113,1.507,1.474,1.474,0,0,1,1.547,3.012Z" transform="translate(0)" fill="#6e6e6e"/>
</svg>
