<svg xmlns="http://www.w3.org/2000/svg" xmlns:xlink="http://www.w3.org/1999/xlink" width="684.82" height="849.563" viewBox="0 0 684.82 849.563">
  <defs>
    <clipPath id="clip-path">
      <path id="Trazado_65" data-name="Trazado 65" d="M2353.2,554.332c36.393,114.778,14.22,248.241-53.191,292.594-54.82,36.072-97.018,23.38-146.97,134.329-45.514,101.091-89.921,108.731-204.364,109.18-113.685.443-228.162-44.792-244.954-165.174s56.527-158.177,49.766-252.026c-7.043-97.615,29.37-135.643,82.683-206.108C1985.71,269.5,2316.8,439.554,2353.2,554.332Z" transform="translate(-1701.212 -376.393)" fill="none"/>
    </clipPath>
    <linearGradient id="linear-gradient" y1="0.5" x2="1" y2="0.5" gradientUnits="objectBoundingBox">
      <stop offset="0" stop-color="#2284c6"/>
      <stop offset="1" stop-color="#2284c6" stop-opacity="0"/>
    </linearGradient>
    <linearGradient id="linear-gradient-2" x1="-0.138" y1="0.696" x2="0.9" y2="0.219" gradientUnits="objectBoundingBox">
      <stop offset="0" stop-color="#2284c6"/>
      <stop offset="0.585" stop-color="#2284c6" stop-opacity="0"/>
    </linearGradient>
    <linearGradient id="linear-gradient-3" x1="-0.251" y1="0.537" x2="0.865" y2="0.476" xlink:href="#linear-gradient"/>
    <linearGradient id="linear-gradient-4" x1="0.21" y1="0.071" x2="0.664" y2="0.887" gradientUnits="objectBoundingBox">
      <stop offset="0" stop-color="#5b9af1"/>
      <stop offset="1" stop-color="#70b9f9" stop-opacity="0"/>
    </linearGradient>
    <linearGradient id="linear-gradient-5" x1="0.133" y1="0.938" x2="0.897" y2="0.104" xlink:href="#linear-gradient"/>
    <linearGradient id="linear-gradient-6" y1="0.5" x2="1" y2="0.5" gradientUnits="objectBoundingBox">
      <stop offset="0" stop-color="#192765"/>
      <stop offset="1" stop-color="#193d7c" stop-opacity="0"/>
    </linearGradient>
    <linearGradient id="linear-gradient-7" x1="-34.726" y1="-156.151" x2="-33.909" y2="-156.151" gradientUnits="objectBoundingBox">
      <stop offset="0" stop-color="#ffe3b7"/>
      <stop offset="1" stop-color="#ff8ab7"/>
    </linearGradient>
    <linearGradient id="linear-gradient-8" x1="-34.758" y1="-156.123" x2="-33.941" y2="-156.123" gradientUnits="objectBoundingBox">
      <stop offset="0" stop-color="#ff8ab7"/>
      <stop offset="1" stop-color="#ffe3b7"/>
    </linearGradient>
    <linearGradient id="linear-gradient-9" x1="-34.987" y1="-149.621" x2="-34.17" y2="-149.621" xlink:href="#linear-gradient-7"/>
    <linearGradient id="linear-gradient-10" x1="-35.019" y1="-149.594" x2="-34.202" y2="-149.594" xlink:href="#linear-gradient-8"/>
    <linearGradient id="linear-gradient-11" x1="-29.6" y1="-146.18" x2="-28.784" y2="-146.18" xlink:href="#linear-gradient-7"/>
    <linearGradient id="linear-gradient-12" x1="-29.633" y1="-146.134" x2="-28.816" y2="-146.134" xlink:href="#linear-gradient-8"/>
    <linearGradient id="linear-gradient-13" x1="-25.122" y1="-147.621" x2="-24.306" y2="-147.621" xlink:href="#linear-gradient-7"/>
    <linearGradient id="linear-gradient-14" x1="-25.154" y1="-147.589" x2="-24.338" y2="-147.589" xlink:href="#linear-gradient-8"/>
    <linearGradient id="linear-gradient-15" x1="-26.177" y1="-141.392" x2="-25.361" y2="-141.392" xlink:href="#linear-gradient-7"/>
    <linearGradient id="linear-gradient-16" x1="-26.209" y1="-141.366" x2="-25.393" y2="-141.366" xlink:href="#linear-gradient-8"/>
    <linearGradient id="linear-gradient-17" x1="-27.823" y1="-138.527" x2="-27.006" y2="-138.527" xlink:href="#linear-gradient-7"/>
    <linearGradient id="linear-gradient-18" x1="-27.855" y1="-138.502" x2="-27.038" y2="-138.502" xlink:href="#linear-gradient-8"/>
    <linearGradient id="linear-gradient-19" x1="-19.902" y1="-133.253" x2="-19.086" y2="-133.253" xlink:href="#linear-gradient-7"/>
    <linearGradient id="linear-gradient-20" x1="-19.934" y1="-133.229" x2="-19.118" y2="-133.229" xlink:href="#linear-gradient-8"/>
    <linearGradient id="linear-gradient-21" y1="0.5" x2="1" y2="0.5" gradientUnits="objectBoundingBox">
      <stop offset="0.005" stop-color="#76e5b0"/>
      <stop offset="0.26" stop-color="#71e0ae"/>
      <stop offset="0.546" stop-color="#64d2aa"/>
      <stop offset="0.846" stop-color="#4fbca3"/>
      <stop offset="1" stop-color="#42ae9f"/>
    </linearGradient>
    <radialGradient id="radial-gradient" cx="3227.621" cy="842.285" r="38.921" gradientTransform="translate(-699.244 -206.188) scale(1.58 1.58)" gradientUnits="userSpaceOnUse">
      <stop offset="0.005" stop-color="#fbe54f"/>
      <stop offset="0.327" stop-color="#fae04b"/>
      <stop offset="0.687" stop-color="#f8d242"/>
      <stop offset="1" stop-color="#f6c136"/>
    </radialGradient>
    <radialGradient id="radial-gradient-2" cx="3398.775" cy="939.179" r="38.884" gradientTransform="translate(-738.304 -227.653) scale(1.581 1.581)" gradientUnits="userSpaceOnUse">
      <stop offset="0" stop-color="#70b9f9" stop-opacity="0"/>
      <stop offset="1" stop-color="#5894f5"/>
    </radialGradient>
    <linearGradient id="linear-gradient-22" x1="1.186" y1="0.159" x2="-0.916" y2="1.203" xlink:href="#linear-gradient-4"/>
    <radialGradient id="radial-gradient-3" cx="3586.99" cy="1040.536" r="38.669" gradientTransform="translate(-793.528 -253.965) scale(1.588 1.588)" gradientUnits="userSpaceOnUse">
      <stop offset="0.005" stop-color="#e77aae"/>
      <stop offset="0.327" stop-color="#e3547b"/>
      <stop offset="0.687" stop-color="#e23f54"/>
      <stop offset="1" stop-color="#e62e39"/>
    </radialGradient>
  </defs>
  <g id="Grupo_741" data-name="Grupo 741" transform="translate(-1697.422 -282.189)">
    <path id="Trazado_65-2" data-name="Trazado 65" d="M2353.2,554.332c36.393,114.778,14.22,248.241-53.191,292.594-54.82,36.072-97.018,23.38-146.97,134.329-45.514,101.091-89.921,108.731-204.364,109.18-113.685.443-228.162-44.792-244.954-165.174s56.527-158.177,49.766-252.026c-7.043-97.615,29.37-135.643,82.683-206.108C1985.71,269.5,2316.8,439.554,2353.2,554.332Z" transform="translate(0.114 2.834)" fill="#fff"/>
    <g id="Grupo_740" data-name="Grupo 740" transform="translate(1701.326 379.227)">
      <g id="Grupo_739" data-name="Grupo 739" clip-path="url(#clip-path)">
        <g id="Grupo_738" data-name="Grupo 738" transform="translate(-305.803 46.613)">
          <g id="Grupo_737" data-name="Grupo 737">
            <g id="Grupo_716" data-name="Grupo 716" transform="translate(0 172.488)">
              <g id="Grupo_696" data-name="Grupo 696" transform="translate(0 96.826)">
                <g id="Grupo_695" data-name="Grupo 695">
                  <g id="Grupo_694" data-name="Grupo 694">
                    <path id="Trazado_2015" data-name="Trazado 2015" d="M2298.175,856.088l-7.084,5.743a31.3,31.3,0,0,0-4.144-2.868L2024.728,707.569c-14.977-8.648-39.268-8.648-54.245,0l-554.906,320.375a30.518,30.518,0,0,0-5.171,3.72l-6.064-6.431v18.169h.014c-.093,5.732,3.636,11.485,11.218,15.861l262.211,151.387c14.979,8.651,39.272,8.648,54.249,0L2286.94,890.282c7.494-4.324,11.235-9.995,11.235-15.662h0Z" transform="translate(-1404.34 -682.552)" fill="#cecece"/>
                    <g id="Grupo_693" data-name="Grupo 693">
                      <path id="Trazado_2016" data-name="Trazado 2016" d="M1732.034,1192.66c-14.977,8.653-39.27,8.656-54.249,0l-262.211-151.387c-14.982-8.651-14.977-22.674,0-31.322l554.906-320.374c14.977-8.649,39.268-8.649,54.245,0l262.219,151.388c14.972,8.648,14.978,22.671-.007,31.325Z" transform="translate(-1404.34 -683.093)" fill="#f7f7f7"/>
                    </g>
                    <path id="Trazado_2017" data-name="Trazado 2017" d="M1734.534,1174.362l-288.691-166.674,520.778-300.678,288.7,166.682Z" transform="translate(-1403.091 -682.373)" fill="#c0e0fc" opacity="0.5"/>
                    <path id="Trazado_2018" data-name="Trazado 2018" d="M2077.452,897.182l-66.784,39.564-37.643-29.076,75.833-19.019,5.667-92.932-50.688-24.589,35.8-21.729-4.069-2.353-40.33,24.484,55.012,26.685-5.318,87.173-76.05,19.075-19.617-15.153-11.093-63.081-74.9-14.164,30.338-66.055-6.17,3.562-28.34,61.706-59.156-11.191-5.467,3.16,62.852,11.885-20.089,43.741-7.087,3.651-71.808-21.2L1721.568,862.7l19.467,16.141-18.173,10.729-48.979-16.695-4.74,2.738,54.182,18.467,24.849-14.668-19.438-16.119,30.144-17.513,65.975,19.475-102.569,52.839-14.335-6.193-.458-.2L1593.315,919.4l-8.1,4.672,121.557-8.191,12.918,5.583-21.507,52.828-124.661,2.963-49.174,76,3.568,2.06,47.877-74,125.188-2.971,22.489-55.247,162.538,70.23-32.072,19.042,14.1,47.634-74.364,39.615-42.75-15.086-92.662,46.034,4.279,2.475,88.653-44.05,42.819,15.118,78.93-42.05-14.144-47.784,31.879-18.93,84.92,36.7,4.446-2.568-86.064-37.19,74.675-82.783,41.706,32.217,67.75-40.142,87.029,21.027,5.171-2.982ZM1889.991,990.56l-162.816-70.353,113.217-58.319,21.113-45.965,73.1,13.829L1945.48,891.6l19.911,15.377Z" transform="translate(-1400.729 -681.2)" fill="#bcbcbc" opacity="0.5"/>
                  </g>
                  <path id="Trazado_2019" data-name="Trazado 2019" d="M1997.735,705.328a12.157,12.157,0,0,1-11,0c-3.04-1.755-3.045-4.6,0-6.356a12.153,12.153,0,0,1,11,.005C2000.771,700.729,2000.771,703.573,1997.735,705.328Z" transform="translate(-1386.888 -682.655)" fill="#3d3c5b"/>
                  <path id="Trazado_2020" data-name="Trazado 2020" d="M2007.269,710.833a7.282,7.282,0,0,1-6.589,0c-1.824-1.053-1.819-2.751,0-3.8a7.281,7.281,0,0,1,6.587,0C2009.087,708.076,2009.087,709.784,2007.269,710.833Z" transform="translate(-1386.441 -682.396)" fill="#3d3c5b"/>
                </g>
              </g>
              <g id="Grupo_698" data-name="Grupo 698" transform="translate(183.833 252.728)">
                <g id="Grupo_697" data-name="Grupo 697">
                  <path id="Trazado_2021" data-name="Trazado 2021" d="M1875.264,1024.457c-5.049,0-8.643-1.294-11.014-3.9-6.438-7.077-1.3-21.258,4.653-37.682,6.321-17.426,13.477-37.177,4.584-46.1-9.724-9.76-27.943-6.258-57.347,11-12.789,7.5-25.32,7.676-30.465.412-6.861-9.682,2.4-26.766,24.783-45.7,31.719-26.843,30.832-43.12,27.482-50.432-4.751-10.364-18.779-13.956-30.206-12.152-10.6,1.678-37.451,14.543-66.827,32.009-29.327,17.44-55.2,44.462-62.915,65.711-3.128,8.61-2.385,17.853-1.665,26.786,1.129,14.024,2.3,28.524-13.577,37.045-25.006,13.433-77.714-31.7-79.946-33.633l2.978-3.445c.523.45,52.553,45.031,74.813,33.068,13.253-7.114,12.344-18.392,11.195-32.668-.76-9.42-1.543-19.167,1.923-28.708,8.045-22.148,34.719-50.139,64.867-68.065,30.29-18.016,57.155-30.808,68.44-32.6,13.115-2.07,29.365,2.323,35.061,14.753,3.886,8.486,5.332,27.02-28.681,55.8-24.026,20.331-27.95,34.032-24.01,39.592,3.609,5.089,14.119,4.356,24.446-1.706,21.483-12.61,48.048-25.167,62.874-10.286,10.935,10.976,3.254,32.171-3.523,50.871-4.993,13.773-10.158,28.024-5.571,33.068,2.768,3.036,9.5,3.2,20,.48,24.549-6.358,40.359-19.559,44.518-37.178,3.641-15.427-2.271-33.075-14.711-43.917-5.678-4.954-8.523-10.779-8.456-17.316.184-17.613,21.6-35.513,31.9-44.111.815-.68,1.549-1.294,2.189-1.839,32.738-27.828,68-53.092,107.324-30.373,26.8,15.48,19.145,33.129,11.743,50.2-3.594,8.286-7.312,16.851-7.312,25.417,0,5.306,1.928,8.99,5.906,11.263,14.346,8.2,52.367-3,94.615-27.865l2.3,3.922c-44.281,26.071-83.219,37.02-99.179,27.9-5.366-3.068-8.2-8.329-8.2-15.215,0-9.51,3.906-18.518,7.688-27.23,7.506-17.316,13.442-30.992-9.842-44.444-36.772-21.235-70.6,3.127-102.1,29.9-.649.552-1.394,1.174-2.216,1.863-9.007,7.529-30.105,25.153-30.265,40.667-.056,5.218,2.2,9.743,6.894,13.834,13.678,11.925,20.168,31.374,16.146,48.4-4.564,19.341-21.542,33.737-47.805,40.536A55.25,55.25,0,0,1,1875.264,1024.457Z" transform="translate(-1582.804 -834.443)" fill="#fff"/>
                </g>
              </g>
              <g id="Grupo_706" data-name="Grupo 706" transform="translate(491.924)">
                <g id="Grupo_701" data-name="Grupo 701" transform="translate(1.937 123.943)">
                  <g id="Grupo_699" data-name="Grupo 699" transform="translate(0 43.474)">
                    <path id="Trazado_2022" data-name="Trazado 2022" d="M1915.829,751.622s-4.776,8.792-5.253,11.88a51.4,51.4,0,0,0,0,12.115c.477,4.276-1.786,63.435-1.921,70.085,5.569,5.073,10.951,0,10.951,0a182.183,182.183,0,0,1,4.384-30.073c3.853-16.806,1-24.785,1-31.407s13.3-25.375,13.3-25.375Z" transform="translate(-1883.03 -751.622)" fill="#70b9f9"/>
                    <path id="Trazado_2023" data-name="Trazado 2023" d="M1920.7,838.31s4.067,11.2,3.525,16.664c-6.957,10.929-26.676,28.033-35.942,23.991s-2.615-11.84,5.464-19.1,13.983-17.063,14.968-21.549C1914.177,840.478,1918.9,840.648,1920.7,838.31Z" transform="translate(-1883.778 -749.014)" fill="#fff"/>
                    <path id="Trazado_2024" data-name="Trazado 2024" d="M1888.28,875.6c-2.475-1.085-3.789-2.436-4.269-3.972-.74,2.777.3,5.2,4.269,6.937,9.266,4.042,28.984-13.061,35.942-23.991a14.7,14.7,0,0,0-.056-2.89C1917.162,862.615,1897.523,879.621,1888.28,875.6Z" transform="translate(-1883.778 -748.612)" fill="#8c8c8c"/>
                  </g>
                  <g id="Grupo_700" data-name="Grupo 700" transform="translate(48.25 34.974)">
                    <path id="Trazado_2025" data-name="Trazado 2025" d="M1942.21,745.8s21.7,5.194,27.719,9.628,18.937,15.319,18.937,15.319l-3.587,7.658s-25.556-11.557-35.057-13.624-16.869-9.382-16.869-9.382Z" transform="translate(-1930.537 -743.298)" fill="#f7c18f"/>
                    <path id="Trazado_2026" data-name="Trazado 2026" d="M1980.408,763.733c-3.669-3-7.716-6.254-10.4-8.23-6.018-4.435-26-12.131-26-12.131l-13.4,13.471s10.183,5.96,19.686,8.013c5.288,1.153,15.555,5.242,23.616,8.645C1977.57,771.624,1980.818,769.214,1980.408,763.733Z" transform="translate(-1930.619 -743.371)" fill="#0053fc"/>
                    <path id="Trazado_2027" data-name="Trazado 2027" d="M1980.408,763.733c-3.669-3-7.716-6.254-10.4-8.23-6.018-4.435-26-12.131-26-12.131l-13.4,13.471s10.183,5.96,19.686,8.013c5.288,1.153,15.555,5.242,23.616,8.645C1977.57,771.624,1980.818,769.214,1980.408,763.733Z" transform="translate(-1930.619 -743.371)" fill="url(#linear-gradient)"/>
                    <path id="Trazado_2028" data-name="Trazado 2028" d="M1985,767.358s8.309-.293,11.156,6.125c.24,5.224-1.416,8.786-5.58,12.829s-6.535,10.213-8.908,15.2-17.82,6.657-19.481,2.615c-.475-5.231,4.511-8.078,8.788-10.453s8.306-15.807,8.2-18.24C1982.757,777.021,1985.951,772.406,1985,767.358Z" transform="translate(-1929.67 -742.649)" fill="#fff"/>
                    <path id="Trazado_2029" data-name="Trazado 2029" d="M1995.521,772.156c.012,4.751-1.662,8.149-5.581,11.951-4.158,4.042-6.535,10.213-8.914,15.2-2.194,4.609-15.5,6.37-18.842,3.432a7.563,7.563,0,0,0,0,1.241c1.661,4.042,17.105,2.375,19.481-2.615s4.749-11.167,8.908-15.2,5.82-7.605,5.58-12.829A9.2,9.2,0,0,0,1995.521,772.156Z" transform="translate(-1929.67 -742.505)" fill="#8c8c8c"/>
                  </g>
                  <path id="Trazado_2030" data-name="Trazado 2030" d="M1906.139,709.418s-1.63,42.368,15,45.7c11.876-.953,18.26-12.676,18.26-12.676l-5.226-30.645Z" transform="translate(-1883.107 -709.418)" fill="#0053fc"/>
                  <path id="Trazado_2031" data-name="Trazado 2031" d="M1906.139,709.418s-1.63,42.368,15,45.7c11.876-.953,18.26-12.676,18.26-12.676l-5.226-30.645Z" transform="translate(-1883.107 -709.418)" fill="url(#linear-gradient-2)"/>
                  <path id="Trazado_2032" data-name="Trazado 2032" d="M1955.035,714.521s-21.38-3.8-33.692,3.285c-2.916,12.64-5.491,23.954-8,32.243-.738,2.182-4.722,14.021-5.154,16.817a70.532,70.532,0,0,0-.387,14.4c.31,2.8.84,26.985.9,45.5a14.886,14.886,0,0,0,12.919,2.368c.6-3.762,2.224-8.588,3.238-13.009,3.849-16.807,1.211-24.113,1.211-30.736s12.251-25.393,12.251-25.393l-.017-.006c3.629-5.487,9.182-14.133,12.217-20.046C1955.275,730.674,1955.035,714.521,1955.035,714.521Z" transform="translate(-1883.062 -709.295)" fill="#0053fc"/>
                  <path id="Trazado_2033" data-name="Trazado 2033" d="M1955.035,714.521s-21.38-3.8-33.692,3.285c-2.916,12.64-5.491,23.954-8,32.243-.738,2.182-4.722,14.021-5.154,16.817a70.532,70.532,0,0,0-.387,14.4c.31,2.8.84,26.985.9,45.5a14.886,14.886,0,0,0,12.919,2.368c.6-3.762,2.224-8.588,3.238-13.009,3.849-16.807,1.211-24.113,1.211-30.736s12.251-25.393,12.251-25.393l-.017-.006c3.629-5.487,9.182-14.133,12.217-20.046C1955.275,730.674,1955.035,714.521,1955.035,714.521Z" transform="translate(-1883.062 -709.295)" fill="url(#linear-gradient-3)"/>
                </g>
                <g id="Grupo_703" data-name="Grupo 703" transform="translate(0 32.643)">
                  <path id="Trazado_2034" data-name="Trazado 2034" d="M1962.682,639.626c-4.517-3.089-7-5.37-14.076-7.068-14.376-3.45-10.874-11.773-10.874-11.773s-16.625.785-18.051,2.923-13.544,7.126-13.544,7.126l1.662,17.1,4.559,26.132s25.613,14.017,39.867,7.843c.952-9.507,5.231-22.809,8.146-19.958.449.439,1.129,1.182,1.93,2.1l10.833-11.879C1968.825,646.01,1964.633,640.961,1962.682,639.626Z" transform="translate(-1881.168 -620.785)" fill="#70b9f9"/>
                  <path id="Trazado_2035" data-name="Trazado 2035" d="M1962.682,639.626c-4.517-3.089-7-5.37-14.076-7.068-14.376-3.45-10.874-11.773-10.874-11.773s-16.625.785-18.051,2.923-13.544,7.126-13.544,7.126l1.662,17.1,4.559,26.132s25.613,14.017,39.867,7.843c.952-9.507,5.231-22.809,8.146-19.958.449.439,1.129,1.182,1.93,2.1l10.833-11.879C1968.825,646.01,1964.633,640.961,1962.682,639.626Z" transform="translate(-1881.168 -620.785)" fill="url(#linear-gradient-4)"/>
                  <path id="Trazado_2036" data-name="Trazado 2036" d="M1956.51,679.033a9.74,9.74,0,0,1-5.148,2.155c-11.208-15.688-4.849-32.016,1.939-47.706-4.049-.979-8.344-2.515-8.344-2.515-2.218,6.059-11.1,24.19-22.147,25.38-8.553-6.3-10.549-23.754-8.413-30.879a33.1,33.1,0,0,1-5.739,2.305c-4.6,11.494-1.783,30.843-2.205,40.625-.225,10.708-1.052,26.712-2.391,39.506,0,14.252,38.017,17.579,56.542,10.452C1954.941,708.729,1955.241,691.455,1956.51,679.033Z" transform="translate(-1881.231 -620.644)" fill="#0053fc"/>
                  <path id="Trazado_2037" data-name="Trazado 2037" d="M1956.51,679.033a9.74,9.74,0,0,1-5.148,2.155c-11.208-15.688-4.849-32.016,1.939-47.706-4.049-.979-8.344-2.515-8.344-2.515-2.218,6.059-11.1,24.19-22.147,25.38-8.553-6.3-10.549-23.754-8.413-30.879a33.1,33.1,0,0,1-5.739,2.305c-4.6,11.494-1.783,30.843-2.205,40.625-.225,10.708-1.052,26.712-2.391,39.506,0,14.252,38.017,17.579,56.542,10.452C1954.941,708.729,1955.241,691.455,1956.51,679.033Z" transform="translate(-1881.231 -620.644)" fill="url(#linear-gradient-5)"/>
                  <g id="Grupo_702" data-name="Grupo 702" transform="translate(0 7.129)">
                    <path id="Trazado_2038" data-name="Trazado 2038" d="M1919.38,697.662c-8.236-1.467-20.4-17.216-23.421-22.168a4.672,4.672,0,0,1-.554-1.917c.489-1.352,7.126-20.429,10.916-16.606.315.8.937,4.971.8,11.361,1.371-13.578-2.391-28.895,2.205-40.625-3.682,1.205-6.234,1.327-8.635,3.039-2.538,1.814-9.268,18.947-12.782,28.335-1.846,4.38-3.275,8.153-4.326,10.912-3.579,9.352-1.93,15.407,9.625,23.385s20.671,17.217,26.173,19.691,11-9.9,10.179-12.931S1923.5,696.009,1919.38,697.662Z" transform="translate(-1881.897 -627.706)" fill="#70b9f9"/>
                    <path id="Trazado_2039" data-name="Trazado 2039" d="M1984.736,675.975c-.936-4.545-2.8-8.853-6.015-14.085v0s-5.388-11.093-8.873-16.322S1958.762,634.8,1954.96,634c-.175-.038-1.963-.084-2.165-.135-6.785,15.689-13.852,31.378-2.643,47.067,1.691,2.118,3.781,1.14,5.148-2.155a170.339,170.339,0,0,1,2.61-17.282c.12-.485,6.449,4.153,11.545,11.3,2.473,3.812,4.287,7.489,3.877,8.726-5.7,6.966-10.611,25.656-14.108,27.4s-10.122,2.217-10.122,6.494,6.016,12.191,10.122,11.244,4.6-6.653,7.136-11.724C1971.117,708.918,1986.951,686.745,1984.736,675.975Z" transform="translate(-1880.021 -627.521)" fill="#70b9f9"/>
                  </g>
                </g>
                <g id="Grupo_705" data-name="Grupo 705" transform="translate(27.922)">
                  <g id="Grupo_704" data-name="Grupo 704">
                    <path id="Trazado_2040" data-name="Trazado 2040" d="M1911.9,605.752s-2.216,15.838,0,22.808c1.584,6.333,5.388,6.333,7.881,5.977s13.185-3.207,14.966-10.335c3.682-.118,5.11-2.493,5.463-5.346s-1.066-6.174-3.682-4.632C1935.81,609.472,1915.659,594.667,1911.9,605.752Z" transform="translate(-1908.946 -588.715)" fill="#70b9f9"/>
                    <path id="Trazado_2041" data-name="Trazado 2041" d="M1940.322,599.622c-.65-8.109-12.728-8.964-15.433-8.536s-4.838-.711-5.261-1.991c-.427.712,0,2.134,0,2.845a7.2,7.2,0,0,1-3.135-1.706s-.994,1.991,0,3.056c0,0-2.843-1.208-2.985-3.056-1.279,1.706-2.133,4.125-1.554,5.263.016-.426-1.576-.142-1.858-2.206-3.275,5.9,1.858,12.841,1.858,12.841,3.278,3.094,17.5,3.6,17.5,3.6-.139,2.734,3.088,3.326,3.92,4.751s-.209,5.494-.209,5.494.209.3,1.513-.247c.832-3.159,3.565-6.911,4.9-4.379s-.012,6.384-.012,6.384a31.888,31.888,0,0,0,2.209-5.768h0C1943.286,612.709,1946.374,600.334,1940.322,599.622Z" transform="translate(-1909.004 -589.095)" fill="#193d7c"/>
                    <path id="Trazado_2042" data-name="Trazado 2042" d="M1940.322,599.622c-.65-8.109-12.728-8.964-15.433-8.536s-4.838-.711-5.261-1.991c-.427.712,0,2.134,0,2.845a7.2,7.2,0,0,1-3.135-1.706s-.994,1.991,0,3.056c0,0-2.843-1.208-2.985-3.056-1.279,1.706-2.133,4.125-1.554,5.263.016-.426-1.576-.142-1.858-2.206-3.275,5.9,1.858,12.841,1.858,12.841,3.278,3.094,17.5,3.6,17.5,3.6-.139,2.734,3.088,3.326,3.92,4.751s-.209,5.494-.209,5.494.209.3,1.513-.247c.832-3.159,3.565-6.911,4.9-4.379s-.012,6.384-.012,6.384a31.888,31.888,0,0,0,2.209-5.768h0C1943.286,612.709,1946.374,600.334,1940.322,599.622Z" transform="translate(-1909.004 -589.095)" fill="url(#linear-gradient-6)"/>
                  </g>
                </g>
              </g>
              <g id="Grupo_715" data-name="Grupo 715" transform="translate(601.308 36.31)">
                <path id="Trazado_2043" data-name="Trazado 2043" d="M2060.845,652.591s1.569-11.615,11.056-12.54,13.654,4,14.983,8.558,5.885,5.5,7.4,3.982c-2.656,2.847-7.494,3.239-9.247.673,1.28,3.5,6.591,5.779,10.956,4.451-.38,3.035-6.068,4.1-7.02,3.379,5.124,2.311,1.709,11.227,4.177,13.5s6.072,3.037,8.153,1.9c-5.878,3.225-18.969,5.5-21.812-3.413-.575,2.655,1.583,6.269,1.583,6.269-1.778-.769-6.326-7.029-5.187-16.134s-6.258-6.765-9.3-3.572S2060.845,652.591,2060.845,652.591Z" transform="translate(-1985.898 -623.876)" fill="#e8792e"/>
                <path id="Trazado_2044" data-name="Trazado 2044" d="M2056.32,647.02a10.844,10.844,0,0,1,11.635,1.424c5.6,4.648,2.089,10.908.573,11.856A116.569,116.569,0,0,1,2056.32,647.02Z" transform="translate(-1986.034 -623.695)" fill="#a3c418"/>
                <g id="Grupo_714" data-name="Grupo 714">
                  <g id="Grupo_709" data-name="Grupo 709" transform="translate(21.309 143.496)">
                    <g id="Grupo_707" data-name="Grupo 707" transform="translate(0 133.789)">
                      <path id="Trazado_2045" data-name="Trazado 2045" d="M2045.687,893.532s4.067,11.2,3.527,16.659c-6.959,10.928-26.678,28.033-35.937,24s-2.615-11.841,5.463-19.1,13.981-17.063,14.963-21.549C2039.164,895.7,2043.9,895.869,2045.687,893.532Z" transform="translate(-2008.774 -893.532)" fill="#ff4785"/>
                      <path id="Trazado_2046" data-name="Trazado 2046" d="M2013.276,930.811c-2.48-1.082-3.793-2.433-4.272-3.965-.738,2.773.292,5.206,4.272,6.938,9.26,4.037,28.978-13.068,35.938-24a15.247,15.247,0,0,0-.057-2.89C2042.155,917.831,2022.518,934.838,2013.276,930.811Z" transform="translate(-2008.773 -893.13)" fill="#fff"/>
                    </g>
                    <g id="Grupo_708" data-name="Grupo 708" transform="translate(48.244 38.496)">
                      <path id="Trazado_2047" data-name="Trazado 2047" d="M2113.936,825.964s-3.972-3.35-8.541-7.089h0a.373.373,0,0,0-.045-.035c-.831-.685-1.681-1.374-2.533-2.058-.112-.1-.221-.182-.335-.275-.829-.667-1.648-1.329-2.446-1.966-.135-.105-.261-.2-.391-.309-.79-.627-1.562-1.234-2.281-1.791-.105-.08-.193-.145-.288-.222-.75-.579-1.457-1.111-2.076-1.566-6.013-4.442-27.722-9.63-27.722-9.63l-11.671,10.964s10.185,5.96,19.684,8.018c.645.135,1.364.322,2.144.545l.192.052q1.1.315,2.333.72c.095.03.187.065.283.095.824.267,1.688.567,2.584.882.08.03.17.06.258.087q1.42.51,2.925,1.071l.079.035c1.042.392,2.107.8,3.178,1.216.023.012.048.018.07.03,1.059.415,2.123.837,3.177,1.264.04.018.075.028.11.045,2.154.871,4.289,1.756,6.282,2.6h0c6.417,2.708,11.443,4.978,11.443,4.978Z" transform="translate(-2055.609 -801.022)" fill="#efb381"/>
                      <path id="Trazado_2048" data-name="Trazado 2048" d="M2109.988,822.58s8.306-.3,11.161,6.118c.235,5.231-1.422,8.793-5.581,12.83s-6.535,10.212-8.916,15.208-17.817,6.651-19.479,2.61c-.475-5.226,4.516-8.074,8.793-10.454s8.305-15.807,8.188-18.24C2107.747,832.238,2110.942,827.621,2109.988,822.58Z" transform="translate(-2054.66 -800.373)" fill="#ff4785"/>
                      <path id="Trazado_2049" data-name="Trazado 2049" d="M2120.511,827.372c.017,4.752-1.656,8.149-5.58,11.951-4.159,4.041-6.535,10.213-8.91,15.21-2.193,4.6-15.5,6.365-18.842,3.427a6.8,6.8,0,0,0-.005,1.241c1.661,4.041,17.1,2.381,19.479-2.61s4.752-11.173,8.916-15.208,5.816-7.6,5.581-12.83A9,9,0,0,0,2120.511,827.372Z" transform="translate(-2054.66 -800.229)" fill="#fff"/>
                    </g>
                    <path id="Trazado_2050" data-name="Trazado 2050" d="M2031.129,764.632s-1.631,42.37,15,45.7c11.876-.955,18.263-12.671,18.263-12.671l-5.224-30.651Z" transform="translate(-2008.103 -763.62)" fill="#efb381"/>
                    <path id="Trazado_2051" data-name="Trazado 2051" d="M2063.341,791.389l-4.146-24.351-28.909-3.388s-.836,16.133,2.136,28.933C2042.282,795.273,2054.146,795.192,2063.341,791.389Z" transform="translate(-2008.13 -763.65)" fill="#1e1e1e"/>
                    <path id="Trazado_2052" data-name="Trazado 2052" d="M2046.335,773.022c-2.912,12.64-5.492,23.959-8,32.243-.736,2.183-4.718,14.02-5.152,16.818a70.589,70.589,0,0,0-.385,14.4c.228,2.066.58,15.73.772,30.178.053,14.928.192,31.507.109,35.413,5.571,5.066,10.952,0,10.952,0a165.7,165.7,0,0,1,1.983-17.723h.005c.6-3.762,2.223-8.588,3.242-13.009,3.849-16.807-.06-31.407-.06-38.03s12-18.872,12-18.872l1.848-2.211a172.864,172.864,0,0,0,10.244-16.573c4.749-9.265,6.143-25.914,6.143-25.914S2058.642,765.937,2046.335,773.022Z" transform="translate(-2008.058 -763.497)" fill="#f7c18f"/>
                    <path id="Trazado_2053" data-name="Trazado 2053" d="M2079.784,769.741s-22.282-3.936-34.6,3.148c-1.527,6.65-3.071,12.835-4.456,18.5,9.849,1.784,23.97,5.826,29.881,14.038,2.093-3.4,3.776-7.7,5.21-10.5C2080.579,785.658,2079.784,769.741,2079.784,769.741Z" transform="translate(-2007.812 -763.5)" fill="#282828"/>
                  </g>
                  <g id="Grupo_711" data-name="Grupo 711">
                    <g id="Grupo_710" data-name="Grupo 710">
                      <path id="Trazado_2054" data-name="Trazado 2054" d="M2002.952,637.492c-4.376,7.129-1.548,33.67.14,39.22a4.694,4.694,0,0,0,1.064,1.688c1.334.53,25.189,6.022,32.233,6.449-.392-.763.285,8.868,12.107,13.231-3.345,1.949-10.581,12.039-12.594,9.892-5.786-6.165-15.35-9.506-24.7-13.114-4.5-1.539-8.977-2.814-11.74-3.862-9.366-3.538-12.962-10.662-10.744-24.529,4.269-26.671.917-33.459,2.726-39.214s14.711-1.638,16.427.99S2006.929,635.511,2002.952,637.492Z" transform="translate(-1988.087 -624.345)" fill="#f7c18f"/>
                    </g>
                    <path id="Trazado_2055" data-name="Trazado 2055" d="M2088.284,693.469c-4.509-3.089-7.6-4-14.688-5.7-14.371-3.449-10.868-11.772-10.868-11.772s-16.629.783-18.057,2.922-13.542,7.127-13.542,7.127l1.667,17.1,4.559,26.133s29.346,10.644,43.6,4.469c.955-9.5,1.292-18.961,4.212-16.106a14.5,14.5,0,0,1,2.135,1.62l10.834-11.878C2093.82,701.225,2090.24,694.805,2088.284,693.469Z" transform="translate(-1986.792 -622.791)" fill="#f7c18f"/>
                    <path id="Trazado_2056" data-name="Trazado 2056" d="M2082.653,726.239c-1.9,1.419-2.228,1.3-3.159.088-11.2-15.688-7.826-21.983-1.034-37.672-4.054-.983-8.341-2.515-8.341-2.515-2.224,6.058-11.1,24.189-22.148,25.376-8.553-6.294-9.572-22.167-7.436-29.295-.959.7-3.867-.21-5.293.257-3.474,12.022-11.308,21.77-11.728,31.554-.23,10.7,11.762,23.617,5.708,49.045,0,14.25,34.729,18.672,53.256,11.547C2076.816,764.994,2081.389,738.664,2082.653,726.239Z" transform="translate(-1987.021 -622.604)" fill="#b3ce31"/>
                    <path id="Trazado_2057" data-name="Trazado 2057" d="M2109.588,731.076c-.935-4.546-2.8-8.856-6.018-14.087h0s-5.393-11.1-8.872-16.32a33.886,33.886,0,0,0-7.707-7.71l-4.069,23.632c.994.311,6.7,4.745,11.375,11.3,2.48,3.815,4.294,7.489,3.879,8.729-5.7,6.966-10.611,25.656-14.108,27.4s-10.122,2.217-10.122,6.494,6.015,12.19,10.122,11.241,4.6-6.65,7.141-11.722C2095.964,764.016,2111.8,741.845,2109.588,731.076Z" transform="translate(-1985.504 -622.281)" fill="#f7c18f"/>
                  </g>
                  <g id="Grupo_713" data-name="Grupo 713" transform="translate(48.245 21.862)">
                    <g id="Grupo_712" data-name="Grupo 712">
                      <path id="Trazado_2058" data-name="Trazado 2058" d="M2036.922,660.968s-4.365,11.8-.193,22.522c1.583,6.335,5.576,6.621,8.074,6.265s13.179-3.206,14.963-10.335c3.684-.121,5.105-2.5,5.463-5.347s-1.071-6.175-3.685-4.631C2060.834,664.69,2040.684,649.883,2036.922,660.968Z" transform="translate(-2034.923 -645.227)" fill="#ffcf9f"/>
                      <path id="Trazado_2059" data-name="Trazado 2059" d="M2067.914,651.678c-6.29-7.968-15.415-6.116-18.058-5.412-15.7,4.175-14.927,16.225-14.927,16.225,6.025,10.855,19.684,11.247,19.684,11.247,3.519,0,3.344.383,3.275,2.032-.152,3.41,1.668,4.693,1.668,4.693s.354-4.175.924-5.346c.834-2.674,3.28-4.129,4.034-1.367.453,1.656-1.735,5.181-1.735,5.181a14.683,14.683,0,0,0,4.914-4.945l1.416-3.448C2070.617,667.275,2072.893,657.726,2067.914,651.678Z" transform="translate(-2034.923 -645.569)" fill="#e8792e"/>
                    </g>
                  </g>
                </g>
              </g>
            </g>
            <g id="Grupo_727" data-name="Grupo 727" transform="translate(160.003 421.288)">
              <g id="Grupo_724" data-name="Grupo 724" transform="translate(12.603)">
                <g id="Grupo_717" data-name="Grupo 717" transform="translate(572.973 65.019)">
                  <path id="Trazado_2060" data-name="Trazado 2060" d="M2146.037,904.735a16.4,16.4,0,0,1-14.823,0c-4.095-2.365-4.095-6.195,0-8.558a16.364,16.364,0,0,1,14.823,0C2150.129,898.54,2150.132,902.37,2146.037,904.735Z" transform="translate(-2128.144 -893.73)" fill="url(#linear-gradient-7)"/>
                  <path id="Trazado_2061" data-name="Trazado 2061" d="M2146.037,904.08a16.367,16.367,0,0,1-14.823,0c-4.095-2.363-4.095-6.192,0-8.558a16.383,16.383,0,0,1,14.823,0C2150.129,897.885,2150.132,901.717,2146.037,904.08Z" transform="translate(-2128.144 -893.75)" fill="url(#linear-gradient-8)"/>
                  <path id="Trazado_2062" data-name="Trazado 2062" d="M2144.732,903.329a13.616,13.616,0,0,1-12.318,0c-3.4-1.963-3.4-5.148,0-7.11a13.6,13.6,0,0,1,12.318,0C2148.131,898.177,2148.131,901.365,2144.732,903.329Z" transform="translate(-2128.092 -893.72)" fill="#ff4785"/>
                </g>
                <g id="Grupo_718" data-name="Grupo 718" transform="translate(431.982)">
                  <path id="Trazado_2063" data-name="Trazado 2063" d="M2009.164,841.612a16.39,16.39,0,0,1-14.823,0c-4.094-2.363-4.094-6.195,0-8.558a16.383,16.383,0,0,1,14.823,0C2013.255,835.417,2013.258,839.249,2009.164,841.612Z" transform="translate(-1991.271 -830.61)" fill="url(#linear-gradient-9)"/>
                  <path id="Trazado_2064" data-name="Trazado 2064" d="M2009.164,840.96a16.377,16.377,0,0,1-14.823,0c-4.094-2.363-4.094-6.193,0-8.558a16.384,16.384,0,0,1,14.823,0C2013.255,834.765,2013.258,838.6,2009.164,840.96Z" transform="translate(-1991.271 -830.63)" fill="url(#linear-gradient-10)"/>
                  <path id="Trazado_2065" data-name="Trazado 2065" d="M2007.858,840.208a13.629,13.629,0,0,1-12.318,0c-3.4-1.963-3.4-5.148,0-7.112a13.617,13.617,0,0,1,12.318,0C2011.257,835.057,2011.257,838.244,2007.858,840.208Z" transform="translate(-1991.219 -830.6)" fill="#ff4785"/>
                </g>
                <g id="Grupo_719" data-name="Grupo 719" transform="translate(329.998 69.71)">
                  <path id="Trazado_2066" data-name="Trazado 2066" d="M1910.162,909.289a16.392,16.392,0,0,1-14.824,0c-4.1-2.363-4.1-6.195,0-8.558a16.385,16.385,0,0,1,14.824,0C1914.253,903.094,1914.256,906.926,1910.162,909.289Z" transform="translate(-1892.265 -898.284)" fill="url(#linear-gradient-11)"/>
                  <path id="Trazado_2067" data-name="Trazado 2067" d="M1910.162,908.635a16.373,16.373,0,0,1-14.824,0c-4.1-2.364-4.1-6.191,0-8.558a16.378,16.378,0,0,1,14.824,0C1914.253,902.44,1914.256,906.271,1910.162,908.635Z" transform="translate(-1892.265 -898.304)" fill="url(#linear-gradient-12)"/>
                  <path id="Trazado_2068" data-name="Trazado 2068" d="M1908.853,907.883a13.612,13.612,0,0,1-12.316,0c-3.4-1.963-3.4-5.148,0-7.11a13.6,13.6,0,0,1,12.316,0C1912.255,902.731,1912.255,905.919,1908.853,907.883Z" transform="translate(-1892.213 -898.274)" fill="#ff4785"/>
                </g>
                <g id="Grupo_720" data-name="Grupo 720" transform="translate(338.708 167.364)">
                  <path id="Trazado_2069" data-name="Trazado 2069" d="M1918.615,1004.088a16.389,16.389,0,0,1-14.823,0c-4.095-2.363-4.095-6.195,0-8.558a16.383,16.383,0,0,1,14.823,0C1922.706,997.893,1922.708,1001.725,1918.615,1004.088Z" transform="translate(-1900.721 -993.086)" fill="url(#linear-gradient-13)"/>
                  <path id="Trazado_2070" data-name="Trazado 2070" d="M1918.615,1003.436a16.373,16.373,0,0,1-14.823,0c-4.095-2.363-4.095-6.193,0-8.558a16.383,16.383,0,0,1,14.823,0C1922.706,997.241,1922.708,1001.073,1918.615,1003.436Z" transform="translate(-1900.721 -993.105)" fill="url(#linear-gradient-14)"/>
                  <path id="Trazado_2071" data-name="Trazado 2071" d="M1917.309,1002.684a13.616,13.616,0,0,1-12.318,0c-3.4-1.963-3.4-5.148,0-7.112a13.616,13.616,0,0,1,12.318,0C1920.71,997.533,1920.71,1000.72,1917.309,1002.684Z" transform="translate(-1900.669 -993.076)" fill="#ff4785"/>
                </g>
                <g id="Grupo_721" data-name="Grupo 721" transform="translate(208.616 90.223)">
                  <path id="Trazado_2072" data-name="Trazado 2072" d="M1792.323,929.2a16.39,16.39,0,0,1-14.823,0c-4.1-2.363-4.1-6.2,0-8.558a16.383,16.383,0,0,1,14.823,0C1796.414,923,1796.418,926.837,1792.323,929.2Z" transform="translate(-1774.428 -918.198)" fill="url(#linear-gradient-15)"/>
                  <path id="Trazado_2073" data-name="Trazado 2073" d="M1792.323,928.548a16.377,16.377,0,0,1-14.823,0c-4.1-2.363-4.1-6.193,0-8.558a16.383,16.383,0,0,1,14.823,0C1796.414,922.353,1796.418,926.185,1792.323,928.548Z" transform="translate(-1774.428 -918.217)" fill="url(#linear-gradient-16)"/>
                  <path id="Trazado_2074" data-name="Trazado 2074" d="M1791.015,927.8a13.625,13.625,0,0,1-12.316,0c-3.4-1.963-3.4-5.148,0-7.112a13.6,13.6,0,0,1,12.316,0C1794.417,922.645,1794.417,925.832,1791.015,927.8Z" transform="translate(-1774.376 -918.188)" fill="#ff4785"/>
                </g>
                <g id="Grupo_722" data-name="Grupo 722" transform="translate(154.738 32.982)">
                  <path id="Trazado_2075" data-name="Trazado 2075" d="M1740.016,873.631a16.386,16.386,0,0,1-14.823,0c-4.094-2.363-4.094-6.195,0-8.558a16.383,16.383,0,0,1,14.823,0C1744.11,867.436,1744.112,871.268,1740.016,873.631Z" transform="translate(-1722.123 -862.629)" fill="url(#linear-gradient-17)"/>
                  <path id="Trazado_2076" data-name="Trazado 2076" d="M1740.016,872.979a16.374,16.374,0,0,1-14.823,0c-4.094-2.363-4.094-6.193,0-8.558a16.383,16.383,0,0,1,14.823,0C1744.11,866.784,1744.112,870.616,1740.016,872.979Z" transform="translate(-1722.123 -862.648)" fill="url(#linear-gradient-18)"/>
                  <path id="Trazado_2077" data-name="Trazado 2077" d="M1738.711,872.227a13.625,13.625,0,0,1-12.316,0c-3.4-1.963-3.4-5.148,0-7.112a13.611,13.611,0,0,1,12.316,0C1742.112,867.076,1742.112,870.263,1738.711,872.227Z" transform="translate(-1722.072 -862.619)" fill="#ff4785"/>
                </g>
                <g id="Grupo_723" data-name="Grupo 723" transform="translate(0 133.623)">
                  <path id="Trazado_2078" data-name="Trazado 2078" d="M1589.8,971.333a16.392,16.392,0,0,1-14.824,0c-4.094-2.363-4.094-6.195,0-8.558a16.385,16.385,0,0,1,14.824,0C1593.891,965.138,1593.893,968.97,1589.8,971.333Z" transform="translate(-1571.905 -960.331)" fill="url(#linear-gradient-19)"/>
                  <path id="Trazado_2079" data-name="Trazado 2079" d="M1589.8,970.681a16.379,16.379,0,0,1-14.824,0c-4.094-2.363-4.094-6.193,0-8.558a16.385,16.385,0,0,1,14.824,0C1593.891,964.486,1593.893,968.318,1589.8,970.681Z" transform="translate(-1571.905 -960.35)" fill="url(#linear-gradient-20)"/>
                  <path id="Trazado_2080" data-name="Trazado 2080" d="M1588.492,969.929a13.625,13.625,0,0,1-12.316,0c-3.4-1.963-3.4-5.148,0-7.112a13.612,13.612,0,0,1,12.316,0C1591.893,964.778,1591.893,967.965,1588.492,969.929Z" transform="translate(-1571.853 -960.32)" fill="#ff4785"/>
                </g>
              </g>
              <g id="Grupo_725" data-name="Grupo 725" transform="translate(0 67.655)">
                <path id="Trazado_2081" data-name="Trazado 2081" d="M1605.841,919.393c0,12.747-23.085,49.27-23.085,49.27s-23.086-36.523-23.086-49.27a23.086,23.086,0,0,1,46.171,0Z" transform="translate(-1559.67 -896.309)" fill="#f47677"/>
                <path id="Trazado_2082" data-name="Trazado 2082" d="M1599.619,919.775a17.04,17.04,0,1,1-17.04-17.044A17.037,17.037,0,0,1,1599.619,919.775Z" transform="translate(-1559.493 -896.116)" fill="#fff"/>
              </g>
              <g id="Grupo_726" data-name="Grupo 726" transform="translate(582.674 28.855)">
                <path id="Trazado_2083" data-name="Trazado 2083" d="M2152.7,872.324c0,7.558-13.687,29.208-13.687,29.208s-13.684-21.65-13.684-29.208a13.685,13.685,0,0,1,27.37,0Z" transform="translate(-2125.327 -858.642)" fill="#f47677"/>
                <path id="Trazado_2084" data-name="Trazado 2084" d="M2149,872.548a10.1,10.1,0,1,1-10.1-10.1A10.1,10.1,0,0,1,2149,872.548Z" transform="translate(-2125.222 -858.528)" fill="#fff"/>
              </g>
            </g>
            <g id="Grupo_736" data-name="Grupo 736" transform="translate(512.937)">
              <g id="Grupo_730" data-name="Grupo 730">
                <path id="Trazado_2085" data-name="Trazado 2085" d="M1996.357,558.284c0,3-.9,5.232-2.416,6.526-2.006,1.719-7.159,5.219-10.606,3.23l-65.008-42.169c-6.04-3.49-10.942-11.974-10.942-18.955l-4.251-78.07c0-4.285,6.1-6.4,8.926-7.05a8.768,8.768,0,0,1,6.269,1.342l67.083,38.731c6.045,3.489,10.944,11.974,10.944,18.952Z" transform="translate(-1902.272 -421.645)" fill="url(#linear-gradient-21)"/>
                <path id="Trazado_2086" data-name="Trazado 2086" d="M1991.267,560.767c0,6.981-4.9,9.808-10.943,6.319l-67.086-38.731c-6.039-3.489-10.94-11.974-10.94-18.954V431.94c0-6.98,4.9-9.805,10.944-6.318l67.083,38.731c6.044,3.49,10.943,11.974,10.943,18.954Z" transform="translate(-1902.297 -421.57)" fill="#76f4bd" opacity="0.5"/>
                <g id="Grupo_729" data-name="Grupo 729" transform="translate(14.865 39.13)">
                  <path id="Trazado_2087" data-name="Trazado 2087" d="M1972.945,512.157c0,17.926-12.584,25.191-28.112,16.228s-28.1-30.758-28.1-48.684,12.582-25.194,28.1-16.23S1972.945,494.232,1972.945,512.157Z" transform="translate(-1916.728 -459.632)" fill="#fff"/>
                  <g id="Grupo_728" data-name="Grupo 728" transform="translate(27.328 14.888)">
                    <path id="Trazado_2088" data-name="Trazado 2088" d="M1961.41,506.922l-18.152-10.48V474.085l1.558.9V495.54l16.592,9.58Z" transform="translate(-1943.258 -474.085)" fill="#b2b2b2"/>
                  </g>
                </g>
              </g>
              <g id="Grupo_732" data-name="Grupo 732" transform="translate(113.62 66.967)">
                <path id="Trazado_2089" data-name="Trazado 2089" d="M2106.654,623.3a8.705,8.705,0,0,1-2.034,6.164c-1.986,2.061-7.667,5.608-11.341,3.487l-64.652-42.064c-6.046-3.488-10.944-11.976-10.944-18.955l-4.046-77.894c0-4.323,5.927-6.623,8.795-7.245a8.824,8.824,0,0,1,6.192,1.359l67.086,38.732c6.042,3.488,10.944,11.975,10.944,18.954Z" transform="translate(-2012.568 -486.656)" fill="url(#radial-gradient)"/>
                <path id="Trazado_2090" data-name="Trazado 2090" d="M2101.568,625.783c0,6.977-4.9,9.805-10.944,6.316l-67.082-38.73c-6.045-3.489-10.944-11.977-10.944-18.955V496.952c0-6.979,4.9-9.807,10.941-6.319l67.085,38.732c6.042,3.489,10.944,11.975,10.944,18.954Z" transform="translate(-2012.599 -486.582)" fill="#fbe54f" opacity="0.5"/>
                <g id="Grupo_731" data-name="Grupo 731" transform="translate(28.442 34.498)">
                  <path id="Trazado_2091" data-name="Trazado 2091" d="M2046.891,573.762a33.446,33.446,0,0,0,.267-20.5c-3.434-11.318-5.448-21.371,2.7-17.648s19.659,18.038,17.224,31.531-8.063,27.565-15.43,23.481S2044.465,578.561,2046.891,573.762Z" transform="translate(-2040.091 -519.705)" fill="#f7f7f7"/>
                  <path id="Trazado_2092" data-name="Trazado 2092" d="M2050.172,528.817c.31,3.345-1.662,5.063-4.4,3.838s-5.215-4.93-5.525-8.276,1.662-5.062,4.4-3.838S2049.862,525.473,2050.172,528.817Z" transform="translate(-2040.21 -520.147)" fill="#fff"/>
                  <path id="Trazado_2093" data-name="Trazado 2093" d="M2057.549,533.671c.195,2.144-1.067,3.246-2.826,2.462a6.983,6.983,0,0,1-3.542-5.308c-.2-2.144,1.064-3.245,2.819-2.461A7,7,0,0,1,2057.549,533.671Z" transform="translate(-2039.88 -519.907)" fill="#fff"/>
                  <path id="Trazado_2094" data-name="Trazado 2094" d="M2063.534,540.06c.182,1.958-.971,2.967-2.575,2.249a6.394,6.394,0,0,1-3.241-4.846c-.179-1.96.975-2.968,2.58-2.249A6.383,6.383,0,0,1,2063.534,540.06Z" transform="translate(-2039.684 -519.7)" fill="#fff"/>
                  <path id="Trazado_2095" data-name="Trazado 2095" d="M2067.9,547.147c.161,1.715-.851,2.6-2.258,1.966a5.6,5.6,0,0,1-2.83-4.239c-.157-1.714.852-2.593,2.256-1.967A5.589,5.589,0,0,1,2067.9,547.147Z" transform="translate(-2039.53 -519.468)" fill="#fff"/>
                  <path id="Trazado_2096" data-name="Trazado 2096" d="M2071.489,554.764c.16,1.714-.85,2.6-2.256,1.967a5.593,5.593,0,0,1-2.833-4.24c-.159-1.714.852-2.595,2.256-1.967A5.581,5.581,0,0,1,2071.489,554.764Z" transform="translate(-2039.422 -519.239)" fill="#fff"/>
                </g>
              </g>
              <g id="Grupo_733" data-name="Grupo 733" transform="translate(223.208 129.629)">
                <path id="Trazado_2097" data-name="Trazado 2097" d="M2213.041,684.126c0,2.934-.864,5.135-2.315,6.441-2,1.8-7.557,5.309-11.059,3.287l-64.652-42.139c-6.042-3.49-10.944-11.976-10.946-18.955l-3.977-78.179c0-4.14,5.7-6.1,8.368-6.867,1.828-.526,4.1-.152,6.554,1.266l67.085,38.731c6.042,3.489,10.944,11.975,10.944,18.955Z" transform="translate(-2118.953 -547.488)" fill="url(#radial-gradient-2)"/>
                <path id="Trazado_2098" data-name="Trazado 2098" d="M2207.958,686.609c0,6.981-4.9,9.808-10.941,6.321L2129.933,654.2c-6.042-3.49-10.944-11.976-10.947-18.955l0-77.461c0-6.979,4.9-9.806,10.944-6.318l67.085,38.731c6.042,3.489,10.944,11.976,10.944,18.955Z" transform="translate(-2118.986 -547.414)" fill="url(#linear-gradient-22)"/>
                <path id="Trazado_2099" data-name="Trazado 2099" d="M2162.684,589.427c-9.657-5.575-17.493-1.057-17.493,10.1s17.493,53.212,17.493,53.212,17.5-21.857,17.5-33.011S2172.344,595,2162.684,589.427Zm0,35.61c-7.132-4.119-12.909-14.13-12.909-22.363s5.778-11.577,12.909-7.458,12.915,14.132,12.917,22.368S2169.818,629.154,2162.684,625.037Z" transform="translate(-2118.198 -546.298)" fill="#f7f7f7"/>
              </g>
              <g id="Grupo_735" data-name="Grupo 735" transform="translate(335.242 192.833)">
                <path id="Trazado_2100" data-name="Trazado 2100" d="M2321.792,745.552c0,2.8-.792,4.939-2.131,6.262-1.991,1.97-7.754,5.484-11.368,3.4l-64.531-42.073c-6.042-3.489-10.942-11.975-10.942-18.954l-3.583-78.98c0-3.2,4.13-4.589,6.035-5.476,2.838-1.318,5.215-1.216,8.49.675l67.086,38.731c6.042,3.489,10.944,11.976,10.94,18.955Z" transform="translate(-2227.703 -608.846)" fill="url(#radial-gradient-3)"/>
                <path id="Trazado_2101" data-name="Trazado 2101" d="M2316.72,748.035c0,6.978-4.9,9.805-10.944,6.316l-67.085-38.73c-6.042-3.49-10.944-11.976-10.944-18.955V619.2c0-6.978,4.9-9.806,10.944-6.319l67.085,38.731c6.042,3.49,10.944,11.977,10.942,18.955Z" transform="translate(-2227.748 -608.769)" fill="#f42c59" opacity="0.5"/>
                <g id="Grupo_734" data-name="Grupo 734" transform="translate(17.417 36.241)">
                  <path id="Trazado_2102" data-name="Trazado 2102" d="M2282.718,659.612c-5.36-2.592-8.917-.674-10.995,1.473-2.079-4.547-5.63-10.568-10.994-14.169-9.459-6.348-18.315-3.057-15.565,18.2,2.738,21.162,26.354,46.736,26.559,46.953v.005h0l.005,0v0c.2.014,23.816,1.711,26.555-16.29C2301.034,677.7,2292.179,664.187,2282.718,659.612Z" transform="translate(-2244.656 -644.028)" fill="#fff"/>
                </g>
              </g>
            </g>
          </g>
        </g>
      </g>
    </g>
    <path id="Trazado_84" data-name="Trazado 84" d="M2266.682,914.142c-33.673,24.052-25.665,73.758-46.906,85.787s-54.917,9.621-50.908-47.3,101.823-87.391,101.823-87.391C2304.583,851.252,2300.355,890.089,2266.682,914.142Z" transform="translate(18.173 37.451)" fill="#fff"/>
    <path id="Trazado_85" data-name="Trazado 85" d="M1815.136,347.6c45.969-54.519,137.9-81.247,160.35-55.591,25.2,28.805,1.716,60.792-32.071,69.823-61.149,16.355-104.593,56.9-116.466,68.935a27.139,27.139,0,0,1-9.691,6.3C1775.616,452.873,1776.871,392.983,1815.136,347.6Z" transform="translate(2.672 0)" fill="#fff"/>
    <g id="Grupo_32" data-name="Grupo 32" transform="translate(1697.422 422.484)">
      <circle id="Elipse_5" data-name="Elipse 5" cx="19.664" cy="19.664" r="19.664" transform="translate(558.255 113.359)" fill="#fbe54f" opacity="0.5"/>
      <circle id="Elipse_6" data-name="Elipse 6" cx="11.371" cy="11.371" r="11.371" transform="translate(289.504)" fill="#76f4bd" opacity="0.5"/>
      <circle id="Elipse_7" data-name="Elipse 7" cx="11.543" cy="11.543" r="11.543" transform="translate(661.733 434.159)" fill="#fbe54f" opacity="0.5"/>
      <path id="Trazado_86" data-name="Trazado 86" d="M1725.971,746.727h-.006a28.546,28.546,0,1,0,.006,0Z" transform="translate(-1697.422 -408.509)" fill="#fbe54f" opacity="0.5"/>
      <path id="Trazado_87" data-name="Trazado 87" d="M2085.226,1070.711a38.479,38.479,0,0,0-38.474-38.483h0a38.48,38.48,0,1,0,38.476,38.486Z" transform="translate(-1688.071 -399.92)" fill="#76d6b0" opacity="0.3"/>
    </g>
  </g>
</svg>
