<svg xmlns="http://www.w3.org/2000/svg" xmlns:xlink="http://www.w3.org/1999/xlink" width="1920" height="963.516" viewBox="0 0 1920 963.516">
  <defs>
    <clipPath id="clip-path">
      <path id="Rectangle_767" data-name="Rectangle 767" d="M-187.24-1175.212h1920V-211.7h-1920Z" fill="none"/>
    </clipPath>
  </defs>
  <g id="Grupo_949" data-name="Grupo 949" transform="translate(187.24 1175.212)">
    <g id="Grupo_948" data-name="Grupo 948" clip-path="url(#clip-path)">
      <g id="Grupo_947" data-name="Grupo 947">
        <g id="Grupo_889" data-name="Grupo 889">
          <g id="Grupo_881" data-name="Grupo 881">
            <g id="Grupo_874" data-name="Grupo 874">
              <g id="Grupo_868" data-name="Grupo 868">
                <path id="Trazado_2273" data-name="Trazado 2273" d="M-394.38-299.133-23.573-84.869,622.966-457.522l-372.3-215.359Z" fill="#dbdbdb"/>
                <path id="Trazado_2274" data-name="Trazado 2274" d="M-23.573-84.869v22.2L622.966-435.322v-22.2Z" fill="#b2b2b2"/>
                <path id="Trazado_2275" data-name="Trazado 2275" d="M-394.38-298.949v22.2L-23.573-62.484v-22.2Z" fill="#8e8e8e"/>
              </g>
              <g id="Grupo_869" data-name="Grupo 869">
                <path id="Trazado_2276" data-name="Trazado 2276" d="M-23.571-97.676l-1-.579L-372.016-298.872,248.957-659.3l1.005.579L598.847-457.035Zm-340.45-201.2L-23.571-102.3,590.84-457.039,248.965-654.671Z" fill="#fff"/>
              </g>
              <g id="Grupo_870" data-name="Grupo 870">
                <path id="Trazado_2277" data-name="Trazado 2277" d="M100.34-342.492c-35.264,0-63.957-17.566-63.957-39.156S65.076-420.8,100.34-420.8s63.96,17.565,63.96,39.156S135.608-342.492,100.34-342.492Zm0-74.307c-33.058,0-59.951,15.768-59.951,35.151S67.282-346.5,100.34-346.5s59.955-15.768,59.955-35.15S133.4-416.8,100.34-416.8Z" fill="#fff"/>
              </g>
              <g id="Grupo_871" data-name="Grupo 871">
                <path id="Trazado_2278" data-name="Trazado 2278" d="M-197.772-343.184c-66.888,0-127.42,16.658-170.885,43.433a13.723,13.723,0,0,1,2.937,2.886c42.716-26.013,102.209-42.2,167.948-42.2C-68.1-339.061,37.4-276.17,37.4-198.865c0,37.564-24.958,71.7-65.446,96.893.812,1.07,1.634,2.132,2.541,3.123,41.456-25.962,67.028-61.212,67.028-100.016C41.519-278.441-65.827-343.184-197.772-343.184Z" fill="#fff"/>
              </g>
              <g id="Grupo_872" data-name="Grupo 872">
                <path id="Trazado_2279" data-name="Trazado 2279" d="M593.429-456.767c-.9-.931-1.728-1.915-2.571-2.892-42.683,25.845-101.989,41.907-167.489,41.907-129.669,0-235.165-62.891-235.165-140.2,0-37.406,24.748-71.409,64.935-96.574a22.857,22.857,0,0,1-3.5-2.514c-40.588,25.872-65.558,60.744-65.558,99.088,0,79.576,107.344,144.319,239.288,144.319,66.55,0,126.817-16.484,170.234-43.019A1.781,1.781,0,0,1,593.429-456.767Z" fill="#fff"/>
              </g>
              <g id="Grupo_873" data-name="Grupo 873">
                <rect id="Rectángulo_71" data-name="Rectángulo 71" width="4.006" height="398.656" transform="matrix(0.5, -0.866, 0.866, 0.5, -63.523, -474.196)" fill="#fff"/>
              </g>
            </g>
            <g id="Grupo_875" data-name="Grupo 875">
              <path id="Trazado_2280" data-name="Trazado 2280" d="M288.485-451.593c-35.264,0-63.957-17.566-63.957-39.157s28.693-39.156,63.957-39.156,63.96,17.566,63.96,39.156S323.753-451.593,288.485-451.593Zm0-74.307c-33.058,0-59.951,15.768-59.951,35.15S255.427-455.6,288.485-455.6s59.955-15.768,59.955-35.151S321.543-525.9,288.485-525.9Z" fill="#fff"/>
            </g>
            <g id="Grupo_876" data-name="Grupo 876">
              <path id="Trazado_2281" data-name="Trazado 2281" d="M-85.529-237.271c-35.264,0-63.956-17.566-63.956-39.156s28.692-39.154,63.956-39.154,63.96,17.563,63.96,39.154S-50.261-237.271-85.529-237.271Zm0-74.3c-33.058,0-59.95,15.768-59.95,35.149s26.892,35.15,59.95,35.15,59.955-15.768,59.955-35.15S-52.471-311.576-85.529-311.576Z" fill="#fff"/>
            </g>
            <g id="Grupo_877" data-name="Grupo 877">
              <rect id="Rectángulo_72" data-name="Rectángulo 72" width="131.255" height="4.008" transform="matrix(0.768, -0.64, 0.64, 0.768, 243.511, -518.617)" fill="#fff"/>
            </g>
            <g id="Grupo_878" data-name="Grupo 878">
              <rect id="Rectángulo_73" data-name="Rectángulo 73" width="155.581" height="4.006" transform="translate(331.42 -466.212) rotate(-23.112)" fill="#fff"/>
            </g>
            <g id="Grupo_879" data-name="Grupo 879">
              <rect id="Rectángulo_74" data-name="Rectángulo 74" width="163.675" height="4.004" transform="translate(-275.988 -247.157) rotate(-21.728)" fill="#fff"/>
            </g>
            <g id="Grupo_880" data-name="Grupo 880">
              <rect id="Rectángulo_75" data-name="Rectángulo 75" width="137.027" height="4.004" transform="matrix(0.78, -0.625, 0.625, 0.78, -143.775, -170.261)" fill="#fff"/>
            </g>
          </g>
          <g id="Grupo_885" data-name="Grupo 885">
            <path id="Trazado_2282" data-name="Trazado 2282" d="M395.489-763.611h-8.624v204.6l8.624,5.174Z" fill="#c96c57"/>
            <path id="Trazado_2283" data-name="Trazado 2283" d="M395.489-553.835l6.872-4.017V-753.677l-7.559-2.749Z" fill="#993d28"/>
            <g id="Grupo_883" data-name="Grupo 883">
              <path id="Trazado_2284" data-name="Trazado 2284" d="M353.41-772.088l89.674,51.659v-91.516L353.41-857.3Z" fill="#8e8e8e"/>
              <path id="Trazado_2285" data-name="Trazado 2285" d="M347.895-769.511l89.674,51.659v-91.517l-89.674-51.65Z" fill="#b2b2b2"/>
              <path id="Trazado_2286" data-name="Trazado 2286" d="M437.569-717.852l5.515-2.577v-92.165l-5.515,3.226Z" fill="#8e8e8e"/>
              <path id="Trazado_2287" data-name="Trazado 2287" d="M347.895-861.019l5.515-3.2,89.674,51.629-5.515,3.226Z" fill="#dbdbdb"/>
              <g id="Grupo_882" data-name="Grupo 882">
                <path id="Trazado_2288" data-name="Trazado 2288" d="M417.153-750.178l-48.842-28.139v-50.377l48.842,28.134Zm-44.836-30.454,40.83,23.523v-41.136l-40.83-23.517Z" fill="#fff"/>
              </g>
            </g>
            <g id="Grupo_884" data-name="Grupo 884">
              <path id="Trazado_2289" data-name="Trazado 2289" d="M368.482-732.5c-19,0-33.882-9.286-33.882-21.142s14.884-21.142,33.882-21.142,33.879,9.287,33.879,21.142S387.48-732.5,368.482-732.5Zm0-38.161c-16.132,0-29.759,7.792-29.759,17.019s13.627,17.019,29.759,17.019,29.756-7.793,29.756-17.019S384.611-770.663,368.482-770.663Z" fill="red"/>
            </g>
          </g>
          <g id="Grupo_888" data-name="Grupo 888">
            <g id="Grupo_886" data-name="Grupo 886">
              <path id="Trazado_2290" data-name="Trazado 2290" d="M-165.474-409.788c-19,0-33.882-9.286-33.882-21.142s14.883-21.142,33.882-21.142,33.879,9.286,33.879,21.142S-146.476-409.788-165.474-409.788Zm0-38.161c-16.132,0-29.759,7.793-29.759,17.019s13.627,17.02,29.759,17.02,29.756-7.793,29.756-17.02S-149.345-447.949-165.474-447.949Z" fill="red"/>
            </g>
            <g id="Grupo_887" data-name="Grupo 887">
              <path id="Trazado_2291" data-name="Trazado 2291" d="M-232.453-424.337l89.674,51.659v-91.517l-89.674-45.352Z" fill="#8e8e8e"/>
              <path id="Trazado_2292" data-name="Trazado 2292" d="M-237.968-421.76l89.674,51.659v-91.516l-89.674-51.65Z" fill="#b2b2b2"/>
              <path id="Trazado_2293" data-name="Trazado 2293" d="M-148.293-370.1l5.514-2.577v-92.166l-5.514,3.226Z" fill="#8e8e8e"/>
              <path id="Trazado_2294" data-name="Trazado 2294" d="M-237.968-513.268l5.514-3.2,89.674,51.629-5.514,3.226Z" fill="#dbdbdb"/>
            </g>
            <path id="Trazado_2295" data-name="Trazado 2295" d="M-199.993-407l-8.624-5.042v195.337l8.624,5.174Z" fill="#ad553a"/>
            <path id="Trazado_2296" data-name="Trazado 2296" d="M-199.993-211.533l6.872-4.017V-410.974L-199.993-407Z" fill="#993d28"/>
          </g>
          <path id="Trazado_2297" data-name="Trazado 2297" d="M-208.617-412.045l6.728-3.956,8.767,5.027L-199.993-407Z" fill="#c96c57"/>
        </g>
        <g id="Grupo_900" data-name="Grupo 900">
          <g id="Grupo_890" data-name="Grupo 890">
            <path id="Trazado_2298" data-name="Trazado 2298" d="M270.217-322.288,636.556-110.605,1275.3-478.768,907.491-691.532Z" fill="#76d6b0"/>
            <path id="Trazado_2299" data-name="Trazado 2299" d="M636.556-110.605v21.933L1275.3-456.835v-21.933Z" fill="#77a01f"/>
            <path id="Trazado_2300" data-name="Trazado 2300" d="M270.217-322.106v21.933L636.556-88.49v-21.933Z" fill="#507316"/>
          </g>
          <g id="Grupo_891" data-name="Grupo 891" opacity="0.7">
            <path id="Trazado_2301" data-name="Trazado 2301" d="M636.556-123.256l-.989-.572L292.312-322.03,905.8-678.115l.994.576,344.68,199.249ZM300.211-322.038,636.556-127.824,1243.564-478.29,905.808-673.539Z" fill="#fff"/>
          </g>
          <g id="Grupo_892" data-name="Grupo 892" opacity="0.7">
            <path id="Trazado_2302" data-name="Trazado 2302" d="M757.065-358.017c-42.739,0-77.508-21.2-77.508-47.271s34.769-47.272,77.508-47.272,77.508,21.2,77.508,47.272S799.8-358.017,757.065-358.017Zm0-90.585c-40.555,0-73.551,19.431-73.551,43.314s33,43.314,73.551,43.314,73.55-19.431,73.55-43.314S797.62-448.6,757.065-448.6Z" fill="#fff"/>
          </g>
          <g id="Grupo_893" data-name="Grupo 893" opacity="0.7">
            <path id="Trazado_2303" data-name="Trazado 2303" d="M524.238-329a117.834,117.834,0,0,1,29.791-3.748c40.526,0,73.494,19.4,73.494,43.254a28.787,28.787,0,0,1-6.112,17.22c1.012.834,2.015,1.681,3.016,2.53,4.556-6.02,7.169-12.7,7.169-19.75,0-26.1-34.8-47.328-77.567-47.328a118.928,118.928,0,0,0-34.106,4.886l.108.068A18.631,18.631,0,0,1,524.238-329Z" fill="#fff"/>
          </g>
          <g id="Grupo_894" data-name="Grupo 894" opacity="0.7">
            <path id="Trazado_2304" data-name="Trazado 2304" d="M1002.782-486.441c-1.089-.641-2.154-1.323-3.217-2.012a116.553,116.553,0,0,1-32.2,4.435c-40.526,0-73.494-19.407-73.494-43.258,0-6.349,2.394-12.363,6.587-17.8a20.759,20.759,0,0,0-3.2-2.316c-4.732,6.115-7.458,12.917-7.458,20.116,0,26.1,34.8,47.332,77.568,47.332a118.151,118.151,0,0,0,36.283-5.528C1003.361-485.8,1003.063-486.113,1002.782-486.441Z" fill="#fff"/>
          </g>
          <g id="Grupo_895" data-name="Grupo 895" opacity="0.7">
            <rect id="Rectángulo_76" data-name="Rectángulo 76" width="3.955" height="393.853" transform="matrix(0.5, -0.866, 0.866, 0.5, 597.087, -495.244)" fill="#fff"/>
          </g>
          <g id="Grupo_896" data-name="Grupo 896" opacity="0.7">
            <path id="Trazado_2305" data-name="Trazado 2305" d="M565.808-166.7l-1.979-3.424L680.4-237.485,472.8-357.712,353.925-289.023l-1.979-3.424L472.8-362.279l.993.572L688.3-237.477Z" fill="#fff"/>
          </g>
          <g id="Grupo_897" data-name="Grupo 897" opacity="0.7">
            <path id="Trazado_2306" data-name="Trazado 2306" d="M1058.961-450.345l-1-.58L841.718-576.172l119.639-69.1,1.979,3.424L849.625-576.164l209.313,121.236,114.152-67.506,2.017,3.408Z" fill="#fff"/>
          </g>
          <g id="Grupo_898" data-name="Grupo 898" opacity="0.7">
            <path id="Trazado_2307" data-name="Trazado 2307" d="M508.565-198.337l-2.04-3.393,60.612-36.478-101.2-58.5-64.067,36.8-1.971-3.432,66.046-37.934.985.572,108,62.424Z" fill="#fff"/>
          </g>
          <g id="Grupo_899" data-name="Grupo 899" opacity="0.7">
            <path id="Trazado_2308" data-name="Trazado 2308" d="M1064.97-520.024,954.247-583.657l54.649-31.577,1.979,3.424-48.705,28.146,102.8,59.074,52.38-30.093,1.971,3.431Z" fill="#fff"/>
          </g>
        </g>
        <g id="Grupo_912" data-name="Grupo 912">
          <g id="Grupo_906" data-name="Grupo 906">
            <g id="Grupo_901" data-name="Grupo 901">
              <path id="Trazado_2309" data-name="Trazado 2309" d="M924.136-349.519l373.987,216.1,652.083-375.849L1574.714-726.472Z" fill="#70b9f9"/>
              <path id="Trazado_2310" data-name="Trazado 2310" d="M1298.122-133.417v22.391l652.083-375.849v-22.391Z" fill="#00aff7"/>
              <path id="Trazado_2311" data-name="Trazado 2311" d="M924.136-349.333v22.391l373.987,216.1v-22.391Z" fill="#06f"/>
            </g>
            <g id="Grupo_902" data-name="Grupo 902">
              <path id="Trazado_2312" data-name="Trazado 2312" d="M950.724-349.26l347.4,200.6,623.722-360.112L1572.994-710.439Z" fill="#70b9f9"/>
              <path id="Trazado_2313" data-name="Trazado 2313" d="M1298.123-146.333l-1.01-.584-350.42-202.34,626.3-363.519,1.012.588,351.878,203.413ZM954.756-349.265,1298.123-151l619.686-357.778L1572.995-708.1Z" fill="#fff"/>
            </g>
            <g id="Grupo_903" data-name="Grupo 903">
              <rect id="Rectángulo_77" data-name="Rectángulo 77" width="4.037" height="402.074" transform="translate(1257.83 -526.083) rotate(-59.971)" fill="#fff"/>
            </g>
            <g id="Grupo_904" data-name="Grupo 904">
              <rect id="Rectángulo_78" data-name="Rectángulo 78" width="4.042" height="270.95" transform="translate(1173.022 -417.384) rotate(-60.09)" fill="#fff"/>
            </g>
            <g id="Grupo_905" data-name="Grupo 905">
              <rect id="Rectángulo_79" data-name="Rectángulo 79" width="4.042" height="270.95" transform="translate(1458.356 -580.133) rotate(-60.09)" fill="#fff"/>
            </g>
          </g>
          <g id="Grupo_907" data-name="Grupo 907">
            <path id="Trazado_2314" data-name="Trazado 2314" d="M1241.548-183.664l-6.308-2.362L1858.863-546.35l2.02,3.5Z" fill="#fff"/>
          </g>
          <g id="Grupo_908" data-name="Grupo 908">
            <rect id="Rectángulo_80" data-name="Rectángulo 80" width="326.991" height="4.036" transform="matrix(0.864, -0.503, 0.503, 0.864, 1283.985, -358.404)" fill="#fff"/>
          </g>
          <g id="Grupo_909" data-name="Grupo 909">
            <path id="Trazado_2315" data-name="Trazado 2315" d="M1006.31-319.5l-4.043-2.335,623.28-359.226,2.016,3.5Z" fill="#fff"/>
          </g>
          <g id="Grupo_910" data-name="Grupo 910">
            <path id="Trazado_2316" data-name="Trazado 2316" d="M1264.806-618.63l-4.274-2.5v96.811l4.274,2.565Z" fill="#ad553a"/>
            <path id="Trazado_2317" data-name="Trazado 2317" d="M1264.806-521.753l4.028-2.522v-96.854l-4.028,2.5Z" fill="#993d28"/>
          </g>
          <g id="Grupo_911" data-name="Grupo 911">
            <path id="Trazado_2318" data-name="Trazado 2318" d="M1602.4-423.494l-4.274-2.5v96.811l4.274,2.564Z" fill="#ad553a"/>
            <path id="Trazado_2319" data-name="Trazado 2319" d="M1602.4-326.617l4.029-2.522v-96.854l-4.029,2.5Z" fill="#993d28"/>
          </g>
          <path id="Trazado_2320" data-name="Trazado 2320" d="M1260.532-621.129v62.737L1602.4-360.851v-62.643Z" fill="#b2b2b2"/>
          <path id="Trazado_2321" data-name="Trazado 2321" d="M1260.532-621.129l3.837-2.235,342.056,197.371-4.029,2.5Z" fill="#dbdbdb"/>
        </g>
        <g id="Grupo_946" data-name="Grupo 946">
          <g id="Grupo_920" data-name="Grupo 920">
            <g id="Grupo_917" data-name="Grupo 917">
              <g id="Grupo_913" data-name="Grupo 913">
                <path id="Trazado_2322" data-name="Trazado 2322" d="M225.487-577.033s-25.709-6.764-33.945-7.4c-3.866-.3-10.234.751-15.913,1.944,2.071,3.246,5.058,10.3.786,19.969.889-.218,1.743-.4,2.53-.525,11.382-1.735,33.465-2.891,41.068-.385,4.567,1.506,9.023-3.721,9.138-8.124C229.227-574.479,225.487-577.033,225.487-577.033Z" fill="#ffa08d"/>
                <path id="Trazado_2323" data-name="Trazado 2323" d="M175.629-582.487c-6.421,1.349-11.96,2.886-11.96,2.886l-19.292,4.741s.728,14.114,7.7,16.648c6.228,2.265,16.865-2.467,24.34-4.306C180.687-572.188,177.7-579.241,175.629-582.487Z" fill="#0f0f0f"/>
              </g>
              <path id="Trazado_2324" data-name="Trazado 2324" d="M135.435-722.185c-5.138.357-11.035,4.289-13.38,8.24-4.13,6.959-3.959,11.431-4.13,18-.12,4.633-.413,15.656-9,20.007-4.289,2.173-29.61,23.005-29.61,23.005l7.627,8.864s24.016-11.419,28.893-13.586c6.987-3.1,12.711-11.133,14.625-15.092,4.11-8.5,10.562-27.989,10.562-27.989Z" fill="#ffa08d"/>
              <path id="Trazado_2325" data-name="Trazado 2325" d="M140.256-709.93s-3.925,14.423-3.235,19.252,10.022,13.8,10.022,13.8,10.351,4.14,18.194-2.759,5.255-30.291,5.255-30.291l-18.034-12.255Z" fill="#ffa08d"/>
              <path id="Trazado_2326" data-name="Trazado 2326" d="M132.527-608.4a111.178,111.178,0,0,1,5.367-21.591c7.2-3.68,9.316,8.758,9.316,8.758Z" fill="#d80000"/>
              <path id="Trazado_2327" data-name="Trazado 2327" d="M176.23-608.118a44.834,44.834,0,0,0,2.715,23.687s-8.044,8.624-16.559,15.988c-9.906,8.568-23.107-5.467-23.107-5.467S164.526-612.027,176.23-608.118Z" fill="#d80000"/>
              <path id="Trazado_2328" data-name="Trazado 2328" d="M177.829-587.461s-5.669,4.035-8.544,6.48c-2.516,2.14-5.362,7.359-8.911,8.221s-10.234.23-10.234.23l1.935-4.222s5.482,1.29,7.9.428,5-4.932,8.969-8.157a85.918,85.918,0,0,1,8.106-5.772Z" fill="#0f0f0f"/>
              <path id="Trazado_2329" data-name="Trazado 2329" d="M169.157-710.361s-14.723,32.432-24.086,25.171-5.624-16.474-5.624-16.474l-6.544-8.7a175.482,175.482,0,0,0,.007,22.569c.858,10.316,9.039,34.216,6.066,38.509-6.449,9.314,1.089,11.039,1.089,11.039l-4.93,9.314s20.8,16.434,34.15,12.266c17.677-5.52,25.527-6.4,25.527-6.4s0-8.279-3.271-13.453c1.547-15.523,1.623-39.058-1.558-52.089-2.493-10.214-9.7-18.386-13.753-21.322-10.463-7.575-24.473-12.255-24.473-12.255l1.94,5.275Z" fill="red"/>
              <path id="Trazado_2330" data-name="Trazado 2330" d="M136.544-702.221s-1.409,6.254-.949,9.7,3.076,11.269,8.782,14.259,11.742-1.175,14.933-5.877,10.32-19.191,12.85-21.49a36.965,36.965,0,0,0,4.07-4.3l-1.942-1.331a26.2,26.2,0,0,0-5.347,5.4c-2.3,3.219-8.567,17.3-12.3,21.272-3.193,3.39-7.833,8.164-12.476,3.795s-7.389-8.739-7.072-13.109.922-8.352.922-8.352Z" fill="#0f0f0f"/>
              <path id="Trazado_2331" data-name="Trazado 2331" d="M149.592-745.359c-6.424-4.893-21.641-6.462-27.2,9.261-5.825,16.489,9.1,37.082,17.049,33.584,4.452-1.96,13.814-8.919,16.451-17.6C158.864-729.885,154.584-741.557,149.592-745.359Z" fill="#ffc5b3"/>
              <path id="Trazado_2332" data-name="Trazado 2332" d="M147.936-721.849s2.946-6.148,5.721-4.356c2.053,1.327,2.239,6.091,2.239,6.091a23.114,23.114,0,0,0,2.863-17.1c-1.365-6.141-9.029-16.715-19.783-15.5-13.9,1.573-19.473,14.473-17.9,21.9,1.754-5.379,6.87-6.891,13.665-5.19C146.272-733.12,147.936-721.849,147.936-721.849Z" fill="#0f0f0f"/>
              <path id="Trazado_2333" data-name="Trazado 2333" d="M177.813-703.189c-10.134,2.922-11.136,16.917-10.341,22.17.685,4.534,2.525,10.349,5.331,13.108s13.733-.847,14.792-7.737S188.258-706.2,177.813-703.189Z" fill="#ffc5b3"/>
              <path id="Trazado_2334" data-name="Trazado 2334" d="M196.673-698.665c9.178,6.607,20.62,7.429,26.386,11.782,6.4,4.829,11.292,7.859,9.737,11.235-2.768,6.009-3.582,13-7.13,19.552-5.65,10.438-7.009,15.483-7.683,17.507-.975,2.922,2.36,8.279,2.36,14.249,0,5.413-4.143,16.06-7.593,20.592-2.392,3.144-6.755-3.518-5.78-8.139s-.643-15.894-.643-15.894a23.025,23.025,0,0,0-6.382,4.029c-2.451,2.182-4.1.341-.9-3.357,2.567-2.966,7.49-8.814,8.962-12.883,1.246-3.443,1.809-12.374,1.6-16.1-.622-10.861,5.419-15.312,5.415-15.208,0,0-10.549,2.218-18.411-.55-3.955-1.392-16.631-2.17-16.631-2.17l-4.349-28.1S183.282-708.3,196.673-698.665Z" fill="#ffc5b3"/>
              <g id="Grupo_914" data-name="Grupo 914">
                <path id="Trazado_2335" data-name="Trazado 2335" d="M165.768-591.3l-42.178-2.475a57.318,57.318,0,0,1-3.342,10.007c-1.885,4.116-3.055,9.226-4.067,13.861a34.706,34.706,0,0,0,7.742,7.04c2.755,1.716,10.27,2.37,13.654,2.583C147.027-573.067,165.768-591.3,165.768-591.3Z" fill="#ffc5b3"/>
                <path id="Trazado_2336" data-name="Trazado 2336" d="M117.2-535.446c-5.556-1.135-8.69-7.731-10.015-11.343a75.073,75.073,0,0,0-4,17.089c-.742,7.626-7.26,32.554-9.824,35.917s12.585,4.747,12.585,4.747,9.146-21.985,15.988-30.172c3.521-4.215,5.377-9.951,6.788-15.936A29.22,29.22,0,0,1,117.2-535.446Z" fill="#ffc5b3"/>
                <path id="Trazado_2337" data-name="Trazado 2337" d="M119.956-535.446,116.181-521.3s4.975-3.13,6.2-8.279,2.061-5.864,2.061-5.864Z" fill="#ffa08d"/>
                <path id="Trazado_2338" data-name="Trazado 2338" d="M116.181-569.911c-1.133,5.193-2.067,9.789-3.573,11.7-1.445,1.83-3.55,6.119-5.426,11.423,1.325,3.612,4.459,10.208,10.015,11.343a29.22,29.22,0,0,0,11.52.3c1.331-5.644,2.268-11.508,3.81-16.54.667-2.18,2.534-5.2,5.05-8.6-3.384-.213-10.9-.867-13.654-2.583A34.706,34.706,0,0,1,116.181-569.911Z" fill="#0f0f0f"/>
              </g>
              <path id="Trazado_2339" data-name="Trazado 2339" d="M144.373-640.389s-6.847,25.593-7.433,26.24c-9.564,10.544-23.651,26.1-24.332,27.114,7.178,8.049,3.249,8.173,10.6,14.026,14.266,11.356,30.708,2.6,30.708,2.6s2.166-9.289,11.848-20.9,21.178-13.551,24.261-24.173c3.4-11.731,0-30.356,0-30.356Z" fill="red"/>
              <path id="Trazado_2340" data-name="Trazado 2340" d="M143.643-648.938s13.079,3.335,21.2.69,17.435-12.879,17.435-12.879-8.854,4.485-12.994,6.325S149.738-649.4,143.643-648.938Z" fill="#d80000"/>
              <path id="Trazado_2341" data-name="Trazado 2341" d="M140.065-638.244a41.578,41.578,0,0,0,17.262,7.573c10.464,1.971,26.332-4.584,26.332-4.584s-1.15-3.449-3.45-4.139-19.354-.69-21.866-.46S144.881-638.359,140.065-638.244Z" fill="#d80000"/>
              <path id="Trazado_2342" data-name="Trazado 2342" d="M138.411-626.554s10.879,5.9,18.462,8.317,18.047-.509,23.566-1.888,10.838-2.347,10.838-2.347a29.493,29.493,0,0,1-1.248,6.995,41.5,41.5,0,0,0-12.2,0c-4.059.69-14.965,2.259-20.272.575C140.3-620.377,138.411-626.554,138.411-626.554Z" fill="#d80000"/>
              <g id="Grupo_915" data-name="Grupo 915">
                <path id="Trazado_2343" data-name="Trazado 2343" d="M96.294-500.822s-8.241,6.963-11.917,9.121-9.423,6.472-14.209,8.937-6.958,6.012-6.042,7.982c1.756,3.774,5.515,7.079,11.948,7.023,3.266-.028,10.342-5.759,15.756-7.608s13.784-4.92,15.177-8.2c2.756-6.492,3.175-9.676,2.461-12.63-1.153-.568-3.782,2.631-5.055.925C101.656-498.973,99.511-500.822,96.294-500.822Z" fill="#0f0f0f"/>
                <path id="Trazado_2344" data-name="Trazado 2344" d="M88.531-494.593s4.111,1.378,5.937,4.294,5.441,2.374,3.6-1.8a10.309,10.309,0,0,0-5.811-5.412Z" fill="#fff"/>
                <path id="Trazado_2345" data-name="Trazado 2345" d="M81.862-490.124a24.228,24.228,0,0,1,5.7,5.606c1.826,2.916,5.361,1.967,3.523-2.206a12.727,12.727,0,0,0-5.24-5.9Z" fill="#fff"/>
                <path id="Trazado_2346" data-name="Trazado 2346" d="M75.168-485.7s4.059,2.428,5.885,5.343,5.361,1.967,3.523-2.2a12.726,12.726,0,0,0-5.24-5.9Z" fill="#fff"/>
                <path id="Trazado_2347" data-name="Trazado 2347" d="M64.216-477.15s3.484-1.638,5.322,1.032,3.618,5.753,5.281,6.369,9.585-3.081,14-5.341,11.132-3.582,13.909-7.359a32.827,32.827,0,0,1,5.931-5.436s.281,4.577-1.65,6.837a10.156,10.156,0,0,1-7.518,4.015,45.03,45.03,0,0,0-12.25,4.48c-1.852,1.15-7.21,5.573-12.071,6.328C69.247-465.3,59.7-471.284,64.216-477.15Z" fill="red"/>
                <path id="Trazado_2348" data-name="Trazado 2348" d="M94.661-499.463v-3.9s2.852-1.167,6.84,1.208a20.85,20.85,0,0,1,4.657,4.648l-.863,2.733S100.756-491.421,94.661-499.463Z" fill="red"/>
              </g>
              <g id="Grupo_916" data-name="Grupo 916">
                <path id="Trazado_2349" data-name="Trazado 2349" d="M217.983-563.348a41.934,41.934,0,0,0,6.151,7.2c5.017,4.14,5.4,15.57,7.705,19.088,2.414,3.679,7.473,1.61,7.473,1.61a30.442,30.442,0,0,0,1.84-24.842c-1.557-4.154.72-10.48-.345-13.212a22.373,22.373,0,0,0-4.253-7.047s-13.455-.313-14.371,2.946c-.35,1.244,3.754,2.859,4.351,5.1a2.482,2.482,0,0,1-.868,2.455A67.21,67.21,0,0,1,217.983-563.348Z" fill="#0f0f0f"/>
                <path id="Trazado_2350" data-name="Trazado 2350" d="M234.259-580.672a48.927,48.927,0,0,1,3.728,6.36c.956,2.159.394,6.407.75,9.889.471,4.6,2.265,9.87,2.53,11.039.4,1.762.115,9.429-2.07,13.108-.968,1.631-6.782,1.38-7.358,3.22s3.321,2.305,6.093,2.339c4.37.052,7.16-10.158,5.995-17.977s-3.506-9.977-2.631-12.978,3.118-5.477.567-10.048S239.56-580.771,234.259-580.672Z" fill="red"/>
                <path id="Trazado_2351" data-name="Trazado 2351" d="M223.059-557.12a16.785,16.785,0,0,1,3.72-3.623c1.84-1.438,4.254.172,2.373,1.724-2.3,1.9-4.488,3.381-4.488,3.381Z" fill="#fff"/>
                <path id="Trazado_2352" data-name="Trazado 2352" d="M226.119-553.791s2.8-1.548,4.375-2.468,3.531,1.141,1.288,2.468-4.42,2.424-4.42,2.424Z" fill="#fff"/>
                <path id="Trazado_2353" data-name="Trazado 2353" d="M228.234-549s3.1-1.726,4.562-2.365,2.952,1.343.882,2.365-4.782,2.243-4.782,2.243Z" fill="#fff"/>
                <path id="Trazado_2354" data-name="Trazado 2354" d="M220.252-560.288s-4.207-1.7-4.914-2.927-.4-3.432,2.645-4.476,7.683-2.358,7.683-2.358S224.994-563.052,220.252-560.288Z" fill="red"/>
              </g>
              <path id="Trazado_2355" data-name="Trazado 2355" d="M116.181-591.149s3.545,5.109,7.34,11.548c3.247,5.51,11.249,7.232,16.347,6.281s15.393-.926,15.393-.926l1.646-3.693s-13.484,1.633-17.628.906-11.022-.06-14.378-5.454c-3.831-6.155-6.369-11.292-6.369-11.292Z" fill="#0f0f0f"/>
              <path id="Trazado_2356" data-name="Trazado 2356" d="M153.92-664.231c3.483,5.073.8,12.034-.5,14.334s-6.207,9.17-6.207,9.17l11.133,3.661-1.436,4.819-15.218-6a28.878,28.878,0,0,1,6.439-11.653c3.928-4.233,3.661-11.345,1.362-11.805s-4.625,5.172-4.625,5.172l-5-2.527S147.21-674.005,153.92-664.231Z" fill="#0f0f0f"/>
              <path id="Trazado_2357" data-name="Trazado 2357" d="M136.544-631.593s8.422,5.422,13.6,7.665,10.177,5.257,17.938,3.577,26.582-5.377,26.582-5.377l-.237-1.989s-11.339,1.615-18.193,3.357c-5.1,1.3-10.9,4.426-22.037-.431-7.6-3.317-16.766-8.47-16.766-8.47Z" fill="#0f0f0f"/>
              <path id="Trazado_2358" data-name="Trazado 2358" d="M186.72-673.144a53.492,53.492,0,0,0-6.742-.88c-2.759-.1-3.748,7.03-3.748,7.03a12.408,12.408,0,0,0,6.394-1.779C186.154-671.162,186.72-673.144,186.72-673.144Z" fill="#ffa08d"/>
            </g>
            <g id="Grupo_919" data-name="Grupo 919">
              <g id="Grupo_918" data-name="Grupo 918">
                <path id="Trazado_2359" data-name="Trazado 2359" d="M90.676-646.613a22.659,22.659,0,0,1,.346,3.817A22.692,22.692,0,0,1,68.33-620.1a22.631,22.631,0,0,1-18.166-9.135A22.679,22.679,0,0,0,72.51-610.363,22.693,22.693,0,0,0,95.2-633.055,22.562,22.562,0,0,0,90.676-646.613Z" fill="#db5e00"/>
                <path id="Trazado_2360" data-name="Trazado 2360" d="M68.33-620.1A22.692,22.692,0,0,0,91.022-642.8a22.659,22.659,0,0,0-.346-3.817,22.633,22.633,0,0,0-18.166-9.134,22.693,22.693,0,0,0-22.692,22.692,22.742,22.742,0,0,0,.346,3.816A22.631,22.631,0,0,0,68.33-620.1Z" fill="#ff7300"/>
              </g>
              <path id="Trazado_2361" data-name="Trazado 2361" d="M59.746-651.815s12.107,10.564,17.34,22.33,6.75,16.035,6.75,16.035l.783-.418a105.863,105.863,0,0,0-8.8-20.677c-5.469-9.9-15.481-17.662-15.481-17.662Z" fill="#0f0f0f"/>
              <path id="Trazado_2362" data-name="Trazado 2362" d="M53.294-645.085s7.176.479,8.728,9.85c1.217,7.347.151,14.28,3.335,19.03,3.244,4.84,7.153,5.842,7.153,5.842l.839-.017s-6.743-3.45-8.567-8.872c-1.891-5.619-.057-17.88-5.036-23.4a8.511,8.511,0,0,0-6.074-3.057Z" fill="#0f0f0f"/>
              <path id="Trazado_2363" data-name="Trazado 2363" d="M68.279-655.338s.643,6.765,6.507,8.368c2.374.649,8.483-.029,11.716,3.329,5.935,6.164,6.843,19.572,6.843,19.572l.562-1.414s0-8.889-4.805-16.076c-4.194-6.272-7.55-5.577-13.224-6.209-5.154-.575-6.956-7.647-6.956-7.647Z" fill="#0f0f0f"/>
            </g>
          </g>
          <g id="Grupo_924" data-name="Grupo 924">
            <g id="Grupo_922" data-name="Grupo 922">
              <path id="Trazado_2364" data-name="Trazado 2364" d="M830.337-607.577s-9.1,21.206-8.643,28.53,11.24,7.773,18.129,6.639,57.608-7.415,57.608-7.415l8.849-5.262-1.988-20.909Z" fill="#ffa08d"/>
              <path id="Trazado_2365" data-name="Trazado 2365" d="M897.431-579.823s6.028,2.882,7.165,7.886c.736,3.239,1.328,7.037,5.611,7.72s6.621-7.236,6.329-15.606,6.01-15.3,1.938-20.06c-2.872-3.357-14.182-6.111-14.182-6.111s1.048,12.883-1.743,17.376C901.34-586.672,897.431-579.823,897.431-579.823Z" fill="#0092ff"/>
              <path id="Trazado_2366" data-name="Trazado 2366" d="M858.538-605.994a143.662,143.662,0,0,0-12.694,17.376c-7.319,11.436-12.777,32.361-16.417,42.368s-19.544,47.2-19.544,47.2l12.714,8.238s17.8-22.774,26.323-41.172c8.292-17.9,8.2-26.8,12.8-32.189S892.9-593.947,892.9-593.947,881.254-621.06,858.538-605.994Z" fill="#ffc5b3"/>
              <path id="Trazado_2367" data-name="Trazado 2367" d="M855.687-655.595s-12.064,15.982-15.864,20.928-18.129,32.281-18.129,32.281,4.094,6.782,6.824,8.829,17.326,4.939,17.326,4.939l12.694-17.376s12.127-6.3,20.393,0,19.577,17.376,19.577,17.376,15.982-11.265,15.253-29.478c-.383-9.59-.636-20.382-.636-20.382Z" fill="#0f0f0f"/>
              <path id="Trazado_2368" data-name="Trazado 2368" d="M785.959-669.739s-11.693,9.389-16.242,12.117-3.25,7.66,1.031,12.117c2.495,2.6,5.229,2.056,7.572.892.844-.418,1.631-1.938-1.886-3.374-1.9-.775,1.064-5.5,1.592-5.841,2.729-1.767,6.334-1.41,4.776,0-4.776,4.321-3.35,6.17-2.5,5.841,2.026-.787,8.817-3.247,9.1-4.477.455-2,3.639-5.533,3.639-5.533Z" fill="#ffa08d"/>
              <path id="Trazado_2369" data-name="Trazado 2369" d="M968.854-652.839c-.117,3.2-1.071,8.584,0,11.826s3.079,9.574,5.537,8.41-2.025-6.553-1.922-8.41,3.1-2.512,4.88,0,2.107,4.4,1.759,8.551,1.472,6.484,2.929,7.14,5.46-13.106,5.46-15.691-2.244-15.326-2.244-15.326Z" fill="#ffc5b3"/>
              <path id="Trazado_2370" data-name="Trazado 2370" d="M866.482-735.642s-11.541-2.457-20.638,11.009c-1.848,2.736-23.7,24.16-29.153,27.582s-6.368,10.418-8.188,13.287-7.516.471-9.1,2.2c-5.459,5.95-19.1,16.232-19.1,16.232L793.037-658s16.349-2.738,24.564-7.367c18.2-10.255,37.267-33.546,37.267-33.546s5.6,20.471,4.887,23.172-4.639,9.461-6.912,13.423c-3.856,6.72-.176,10.716-.176,10.716l-3.2,4.232s13.068,14.2,19.586,17.055c15.867,6.942,44.725-2.42,44.725-2.42s2.266-20.826-.655-39.382c-.782-4.965-2.844-19.9-2.844-19.9s12.954-1.265,20.417,3.958c3.631,2.542,10.231,2.21,13.507,6.731,3.036,4.189,7.812-2.434,8.494.777.777,3.655,4.154,7.413,6.823,10.814,1.546,1.969,9.311,18.14,9.311,18.14l16.786-2.616s-4.75-24.807-13.474-32.566c-1.987-1.767-2.842-6.842-6.141-10.27-1.354-1.408-4.667-.594-6.208-2.216-2.321-2.442-.347-5.229-1.979-6.526-3.526-2.8-10.179-2.928-14.945-5.378-14.281-7.342-16.556-13.462-29.092-19.227-7.857-3.613-32.737-11.181-32.737-11.181Z" fill="#0092ff"/>
              <path id="Trazado_2371" data-name="Trazado 2371" d="M870.21-728.581s1.326,13.942,2.5,14.575c5.719,3.09,17.249-4.388,22.467-14.575-7.144-7.115-14.13-13-14.13-13Z" fill="#ffa08d"/>
              <g id="Grupo_921" data-name="Grupo 921">
                <path id="Trazado_2372" data-name="Trazado 2372" d="M888.518-761.229c-4.923-5.587-21.984-10.012-29.392,3.462-1.631,2.966-1.64,8.748-1.856,12.042-.81,12.395,7.026,25.154,13.156,23.579,4.345-1.116,13.9-6.046,17.6-13.55C892.192-744.142,894.931-753.95,888.518-761.229Z" fill="#ffc5b3"/>
              </g>
              <path id="Trazado_2373" data-name="Trazado 2373" d="M859.126-757.767s1.86,6.091,7.9,7.378c6.425,1.368,15.047-2.658,15.047-2.658s3.068,4.795,2.613,7.093c3.814-1.1,5.641,4.375,5.641,4.375s4.408-5.161,2.516-13.914c-.869-4.027-2.567-9.824-8.374-12.057a62.121,62.121,0,0,0-6.828-1.817,15.9,15.9,0,0,1-7.435-4.322s-.754,1.592-.526,5.345a44.685,44.685,0,0,1-5.8-4.89s-1.252,3.98-.685,6.58a9.46,9.46,0,0,0-4.7-1.438S858.174-760.373,859.126-757.767Z" fill="#0f0f0f"/>
              <path id="Trazado_2374" data-name="Trazado 2374" d="M800.6-507.511s6.325-4.842,11.834-4.334S822.021-506.9,823.8-501.1s2.671,18.422-6.786,26.659C811.779-469.886,800.6-507.511,800.6-507.511Z" fill="#0092ff"/>
              <path id="Trazado_2375" data-name="Trazado 2375" d="M799.178-487.513s-6.414-17.713,3.412-21.006,17.429,7.268,19.1,12.762c3.412,11.188-3.411,15.579-4.093,19.558s-4.094,5.158-10.917,1.555S801.182-477.644,799.178-487.513Z" fill="#0f0f0f"/>
              <path id="Trazado_2376" data-name="Trazado 2376" d="M906.28-565.956s4.8-.991,5.48-4.061c.37-1.665-1.364-12.737,0-15.068s6.9-5.882,7.043-9.062a27.738,27.738,0,0,0-.329-5.736s6.591,2.573,2.5,10.126c-1.944,3.586-4.436,8.321-4.436,9.934s2,14.241-2.751,17.993S906.28-565.956,906.28-565.956Z" fill="#0f0f0f"/>
              <path id="Trazado_2377" data-name="Trazado 2377" d="M863.979-694.085v9.421s10.936.146,15.03,3.1,16.164,6.432,16.164,6.432v-9.474s-10.026-5.8-15.6-7.408S863.979-694.085,863.979-694.085Z" fill="#fff"/>
              <path id="Trazado_2378" data-name="Trazado 2378" d="M919.849-718.513,914.3-708.187s9.746,3.64,14.295,5.459a52.594,52.594,0,0,1,6.823,3.184l4.094-9.484S926.572-717.922,919.849-718.513Z" fill="#fff"/>
              <path id="Trazado_2379" data-name="Trazado 2379" d="M965.6-658.223s2.162-1.09,8.006-3.566A87.948,87.948,0,0,0,982.6-666.1l-1.16-3.635s-7.36,2.618-10.09,4.375-6.982,4.652-6.982,4.652Z" fill="#0058d8"/>
              <path id="Trazado_2380" data-name="Trazado 2380" d="M852.667-651.6s7.01,6.413,11.786,11.872,8.306,7.505,16.944,6.709,21.948-2.957,21.948-2.957a26.841,26.841,0,0,0-10.447-2.956c-6.709-.683-15.481,2.615-18.1,1.023s-12.169-11.144-16.149-12.395A24.477,24.477,0,0,0,852.667-651.6Z" fill="#0058d8"/>
              <path id="Trazado_2381" data-name="Trazado 2381" d="M867.069-651.6s4.4,6.853,8.3,8.005c15.011,4.435,26.952-4.663,26.952-4.663s-8.756-.449-13.419.342C877.531-645.987,872.3-653.009,867.069-651.6Z" fill="#0058d8"/>
              <path id="Trazado_2382" data-name="Trazado 2382" d="M785.959-669.739s6.168,3.566,7.988,5.758a60.574,60.574,0,0,1,3.675,5.092l2.316-.511s-1.67-5.118-4.4-7.62a64.983,64.983,0,0,0-6.632-5.1Z" fill="#0058d8"/>
              <path id="Trazado_2383" data-name="Trazado 2383" d="M854.868-698.91s.194-4.955,0-7.229.086-7.163.086-7.163-6.194,5.115-7.559,8.755,1.735,12.184,1.735,12.184Z" fill="#0058d8"/>
              <path id="Trazado_2384" data-name="Trazado 2384" d="M910.281-692.019,908.64-705s-5.3,4.776-6.318,7.505a12.455,12.455,0,0,0,9.317,15.191C911.078-686.781,910.281-692.019,910.281-692.019Z" fill="#0058d8"/>
              <path id="Trazado_2385" data-name="Trazado 2385" d="M848.987-571.937c-2.729,2.488-5.913,11.121-5.913,11.121s4.548-4.084,5.913-5.448S848.987-571.937,848.987-571.937Z" fill="#ffa08d"/>
              <path id="Trazado_2386" data-name="Trazado 2386" d="M906.778-630.815c-.168.041.846,11.785-.5,15.424s-17.706,17.5-17.706,17.5l1.93,1.743s10.772-7.806,15.776-14.4,4.343-9.388,4.343-13.709v-7.546Z" fill="#fff"/>
              <path id="Trazado_2387" data-name="Trazado 2387" d="M882.692-608.568l5.882,5.686s4.113-3.867,6.6-6.6,4.44-4.5,4.44-4.5L894-618.009Z" fill="#fff"/>
            </g>
            <g id="Grupo_923" data-name="Grupo 923">
              <path id="Trazado_2388" data-name="Trazado 2388" d="M781.209-551.631a21.25,21.25,0,0,1,.323,3.573,21.245,21.245,0,0,1-21.244,21.245,21.189,21.189,0,0,1-17.008-8.552A21.233,21.233,0,0,0,764.2-517.693a21.245,21.245,0,0,0,21.245-21.245A21.124,21.124,0,0,0,781.209-551.631Z" fill="#0f0f0f"/>
              <path id="Trazado_2389" data-name="Trazado 2389" d="M760.288-526.813a21.245,21.245,0,0,0,21.244-21.245,21.25,21.25,0,0,0-.323-3.573,21.192,21.192,0,0,0-17.008-8.552,21.245,21.245,0,0,0-21.245,21.245,21.244,21.244,0,0,0,.324,3.573A21.189,21.189,0,0,0,760.288-526.813Z" fill="#fff"/>
              <path id="Trazado_2390" data-name="Trazado 2390" d="M781.532-537.607c-.955-4.133-2.141-14.023-8.282-17.247s-10.576,9.809-12.282,15.916,0,16.912,0,16.912l-7.846-3.01a31.5,31.5,0,0,1,6.14-23.829c5.1-6.482,10.274-11.444,13.824-9.346s11.394,13.005,11.394,13.005Z" fill="#0f0f0f"/>
              <path id="Trazado_2391" data-name="Trazado 2391" d="M744.495-546.855a42.275,42.275,0,0,0,11.014-6.445,45.55,45.55,0,0,0,6.735-6.794,19.129,19.129,0,0,0-9.478,3.265C745.73-551.631,744.495-546.855,744.495-546.855Z" fill="#0f0f0f"/>
            </g>
          </g>
          <g id="Grupo_945" data-name="Grupo 945">
            <g id="Grupo_944" data-name="Grupo 944">
              <path id="Trazado_2392" data-name="Trazado 2392" d="M1513.343-612.935s.851,7.526,11.08,14.162c6.677-6.647,5.9-22,5.9-22Z" fill="#0f0f0f"/>
              <path id="Trazado_2393" data-name="Trazado 2393" d="M1517.411-640.283s-23.165,18.875-27.35,22.629c-5.858,5.255-5.475,11.225-2.346,17.18,2.837,5.4,8.027,16.176,12.373,24.744s10.813,26.366,10.813,26.366.383,1.37,7.095,1.816c3.717.248,7.582-4.733,7.582-4.733s-5.984-26.813-6.56-32.39c-1.022-9.894-9.482-17.621-9.482-17.621L1535.3-615.5S1522.727-638.9,1517.411-640.283Z" fill="#ffc5b3"/>
              <g id="Grupo_926" data-name="Grupo 926">
                <g id="Grupo_925" data-name="Grupo 925">
                  <path id="Trazado_2394" data-name="Trazado 2394" d="M1507.547-550.944a10.226,10.226,0,0,0-1.934-.086c-2.225,2.317-5.756,5.927-9.134,9.081-3.773,3.523-5.87,6.895-9.846,9.768-3.431,2.479,1.5,5.565,7.091,7.284,2.8.86,6.931.351,9.782-.443,4.048-1.128,4.731-3.385,9.878-8.217-.005-2.093-.017-4.218-.041-6.175A13.114,13.114,0,0,0,1507.547-550.944Z" fill="#4629b1"/>
                  <path id="Trazado_2395" data-name="Trazado 2395" d="M1523.974-539.873a17.354,17.354,0,0,0,5.477-6.047s-.356-10.708-3.946-11.063c-2.406-.238-.792,7.389-4.518,7.029-4.447-.429-10.012-4.426-13.1-3.477,0,0-.888.951-2.279,2.4a10.226,10.226,0,0,1,1.934.086,13.114,13.114,0,0,1,5.8,11.212c.024,1.957.036,4.082.041,6.175.1-.1.183-.181.292-.282C1516.258-536.23,1520.944-538.07,1523.974-539.873Z" fill="#4629b1"/>
                </g>
                <path id="Trazado_2396" data-name="Trazado 2396" d="M1509.538-543.765a28.693,28.693,0,0,1,0,9.546,22.028,22.028,0,0,1-2.657,7.183l4.532-4.587S1513.459-540.7,1509.538-543.765Z" fill="#e37cfd"/>
                <path id="Trazado_2397" data-name="Trazado 2397" d="M1513.384-548.156a23.459,23.459,0,0,1,2.578,12.085c-.458,6.8,3.037-1.675,3.037-1.675S1518.253-546.409,1513.384-548.156Z" fill="#e37cfd"/>
                <path id="Trazado_2398" data-name="Trazado 2398" d="M1509.547-553.532c-3.427,2.825-5.718,6.538-8.181,9.462s.327,4.742,3.275,1.825c3.306-3.271,8.7-10.2,8.7-10.2S1510.495-553.81,1509.547-553.532Z" fill="#e37cfd"/>
                <path id="Trazado_2399" data-name="Trazado 2399" d="M1485.528-530.617a6.947,6.947,0,0,1,5.652,1.968c2.274,2.454,4.811,3.387,9.559,2.961s7.667-5.2,12.748-8.782,9.872-5.059,11.877-6.513c2.613-1.894,3.775-8.411,3.775-8.411s1.322,3.4,1.172,4.718a9.114,9.114,0,0,1-3.145,5.313,14.878,14.878,0,0,1-6.313,3.612,31.3,31.3,0,0,0-7.412,4c-1.671,1.343-4.992,7.248-10.647,8.366s-11.981.36-15.206-2.689S1485.528-530.617,1485.528-530.617Z" fill="#0f0f0f"/>
              </g>
              <path id="Trazado_2400" data-name="Trazado 2400" d="M1489.132-607.221s3.759,3.675,4.781,6.061l1.023,2.387S1490.933-600.066,1489.132-607.221Z" fill="#ffa08d"/>
              <path id="Trazado_2401" data-name="Trazado 2401" d="M1540.1-598.773s2.46,12.869,14.052,15.855a45.246,45.246,0,0,0,21.788-.012S1568.318-616,1540.1-598.773Z" fill="#0f0f0f"/>
              <path id="Trazado_2402" data-name="Trazado 2402" d="M1544.747-602.382s3.449-10.52,18.8-8,13.305,6.43,13.305,6.43-8.183,18.118-9.547,23.6,7.544,13.028,7.885,24.357c.156,5.2-.169,34.752-.169,34.752h-13.853s-4.23-15.939-6.677-25.654c-3.552-14.1-8.216-19.668-12.107-30.556C1540.357-583.125,1544.747-598.529,1544.747-602.382Z" fill="#ffc5b3"/>
              <path id="Trazado_2403" data-name="Trazado 2403" d="M1546.7-576.9c2,1.129,6.089,2.875,6.771,5.922l.682,3.049s-4.9-3.463-6.648-5.115A3.558,3.558,0,0,1,1546.7-576.9Z" fill="#ffa08d"/>
              <g id="Grupo_928" data-name="Grupo 928">
                <g id="Grupo_927" data-name="Grupo 927">
                  <path id="Trazado_2404" data-name="Trazado 2404" d="M1555.5-518.363c-1.947,5.319-4.507,12.378-5.922,16.547-1.828,5.386-1.559,7.707-1.559,7.707s6.572,6.722,11.106,6.041,8.887-3.68,10.57-6.247a22.09,22.09,0,0,0,1.937-4.217c-.868-6.4-2.481-15.306-5.006-18.252C1564.361-519.423,1559.444-519.141,1555.5-518.363Z" fill="#4629b1"/>
                  <path id="Trazado_2405" data-name="Trazado 2405" d="M1575.147-523.978s-10.138-7.494-17.047-1.459c0,0-1.126,3.038-2.6,7.074,3.947-.778,8.864-1.06,11.126,1.579,2.525,2.946,4.138,11.854,5.006,18.252,1.578-4.313,2.938-9.89,3.518-11.808C1576.943-516.272,1575.147-523.978,1575.147-523.978Z" fill="#4629b1"/>
                </g>
                <path id="Trazado_2406" data-name="Trazado 2406" d="M1569.81-495.349c1.04-5.708-2.846-15.392-2.846-15.392a153.019,153.019,0,0,0-.1,17.693A5.458,5.458,0,0,1,1569.81-495.349Z" fill="#e37cfd"/>
                <path id="Trazado_2407" data-name="Trazado 2407" d="M1574.083-502.58a14.569,14.569,0,0,0-4.088-15.226,60.3,60.3,0,0,1,2.919,17.6A5.306,5.306,0,0,1,1574.083-502.58Z" fill="#e37cfd"/>
                <path id="Trazado_2408" data-name="Trazado 2408" d="M1561.273-527.268s-2.617,9.632-3.492,13.553,3.128,8.377,5.686.653,4.721-14.206,4.721-14.206S1564.717-529.829,1561.273-527.268Z" fill="#e37cfd"/>
                <path id="Trazado_2409" data-name="Trazado 2409" d="M1548.016-494.109s3.946-2.558,7.526-1.194,5.285,6.478,9.888,2.046,7.471-9.023,8.035-11.026,2.48-10.811,2.48-10.811a23.6,23.6,0,0,1,0,7.207c-.627,3.719-4.227,11.628-7.1,14.46s-7.672,7.671-17.389,3.75C1545.738-491.982,1548.016-494.109,1548.016-494.109Z" fill="#0f0f0f"/>
              </g>
              <path id="Trazado_2410" data-name="Trazado 2410" d="M1536.737-656.241l-34.389,26.423s12.5,5.013,16.651,12.792,5.424,18.253,5.424,18.253,21.821-14.162,32.833-23.368c8.169,2.063,32.92,7.295,38.086,1.364,6.68-7.668,3.41-26.082.682-35.754Z" fill="#0f0f0f"/>
              <path id="Trazado_2411" data-name="Trazado 2411" d="M1540.1-598.773s10.215-2.046,17.553,0,16.276,9.364,18.287,15.843c5.631-3.566,11.983-15.81,13.942-20.067,8.183-17.78,9.435-29.74,9.388-30.054s-48.71,5.058-50.12,5.4c-1.062.256-5.653,16.488-7.858,24.5C1540.572-600.518,1540.1-598.773,1540.1-598.773Z" fill="#0f0f0f"/>
              <path id="Trazado_2412" data-name="Trazado 2412" d="M1530.815-733.53s-9.611,15.167-8.968,19.671,15.3,11.154,15.3,11.154,9.654,3.86,16.968-2.574,4.9-28.251,4.9-28.251L1542.2-744.959Z" fill="#ffa08d"/>
              <path id="Trazado_2413" data-name="Trazado 2413" d="M1526.625-723.326s-1.133,11.832,4.11,14.426,16.146-10.009,21.225-14.426.733-13.926.733-13.926l-10.644-3.988s.1-4.83,2.613-5.687,25.41,9.023,32.181,16.255l6.772,7.231s4,42.776,8.923,52.2,6.707,20.89,6.707,20.89-33.651,24.954-51.9,15.547-20.824-17.177-20.824-17.177l7.069-8.644s-9.159-5.4-3.24-7.888,12.752-7.792,6.687-9.888-21.692-27.445-21.747-34.822,0-25.579,0-25.579l11.766,11.572Z" fill="#4629b1"/>
              <g id="Grupo_930" data-name="Grupo 930">
                <g id="Grupo_929" data-name="Grupo 929">
                  <path id="Trazado_2414" data-name="Trazado 2414" d="M1545.346-760.292c-4.92-5.585-21.971-10.007-29.375,3.46-1.63,2.965-1.639,8.742-1.854,12.035-.81,12.387,7.022,25.138,13.148,23.565,4.342-1.116,13.9-6.043,17.593-13.542C1549.019-743.215,1551.755-753.018,1545.346-760.292Z" fill="#ffc5b3"/>
                </g>
                <path id="Trazado_2415" data-name="Trazado 2415" d="M1516.844-758.183s1.859,6.088,7.9,7.374c6.42,1.368,15.038-2.656,15.038-2.656s3.066,4.792,2.611,7.088c3.812-1.1,5.637,4.374,5.637,4.374s4.406-5.159,2.516-13.907c-.87-4.024-2.566-9.818-8.369-12.049a61.852,61.852,0,0,0-6.825-1.817,15.867,15.867,0,0,1-7.43-4.319s-.753,1.591-.526,5.342a44.724,44.724,0,0,1-5.8-4.887s-1.25,3.978-.684,6.575a9.46,9.46,0,0,0-4.7-1.436S1515.892-760.787,1516.844-758.183Z" fill="#0f0f0f"/>
              </g>
              <path id="Trazado_2416" data-name="Trazado 2416" d="M1571.629-729.523c-4.84,1.72-11.772,10.252-13.6,16.865-1.436,5.183,6.032,20.83,10.226,23.368s19.735,0,19.735,0,16.45,16.72,26.109,18.278c14.093,2.273,28.186,20.663,28.186,20.663l14.548-3.114s-14.548-29.369-31.787-37.325c-12.374-5.711-19.585-25.291-33.677-25.291C1588.121-720.651,1583.6-733.776,1571.629-729.523Z" fill="#ffc5b3"/>
              <path id="Trazado_2417" data-name="Trazado 2417" d="M1639.553-653.463s.455,12.884,4.547,20.4,5.91,5.413,5.91,5.413v-10.173s8.183,8.183,10.91,12.729,12.275,2.728,10.911-5-16.627-26.435-16.627-26.435Z" fill="#ffc5b3"/>
              <path id="Trazado_2418" data-name="Trazado 2418" d="M1645.27-672.11s-4.58-1.515-9.013,3.258c-5.357,5.769-2.616,9.183-2.616,9.183l5.912,6.206s-.131-2.686,5.57-5.672c3.579-1.875,8.218-.677,8.218-.677Z" fill="#0f0f0f"/>
              <path id="Trazado_2419" data-name="Trazado 2419" d="M1536.737-656.241s2.346,7.165,14.28,11.256,32.392-5.364,32.392-5.364-15.483,2.478-26.153,0S1536.737-656.241,1536.737-656.241Z" fill="#e37cfd"/>
              <path id="Trazado_2420" data-name="Trazado 2420" d="M1536.737-667.829s18.878,8.183,31.581,7.16a31.9,31.9,0,0,0,19.864-8.865s-12.407,1.705-21.532,2.387S1536.737-667.829,1536.737-667.829Z" fill="#e37cfd"/>
              <g id="Grupo_943" data-name="Grupo 943">
                <path id="Trazado_2421" data-name="Trazado 2421" d="M1513.2-666.629l12.04-3.774c4.338-1.359,12.223-16,12.223-16l8.206,26.184s-14.914-8.326-19.406-6.919l-12.04,3.774Z" fill="#0f0f0f"/>
                <rect id="Rectángulo_81" data-name="Rectángulo 81" width="37.505" height="7.594" transform="translate(1483.024 -658.945) rotate(-17.402)" fill="#4629b1"/>
                <g id="Grupo_931" data-name="Grupo 931">
                  <path id="Trazado_2422" data-name="Trazado 2422" d="M1599.754-691.381c-4.227-13.486-21.8-19.984-39.258-14.513s-28.178,20.838-23.951,34.324,21.8,19.984,39.258,14.513S1603.981-677.894,1599.754-691.381Zm-25.179,30.409c-14.655,4.593-29.413-.863-32.962-12.186s5.454-24.227,20.11-28.821,29.414.863,32.963,12.186S1589.231-665.565,1574.575-660.972Z" fill="#0f0f0f"/>
                </g>
                <g id="Grupo_942" data-name="Grupo 942">
                  <g id="Grupo_932" data-name="Grupo 932">
                    <path id="Trazado_2423" data-name="Trazado 2423" d="M1550.693-658.127l-10.277-32.789a11.17,11.17,0,0,0-.613,1.084l9.811,31.3C1549.963-658.378,1550.33-658.255,1550.693-658.127Z" fill="#0f0f0f"/>
                    <path id="Trazado_2424" data-name="Trazado 2424" d="M1555.516-657.27l.408-.127-11.761-37.526c-.255.2-.51.41-.757.625L1555-657.309C1555.171-657.3,1555.343-657.275,1555.516-657.27Z" fill="#0f0f0f"/>
                  </g>
                  <g id="Grupo_933" data-name="Grupo 933">
                    <path id="Trazado_2425" data-name="Trazado 2425" d="M1561.735-657.1,1548.9-698.051c-.271.154-.539.311-.807.467l12.647,40.35C1561.061-657.2,1561.393-657.151,1561.735-657.1Z" fill="#0f0f0f"/>
                    <path id="Trazado_2426" data-name="Trazado 2426" d="M1566.81-656.866l-13.638-43.513q-.405.222-.814.442l13.553,43.243A3.983,3.983,0,0,0,1566.81-656.866Z" fill="#0f0f0f"/>
                  </g>
                  <g id="Grupo_934" data-name="Grupo 934">
                    <rect id="Rectángulo_82" data-name="Rectángulo 82" width="0.909" height="47.832" transform="translate(1557.083 -703.101) rotate(-17.404)" fill="#0f0f0f"/>
                    <rect id="Rectángulo_83" data-name="Rectángulo 83" width="0.909" height="47.832" transform="translate(1561.638 -704.528) rotate(-17.404)" fill="#0f0f0f"/>
                  </g>
                  <g id="Grupo_935" data-name="Grupo 935">
                    <rect id="Rectángulo_84" data-name="Rectángulo 84" width="0.909" height="47.832" transform="matrix(0.954, -0.299, 0.299, 0.954, 1566.846, -706.161)" fill="#0f0f0f"/>
                    <path id="Trazado_2427" data-name="Trazado 2427" d="M1585.814-663.339c.107-.088.215-.179.322-.268l-13.246-42.264a5.107,5.107,0,0,1-.965-.041l13.468,42.975C1585.533-663.072,1585.663-663.213,1585.814-663.339Z" fill="#0f0f0f"/>
                  </g>
                  <g id="Grupo_936" data-name="Grupo 936">
                    <path id="Trazado_2428" data-name="Trazado 2428" d="M1590.629-667.513l-11.943-38.106c-.348-.1-.7-.2-1.04-.279l12.248,39.079C1590.145-667.045,1590.383-667.283,1590.629-667.513Z" fill="#0f0f0f"/>
                    <path id="Trazado_2429" data-name="Trazado 2429" d="M1594.329-671.668l-10.022-31.977c-.29-.114-.558-.257-.861-.354-.068-.022-.155-.053-.227-.077l10.456,33.36A10.553,10.553,0,0,0,1594.329-671.668Z" fill="#0f0f0f"/>
                  </g>
                  <g id="Grupo_937" data-name="Grupo 937">
                    <rect id="Rectángulo_85" data-name="Rectángulo 85" width="0.909" height="61.177" transform="translate(1537.386 -668.886) rotate(-107.404)" fill="#0f0f0f"/>
                    <rect id="Rectángulo_86" data-name="Rectángulo 86" width="0.909" height="61.177" transform="translate(1535.961 -673.433) rotate(-107.419)" fill="#0f0f0f"/>
                  </g>
                  <g id="Grupo_938" data-name="Grupo 938">
                    <path id="Trazado_2430" data-name="Trazado 2430" d="M1534.966-678.96a6.04,6.04,0,0,1-.622.368l.222.71,58.377-18.3-.272-.868Z" fill="#0f0f0f"/>
                    <path id="Trazado_2431" data-name="Trazado 2431" d="M1589.247-700.975l-51.049,16c-.094.351-.2.7-.305,1.049l52.377-16.416C1589.929-700.556,1589.583-700.761,1589.247-700.975Z" fill="#0f0f0f"/>
                  </g>
                  <g id="Grupo_939" data-name="Grupo 939">
                    <path id="Trazado_2432" data-name="Trazado 2432" d="M1583.742-703.877l-43.789,13.724c-.192.367-.367.739-.519,1.116l45.624-14.3C1584.629-703.531,1584.2-703.72,1583.742-703.877Z" fill="#0f0f0f"/>
                    <path id="Trazado_2433" data-name="Trazado 2433" d="M1575.237-706.214l-26.712,8.372c-1.03.591-2.032,1.218-3,1.893l31.892-10A9.476,9.476,0,0,0,1575.237-706.214Z" fill="#0f0f0f"/>
                  </g>
                  <g id="Grupo_940" data-name="Grupo 940">
                    <path id="Trazado_2434" data-name="Trazado 2434" d="M1544.089-661.93c.3.226.613.443.921.664l51.546-16.155c.089-.329.172-.647.268-.986.006-.021.017-.037.023-.058Z" fill="#0f0f0f"/>
                    <path id="Trazado_2435" data-name="Trazado 2435" d="M1539.1-665.37c.349.2.692.413,1.03.63l57.058-17.883-.272-.868Z" fill="#0f0f0f"/>
                  </g>
                  <g id="Grupo_941" data-name="Grupo 941">
                    <path id="Trazado_2436" data-name="Trazado 2436" d="M1561.53-657.13c.661.1,1.35.22,2.033.316l23.113-7.244q.9-.747,1.787-1.513Z" fill="#0f0f0f"/>
                    <path id="Trazado_2437" data-name="Trazado 2437" d="M1549.806-658.458c.452.19.911.369,1.39.518l42.95-13.462a11.448,11.448,0,0,0,.746-1.186Z" fill="#0f0f0f"/>
                  </g>
                </g>
              </g>
              <path id="Trazado_2438" data-name="Trazado 2438" d="M1514.2-746.255c-3.208,1.6-8.2,5.655-12.8,12.322-11.287,5.248-21.063,14.81-25.955,20.756-4.209,5.114.223,19.776,2.595,37.3,1.551,11.453,6.7,13.686,9.212,16.416s12.885,5.8,15.4,6c7.735.636,12.233-8.629,8.045-13.9s-15.553-4.549-18.662-8.644c-4.557-6,1.021-23.457-2.9-30.005,7-4.629,18.021-9.152,26.135-11.986a75.747,75.747,0,0,0,.223-15.794C1514.059-737.385,1514.327-741.987,1514.2-746.255Z" fill="#ffa08d"/>
            </g>
            <path id="Trazado_2439" data-name="Trazado 2439" d="M1514.059-750.341s8.951,5.241,17.548,5.382c10.091.166,16.721-2.526,19.086-7.056.924-1.77-1.028-7.222-1.028-7.222s-12.185,9.75-21.492,7.222-11.329-6.168-11.329-6.168S1514-755.886,1514.059-750.341Z" fill="#4629b1"/>
          </g>
        </g>
      </g>
    </g>
  </g>
</svg>
