<svg id="Capa_1" data-name="Capa 1" xmlns="http://www.w3.org/2000/svg" xmlns:xlink="http://www.w3.org/1999/xlink" viewBox="0 0 209.93 209.93"><defs><style>.cls-1{fill:url(#Degradado_sin_nombre_39);}.cls-2{fill:#fff;}</style><linearGradient id="Degradado_sin_nombre_39" x1="61.01" y1="213.69" x2="147.96" y2="-1.4" gradientUnits="userSpaceOnUse"><stop offset="0" stop-color="#ff0056"/><stop offset="0.2" stop-color="#ff2a42"/><stop offset="0.59" stop-color="#ff761f"/><stop offset="0.86" stop-color="#ffa609"/><stop offset="1" stop-color="#ffb800"/></linearGradient></defs><title>IsotipoRedondeadoColor</title><rect class="cls-1" width="209.93" height="209.93" rx="55.39"/><path class="cls-2" d="M78.61,138.39c-12.06-6.34-19.18-23.79-15.75-38.11,2.4-10,8.33-18.11,14.52-26,3-3.9,6.23-7.69,9.3-11.57,7.5-9.52,14.27-19.4,14.81-32.87,9.71,7.67,15.75,16.57,16.67,28.46.68,9-2.26,17-6.9,24.47a168.53,168.53,0,0,1-13.12,17.74C89,111.72,79.46,122.78,78.61,138.39Z"/><path class="cls-2" d="M111.88,181.78c-9.6-7.72-15.71-16.59-16.52-28.5-.66-9.52,2.71-17.86,7.77-25.71,6.28-9.72,14.15-18.2,21-27.5,5.32-7.24,9.57-14.95,10.37-24.14.25-2.94,1.3-2.61,3.17-1,14.49,12.19,17.91,30.73,8.74,47.37-5.86,10.63-14.09,19.5-21.44,29C118.13,160.13,112.41,169.45,111.88,181.78Z"/></svg>