<svg id="Capa_1" data-name="Capa 1" xmlns="http://www.w3.org/2000/svg" xmlns:xlink="http://www.w3.org/1999/xlink" viewBox="0 0 447.15 447.15"><defs><style>.cls-1{fill:#00142a;}.cls-2{fill:url(#Parners_Gradient);}.cls-3{fill:url(#Degradado_sin_nombre_3);}</style><linearGradient id="Parners_Gradient" x1="149.01" y1="287.57" x2="216.24" y2="149.46" gradientUnits="userSpaceOnUse"><stop offset="0" stop-color="#d9005a"/><stop offset="0.03" stop-color="#dc0054"/><stop offset="0.22" stop-color="#e42a41"/><stop offset="0.6" stop-color="#f2761e"/><stop offset="0.87" stop-color="#fca608"/><stop offset="1" stop-color="#ffb800"/></linearGradient><linearGradient id="Degradado_sin_nombre_3" x1="219.46" y1="321.86" x2="286.69" y2="183.76" gradientUnits="userSpaceOnUse"><stop offset="0" stop-color="#d9005a"/><stop offset="1" stop-color="#ffb800"/></linearGradient></defs><title>IsotipoCuadraNegro</title><rect class="cls-1" width="447.15" height="447.15"/><path class="cls-2" d="M178.28,275.4a.71.71,0,0,1-1,.58c-18.86-10.63-29.86-38.22-24.42-60.93,3.87-16.15,13.42-29.19,23.4-42,4.91-6.28,10.06-12.39,15-18.65,11.84-15,22.54-30.61,23.81-51.62a.7.7,0,0,1,1.14-.51c15,12.16,24.36,26.3,25.8,45,1.11,14.46-3.64,27.36-11.13,39.46-6.26,10.11-13.63,19.4-21.14,28.59C195.13,233.23,180,250.8,178.28,275.4Z"/><path class="cls-3" d="M231.87,344.31a.7.7,0,0,1-1,.59C212,334.26,201,306.68,206.41,284c3.87-16.15,13.43-29.19,23.4-42,4.92-6.29,10.06-12.39,15-18.65,11.85-15,22.54-30.61,23.81-51.62a.71.71,0,0,1,1.14-.52c15,12.16,24.36,26.31,25.8,45,1.11,14.47-3.64,27.37-11.12,39.46-6.26,10.12-13.63,19.41-21.14,28.6C248.72,302.15,233.63,319.72,231.87,344.31Z"/></svg>