<svg xmlns="http://www.w3.org/2000/svg" xmlns:xlink="http://www.w3.org/1999/xlink" width="784.9" height="757.053" viewBox="0 0 784.9 757.053">
  <defs>
    <clipPath id="clip-path">
      <path id="Trazado_21" data-name="Trazado 21" d="M897.712,219.863c-32.169-82.263-166.194-78.95-214.876-64.539C598.218,180.39,519.644,92.261,456.587,116.89,356.346,156.047,427.6,240.9,365.6,281.285,303.589,321.6,247.783,325.934,246.525,417.568c-.636,45.947,49,96.681,92.488,156.349a241.634,241.634,0,0,1,37.633,75.18c.971,3.382,2.01,6.692,3.118,10,36.4,109.6,154.155,182.837,269.611,178.295,241.124-9.48,311.165-227.248,255.1-339.248-19.726-39.4,5.066-115.765,6.1-183.875C911.236,280.248,908.44,247.326,897.712,219.863Z" transform="translate(-246.519 -112.498)" fill="none"/>
    </clipPath>
    <linearGradient id="linear-gradient" y1="0.5" x2="1" y2="0.5" gradientUnits="objectBoundingBox">
      <stop offset="0" stop-color="#5b9af1"/>
      <stop offset="1" stop-color="#70b9f9" stop-opacity="0"/>
    </linearGradient>
    <linearGradient id="linear-gradient-2" y1="0.5" x2="1" y2="0.5" gradientUnits="objectBoundingBox">
      <stop offset="0" stop-color="#2284c6"/>
      <stop offset="1" stop-color="#2284c6" stop-opacity="0"/>
    </linearGradient>
    <linearGradient id="linear-gradient-3" x1="0.383" y1="-0.079" x2="0.52" y2="0.56" xlink:href="#linear-gradient-2"/>
    <linearGradient id="linear-gradient-4" x1="0.319" y1="-0.001" x2="0.561" y2="0.696" xlink:href="#linear-gradient-2"/>
    <linearGradient id="linear-gradient-5" x1="0.071" y1="1" x2="1.146" y2="0.092" gradientUnits="objectBoundingBox">
      <stop offset="0" stop-color="#192765"/>
      <stop offset="1" stop-color="#193d7c" stop-opacity="0"/>
    </linearGradient>
    <linearGradient id="linear-gradient-6" x1="-0.225" y1="0.624" x2="0.925" y2="0.432" xlink:href="#linear-gradient-2"/>
    <radialGradient id="radial-gradient" cx="1036.338" cy="278.395" r="182.569" gradientTransform="translate(-15.018 -1.916) scale(1.089 1.089)" gradientUnits="userSpaceOnUse">
      <stop offset="0.005" stop-color="#fbe54f"/>
      <stop offset="0.327" stop-color="#fae04b"/>
      <stop offset="0.687" stop-color="#f8d242"/>
      <stop offset="1" stop-color="#f6c136"/>
    </radialGradient>
    <linearGradient id="linear-gradient-7" x1="0.521" y1="0.836" x2="0.423" y2="-0.322" xlink:href="#linear-gradient"/>
    <radialGradient id="radial-gradient-2" cx="765.239" cy="145.549" r="117.904" gradientTransform="translate(-10.78 -2.655) scale(1.089 1.089)" xlink:href="#radial-gradient"/>
    <linearGradient id="linear-gradient-8" x1="0.742" y1="1.203" x2="0.149" y2="-0.517" xlink:href="#linear-gradient"/>
    <radialGradient id="radial-gradient-3" cx="4.211" cy="-9.049" r="40.128" gradientTransform="translate(0.004 -0.009)" xlink:href="#radial-gradient"/>
    <linearGradient id="linear-gradient-9" x1="0.099" y1="-0.356" x2="1.15" y2="1.889" xlink:href="#linear-gradient"/>
    <radialGradient id="radial-gradient-4" cx="263.872" cy="424.342" r="134.556" gradientTransform="translate(-4.096 -6.53) scale(1.089 1.089)" xlink:href="#radial-gradient"/>
  </defs>
  <g id="Grupo_643" data-name="Grupo 643" transform="translate(-217.515 -80.023)">
    <g id="Grupo_630" data-name="Grupo 630" transform="translate(245.801 80.023)">
      <path id="Trazado_21-2" data-name="Trazado 21" d="M897.451,219.427c-32.169-82.263-166.194-78.95-214.876-64.539-84.619,25.067-163.193-63.063-226.249-38.434-100.241,39.157-28.99,124.009-90.991,164.4C303.328,321.168,247.522,325.5,246.264,417.132c-.636,45.947,49,96.681,92.488,156.349a241.6,241.6,0,0,1,37.633,75.18c.971,3.381,2.01,6.692,3.118,10,36.4,109.6,154.155,182.837,269.612,178.3,241.124-9.48,311.165-227.248,255.1-339.248-19.726-39.4,5.066-115.765,6.1-183.875C910.975,279.812,908.179,246.89,897.451,219.427Z" transform="translate(-246.258 -80.531)" fill="#edf6ff"/>
      <path id="Trazado_51" data-name="Trazado 51" d="M377.75,188.121c-2.687-16.809-17.332-39.7,27.083-62.492,24.991-12.834,27.89-22.86,24.368-33.952C425.728,80.735,407.54,73.686,381,88.3s-70.266,44.8-66.342,101.585C317.63,232.892,386.8,244.749,377.75,188.121Z" transform="translate(-247.34 -80.023)" fill="#edf6ff"/>
      <path id="Trazado_52" data-name="Trazado 52" d="M946.723,616.106s15.425-46.26,6.5-73.048-29.879-55.454-24.279-71.143,90.9-18.018,84.406,79.32S938.032,657.675,946.723,616.106Z" transform="translate(-257.084 -86.116)" fill="#edf6ff"/>
    </g>
    <g id="Grupo_638" data-name="Grupo 638" transform="translate(246.058 111.983)">
      <g id="Grupo_637" data-name="Grupo 637" clip-path="url(#clip-path)">
        <g id="Grupo_636" data-name="Grupo 636" transform="translate(-78.768 37.934)">
          <g id="Grupo_631" data-name="Grupo 631">
            <path id="Trazado_1861" data-name="Trazado 1861" d="M767.369,926.525c-14.656,8.463-38.643,8.463-53.294,0l-536.6-308.637c-14.66-8.458-14.66-22.3,0-30.768L921.43,157.389c14.651-8.459,38.635-8.459,53.294,0l536.6,308.637c14.659,8.462,14.659,22.308,0,30.77Z" transform="translate(-166.48 -151.044)" fill="#76d6b0" opacity="0.5"/>
            <path id="Trazado_1862" data-name="Trazado 1862" d="M350.359,604.016c0-15.773-10.909-30.167-29.7-39.971L934.108,207.736l-11.78-6.8L223.046,606.811,711.03,885.519l11.649-6.726L315.414,646.547C337.262,636.857,350.359,621.248,350.359,604.016ZM304.826,573.19c18.948,7.127,30.7,18.894,30.7,30.829,0,13.277-14.441,26.181-36.8,32.9l-52.142-30.1Z" transform="translate(-167.379 -151.836)" fill="#fff" opacity="0.5"/>
          </g>
          <g id="Grupo_632" data-name="Grupo 632" transform="translate(392.214 130.117)">
            <path id="Trazado_1863" data-name="Trazado 1863" d="M667.661,300.285a26.58,26.58,0,0,0-9.3,1.447c-4.494,12.68.468,28.3.468,28.3l13.5-3.453Z" transform="translate(-566.475 -283.531)" fill="#f0c6b4"/>
            <path id="Trazado_1864" data-name="Trazado 1864" d="M710.569,331.353s.655-9.435-2.022-14.884c-3.1-7.463-33.68-15.675-36.653-16.529s-8.16.552-8.772,9.012c-.692,9.513,6.074,11.332,6.074,11.332Z" transform="translate(-566.58 -283.522)" fill="#c9c9c9"/>
            <path id="Trazado_1865" data-name="Trazado 1865" d="M584.784,507.418c-2.74,10.9,1.415,28.561-2.74,30.109-4.493,1.214-8.826.526-14.706-9.867C563.49,519.888,565.6,508.8,565.6,508.8s-.862-15.747.866-17.655,12.726-1.662,12.726-1.662S584.038,508.23,584.784,507.418Z" transform="translate(-565.023 -286.535)" fill="#f5f5f5"/>
            <path id="Trazado_1866" data-name="Trazado 1866" d="M585.121,485.745c-2.662,2.744-7.221,4.242-7.221,4.242s-2.94,3.7,0,10.1,7.067,7.267,7.067,7.267,3.836-4.558,8.395-5.738C595.258,500.95,587.782,482.994,585.121,485.745Z" transform="translate(-565.207 -286.471)" fill="#1c4b94"/>
            <path id="Trazado_1867" data-name="Trazado 1867" d="M697.928,534.566s12.951,15.119,13.643,22.735-3.6,10.027-6.817,10.376-8.235-4.151-11.412-8.471c-2.417-3.288-7.554-12.465-7.554-12.465s-10.731-7.444-10.731-15.232c0-4.5,8.412-8.82,8.412-8.82Z" transform="translate(-566.77 -287.063)" fill="#f5f5f5"/>
            <path id="Trazado_1868" data-name="Trazado 1868" d="M688.463,515.652a10.567,10.567,0,0,1-4.859,6.922s-.919,7.287,4.631,10.619c5.954,3.575,9.827,1.259,9.827,1.259s2.973-6.064,6.663-9.023C695.044,524.883,688.111,514.037,688.463,515.652Z" transform="translate(-566.905 -286.948)" fill="#1c4b94"/>
            <path id="Trazado_1869" data-name="Trazado 1869" d="M668.821,435.833c3.7.82,33.814,43.766,34.052,49.073-5.078,5.766-15.228,22.844-15.228,22.844s-3.006,10.152,4.851,15.229c7.84,5.076,16.142,0,16.142,0S729.643,498.127,730.1,489.6c.46-8.554-13.513-55.944-32.724-86.637C685.316,405.05,665.121,435.014,668.821,435.833Z" transform="translate(-566.664 -285.161)" fill="#2565c4"/>
            <path id="Trazado_1870" data-name="Trazado 1870" d="M642.048,398.241c-9.168,4.179-27.17,66.241-29.706,69.013s-13.378,2.995-23.071,10.156c-5.133,3.786-6.922,11.759-2.767,17.306s9.715,9.988,14.765,7.146c13.151-7.377,24.577-8.968,28.379-14.08,3.8-5.1,25.844-26.062,35.763-50.754,16.843-9.69,30.63-34.15,30.63-34.15S647.53,395.921,642.048,398.241Z" transform="translate(-565.328 -285.079)" fill="#2565c4"/>
            <path id="Trazado_1871" data-name="Trazado 1871" d="M646.38,389.956l-3.4,8.161s2.44,8.326,16.959,10.984c25.458,4.665,37.033-6.347,37.033-6.347l-1.813-7.608Z" transform="translate(-566.261 -284.955)" fill="#1c4b94"/>
            <path id="Trazado_1872" data-name="Trazado 1872" d="M672.656,314.475c-.218,2.133-2.641,3.783-2.641,3.783l-3.028,7.448,3.028,10.034,6.658,9.165,10.532,1.473,8.338-7.7,3.375-5.887.984-6.088-5.228-5.59L684.638,315.6S672.618,313.284,672.656,314.475Z" transform="translate(-566.642 -283.751)" fill="#c2a091"/>
            <path id="Trazado_1873" data-name="Trazado 1873" d="M688.662,341.393C677.684,344.627,671,331.017,671,331.017a31.467,31.467,0,0,1-1.325-12.692c-2.973,2.289-24.211,18.666-24.211,18.666l.959,51.828s-.959,5.477,10.393,10.435c12.459,5.445,33.319.581,38.388-5.244,4.4-19.38,19.869-32.2,17.333-53.529-2.152-18.082-15.321-22.155-15.321-22.155S699.637,338.167,688.662,341.393Z" transform="translate(-566.3 -283.817)" fill="#fff"/>
            <path id="Trazado_1874" data-name="Trazado 1874" d="M704.614,315.118a48.245,48.245,0,0,1-3.056,6.656,4.956,4.956,0,0,1-.89,3.661c-1.28,1.646-10.116,12.469-10.592,12.795-1.024.71-5.654,1.172-8.134-.326-6-4.21-8.761-23.739-8.761-23.739s-2.281-.109-2.489-1.819-.631-5.276-.631-5.276l.773-6.315,7.1-5.891,10.818-2.846,7.861-1.4,6.76,4.939,4.671,7.013v5.7S704.559,313.275,704.614,315.118Z" transform="translate(-566.691 -283.377)" fill="#f0c6b4"/>
            <path id="Trazado_1875" data-name="Trazado 1875" d="M704.6,315s2.078-6.343.231-7.965-3.291,2.728-6.692,3.116c-2.254.263-6.13-.372-7.211-1.093-3.612-2.415-3.588-7.075-6.52-6.636-3.807.58-2.777,3.688-4.326,5.366a7.434,7.434,0,0,1-4.558,2.254s-.611-5.418-3.344-5.194-1.5,7.381-1.5,7.381-3.052-10.728-.107-17.071c1.034-2.226,15.455-17.193,25.871-9.921,14.969-.69,16.086,17.329,14.969,20.415C709.564,310.732,704.6,315,704.6,315Z" transform="translate(-566.679 -283.26)" fill="#f56600"/>
            <path id="Trazado_1876" data-name="Trazado 1876" d="M697.13,287.292c2.5,7.177-1.127,18.944-1.127,18.944S697.035,294.034,697.13,287.292Z" transform="translate(-567.103 -283.324)" fill="#ba4d00"/>
            <path id="Trazado_1877" data-name="Trazado 1877" d="M673,398.249A11.068,11.068,0,0,0,673.7,403c10.15,0,27.225,8.3,41.127,8.133,2.579-.038,10.73-1.736,13.669-1.034,2.941.686,8.487,4.151,7.958,5.539-.514,1.38-5.531,0-5.531,0s14.018,6.566,14.018,8.651c0,2.07-6.576,5.7-10.382,6.578a17.84,17.84,0,0,1-9,0c-3.286-.706-10.73-6.919-12.8-8.134-6.576-1.737-45.161,1.214-50.7-2.427-3.111-1.729-6.005-18.689-6.005-18.689Z" transform="translate(-566.469 -285.086)" fill="#f0c6b4"/>
            <path id="Trazado_1878" data-name="Trazado 1878" d="M647.341,336.854c-13.086,1.325-8.419,26.412-8.419,26.412l14.19,41.879s16.1,3.629,20.3-9.7c.121-3.625-10.14-36.681-10.14-36.681S661.422,338.179,647.341,336.854Z" transform="translate(-566.184 -284.112)" fill="#c9c9c9"/>
            <path id="Trazado_1879" data-name="Trazado 1879" d="M584.407,490.033l-.2-1.921c6.13-8.013,14.658-9.482,21.9-11.085,4.934-1.086,9.187-2.03,11.488-4.5,2.258-2.43,5.157-11.645,8.508-22.331,5.339-16.965,11.98-38.074,20.321-46.27l.974.992c-8.1,7.949-14.682,28.881-19.972,45.686-3.54,11.293-6.349,20.2-8.816,22.872-2.593,2.779-7.044,3.767-12.2,4.9C599.02,480.013,590.232,482.423,584.407,490.033Z" transform="translate(-565.328 -285.177)" fill="#fff"/>
            <path id="Trazado_1880" data-name="Trazado 1880" d="M652.67,421.965a3.232,3.232,0,1,1-3.232-3.227A3.23,3.23,0,0,1,652.67,421.965Z" transform="translate(-566.312 -285.412)" fill="#fff"/>
          </g>
          <g id="Grupo_633" data-name="Grupo 633" transform="translate(524.86 197.006)">
            <path id="Trazado_1881" data-name="Trazado 1881" d="M836.365,385.145c-1.033,5.636,4.239,10,4.239,10l.476,7.126-7.128,11.516s-17.59,7.582-17.478,6.993c.115-.573-8.622-6.758-8.507-6.993.114-.251,3.795-21.057,3.795-21.057l11.381-8.506S837.027,383.123,836.365,385.145Z" transform="translate(-701.527 -351.748)" fill="#70b9f9"/>
            <path id="Trazado_1882" data-name="Trazado 1882" d="M836.365,385.145c-1.033,5.636,4.239,10,4.239,10l.476,7.126-7.128,11.516s-17.59,7.582-17.478,6.993c.115-.573-8.622-6.758-8.507-6.993.114-.251,3.795-21.057,3.795-21.057l11.381-8.506S837.027,383.123,836.365,385.145Z" transform="translate(-701.527 -351.748)" fill="url(#linear-gradient)"/>
            <path id="Trazado_1883" data-name="Trazado 1883" d="M776.444,425.051a41.061,41.061,0,0,1-7.276,9.063c-11.961,3.771-42.55,24.241-42.55,24.241s-12.619-1.105-15.05,3.9c-2.757,5.691,1.375,13.57,6.89,12.935a19.124,19.124,0,0,0,7.073-2.414c4.827,3.794,6.383-.863,9.142-5.37,21.844-10.67,32.654-7.448,42.773-18.549,1.7-1.749,5.851-5.817,10.158-10.019Z" transform="translate(-699.983 -352.401)" fill="#70b9f9"/>
            <path id="Trazado_1884" data-name="Trazado 1884" d="M790.769,440.613c2.264.941,10.733-14.833,10.733-14.833l2.532-38.767s-8.555,3.787-12.651,10.709c-2.946,4.986-7.958,17.318-13.878,26.725C777.505,424.447,777.505,435.093,790.769,440.613Z" transform="translate(-701.044 -351.797)" fill="#0053fc"/>
            <path id="Trazado_1885" data-name="Trazado 1885" d="M790.769,440.613c2.264.941,10.733-14.833,10.733-14.833l2.532-38.767s-8.555,3.787-12.651,10.709c-2.946,4.986-7.958,17.318-13.878,26.725C777.505,424.447,777.505,435.093,790.769,440.613Z" transform="translate(-701.044 -351.797)" fill="url(#linear-gradient-2)"/>
            <path id="Trazado_1886" data-name="Trazado 1886" d="M859.338,593.257c4.837,2.744,11.976,2.524,11.917,8.161-.087,8.232-11.842,12.935-13.224,16.675-6.209,14.425-20.64,15.06-22.308,14.716-3.853-1.49-3.337-8.012-2.6-10.921.813-3.222,11.637-12.873,11.8-14.034Z" transform="translate(-701.919 -355.072)" fill="#292929"/>
            <path id="Trazado_1887" data-name="Trazado 1887" d="M847.813,582.232a69.25,69.25,0,0,0,6.594,7.228,25.583,25.583,0,0,0,4.987,3.622s-4.873,17.256-14.417,14.6a47.289,47.289,0,0,0-8.8-11.2Z" transform="translate(-701.975 -354.897)" fill="#fff"/>
            <path id="Trazado_1888" data-name="Trazado 1888" d="M835.73,595.912c-5.107-6.39-25.367-16.158-26.38-19.873-1.325-4.83-1.2-26.13-1.2-26.13l20.348-3.277v18.73s5.9.8,9.488,3.872c1.342,1.145,8.9,11.838,9.388,12.433C852.123,588.15,840.844,602.309,835.73,595.912Z" transform="translate(-701.53 -354.331)" fill="#70b9f9"/>
            <path id="Trazado_1889" data-name="Trazado 1889" d="M790.321,482.838s-3.512,23.48,8.949,67.751c9.489,10.521,28.992-1.083,30.944-3.56-.976-8.161-4.6-56.947-4.6-56.947Z" transform="translate(-701.24 -353.318)" fill="#0035cc"/>
            <path id="Trazado_1890" data-name="Trazado 1890" d="M740,656.425c-1.186,5.527-4.008,12.763-8.256,15.53-4.033,2.619-12.768,7.989-19.664,7.761s-14.679-9.391-11.557-12.763c7.764-8.4,21.788-12.127,23.858-16.213Z" transform="translate(-699.81 -355.985)" fill="#292929"/>
            <path id="Trazado_1891" data-name="Trazado 1891" d="M749.15,641.275c-3.394,5.2-7.822,13.163-8.761,14.88-7.339,6.044-17.57,2.83-15.619-5.684,2.091-1.34,5.753-8.357,9.695-16.784Z" transform="translate(-700.203 -355.714)" fill="#fff"/>
            <path id="Trazado_1892" data-name="Trazado 1892" d="M734.624,632.4c.653-1.4,14.147-32.559,16.065-34.032.537-4.736.53-10.27,4.307-16.378,1.983-3.206,9.215-15.311,19.31-29.524l29.046,11.343c-8.079,7.479-24.013,22.226-29.9,27.2-.407,2.383-.461,10.8-3.218,18.855-1.419,4.123-12.442,17.074-20.928,30.128C749.309,639.985,733.672,643.2,734.624,632.4Z" transform="translate(-700.362 -354.424)" fill="#70b9f9"/>
            <path id="Trazado_1893" data-name="Trazado 1893" d="M774.947,551.357c.549-.761,20.509-27.283,32.5-38.509,2.758,2.07-15.869-8.968-17.359-30.011l57.389,12.935c4.351,23.519-14.275,39.151-14.275,39.151s-14.7,22.531-32.828,39.332C800.37,574.257,797.955,564.073,774.947,551.357Z" transform="translate(-701.003 -353.318)" fill="#0053fc"/>
            <path id="Trazado_1894" data-name="Trazado 1894" d="M774.947,551.357c.549-.761,20.509-27.283,32.5-38.509,2.758,2.07-15.869-8.968-17.359-30.011l57.389,12.935c4.351,23.519-14.275,39.151-14.275,39.151s-14.7,22.531-32.828,39.332C800.37,574.257,797.955,564.073,774.947,551.357Z" transform="translate(-701.003 -353.318)" fill="url(#linear-gradient-3)"/>
            <path id="Trazado_1895" data-name="Trazado 1895" d="M790.328,481.4c1.47-4.367,1.031-16.44,1.031-16.44s-.692-27.815-.692-45.54c0-13.108,17.247-26.443,17.247-26.443l5.056-.776s-1.145,19.858,4.259,22.4,23.093-19.316,23.093-19.316,17.077,17.843,23.1,18.791c0,4.665-.233,21.63-1.462,26.052-3.765,10.623-5.888,25.753-7.591,33.342s-.229,19.435-.229,20.869C831.143,509.112,790.328,481.4,790.328,481.4Z" transform="translate(-701.247 -351.879)" fill="#0053fc"/>
            <path id="Trazado_1896" data-name="Trazado 1896" d="M790.328,481.4c1.47-4.367,1.031-16.44,1.031-16.44s-.692-27.815-.692-45.54c0-13.108,17.247-26.443,17.247-26.443l5.056-.776s-1.145,19.858,4.259,22.4,23.093-19.316,23.093-19.316,17.077,17.843,23.1,18.791c0,4.665-.233,21.63-1.462,26.052-3.765,10.623-5.888,25.753-7.591,33.342s-.229,19.435-.229,20.869C831.143,509.112,790.328,481.4,790.328,481.4Z" transform="translate(-701.247 -351.879)" fill="url(#linear-gradient-4)"/>
            <path id="Trazado_1897" data-name="Trazado 1897" d="M799.083,377.482a11.283,11.283,0,0,0,2.185,9.2c-.462,1.026,3.965,17.647,5.749,19.317s7.189,2.485,9.029,2.132c1.842-.337,11.379-6.107,14.887-12.833a23.671,23.671,0,0,0,1.492-5.174,7.419,7.419,0,0,0,3.795-5.284c1.15-3.066,2.072-5.511,2.072-5.511l-2.3-6.562-13.919-7.817H810.694l-8.047,5.167Z" transform="translate(-701.383 -351.446)" fill="#70b9f9"/>
            <path id="Trazado_1898" data-name="Trazado 1898" d="M829.162,384.853c-1.724-2.587-8.8-.18-12.763-7.77-5.691,2.423-18.517,3.113-20.244-1.2s12.484-33.64,31.453-21.9c21.131,5.252,9.832,31.79,9.429,32.425-2.93.753-.113-9.142-3.561-7.761C831.4,379.333,829.852,382.956,829.162,384.853Z" transform="translate(-701.338 -351.228)" fill="#193d7c"/>
            <path id="Trazado_1899" data-name="Trazado 1899" d="M829.162,384.853c-1.724-2.587-8.8-.18-12.763-7.77-5.691,2.423-18.517,3.113-20.244-1.2s12.484-33.64,31.453-21.9c21.131,5.252,9.832,31.79,9.429,32.425-2.93.753-.113-9.142-3.561-7.761C831.4,379.333,829.852,382.956,829.162,384.853Z" transform="translate(-701.338 -351.228)" fill="url(#linear-gradient-5)"/>
            <path id="Trazado_1900" data-name="Trazado 1900" d="M887.384,434.26a40.167,40.167,0,0,0,5.424,3.544c13.34,5.056,22.651,21.387,34.034,31.037,2.789,2.368,11.938,10.866,13,15.3,1.725,7.244-2.991,14.951-4.485,16.558s-8.512-9.251-8.741-8.161c-.658,2.649-8.045-3.1-9.427-7.589-.772-2.5,0-7.126-.229-9.431-12.077-11.846-24.262-14.261-30.816-23.261-.81-.4-3.379-1.639-6.7-3.246Z" transform="translate(-702.663 -352.547)" fill="#70b9f9"/>
            <path id="Trazado_1901" data-name="Trazado 1901" d="M878.928,448.676c-7.1-1.089-23.2-11.2-23.2-11.2s-13.913-5.864-6.442-17.71,18.551-3.928,21.045-1.724c4.49,6.232,13.4,11.618,18.394,15.3C888.728,433.333,891.49,445.407,878.928,448.676Z" transform="translate(-702.149 -352.216)" fill="#0053fc"/>
            <path id="Trazado_1902" data-name="Trazado 1902" d="M878.928,448.676c-7.1-1.089-23.2-11.2-23.2-11.2s-13.913-5.864-6.442-17.71,18.551-3.928,21.045-1.724c4.49,6.232,13.4,11.618,18.394,15.3C888.728,433.333,891.49,445.407,878.928,448.676Z" transform="translate(-702.149 -352.216)" fill="url(#linear-gradient-6)"/>
          </g>
          <g id="Grupo_634" data-name="Grupo 634" transform="translate(231.156 234.226)">
            <path id="Trazado_1903" data-name="Trazado 1903" d="M534.105,410.911a3.815,3.815,0,0,1-3.546,2.948c-1.648.313-5.632,1.05-5.632,1.05l-3.684,5.754,3.107,9.322,15.386,14.143,13.016-5.41,3.163-15.059-15.352-10.13Z" transform="translate(-403.27 -389.397)" fill="#c9a697"/>
            <path id="Trazado_1904" data-name="Trazado 1904" d="M431.72,641.977c-2.062,2.188,4.257,13.492,5.351,20.376s-4.551,9.407-8.917,7.847c-6.17-2.2-13.79-14.457-18.738-21.434-6.012-8.482-8.678-11.955-7.925-15.608.631-3.073,7.557-4.783,17.851-7.033Z" transform="translate(-401.367 -392.814)" fill="#fff"/>
            <path id="Trazado_1905" data-name="Trazado 1905" d="M435.094,641.793s-10.96,3.113-15.487-3.967,2.206-12.433,2.206-12.433Z" transform="translate(-401.631 -392.803)" fill="#2565c4"/>
            <path id="Trazado_1906" data-name="Trazado 1906" d="M550.971,655.831s29.2,6.2,27.33,17.812c-2.516,8.85-24.8.235-31.815-.338-23.806,1.035-21.732-5.864-21.732-5.864a69.878,69.878,0,0,1,3.924-16.62Z" transform="translate(-403.325 -393.207)" fill="#fff"/>
            <path id="Trazado_1907" data-name="Trazado 1907" d="M550.625,653.174s-3.8,9.721-12.1,8.451c-9.645-1.473-8.341-9.744-8.341-9.744Z" transform="translate(-403.411 -393.223)" fill="#2565c4"/>
            <path id="Trazado_1908" data-name="Trazado 1908" d="M528.551,648.75c-3.584-16.558,11.48-52.424,11.48-52.424l-23.337-36.054s16.668-50.244,24.49-37.945,28.4,64.161,28.517,74c.061,5.19-5.608,19.584-9.891,32.935-3.82,11.925-6.121,23.112-8.964,24.5C541.873,657.381,530.922,654.951,528.551,648.75Z" transform="translate(-403.198 -391.135)" fill="#bfbfbf"/>
            <path id="Trazado_1909" data-name="Trazado 1909" d="M419.632,624.339c3.876-11.391,65.169-16.957,65.169-16.957l3.1-93.786s51.515,4.367,51.742,8.623c-.919,23.347-13.37,29.086-13.01,35.184-.557,18.973-12.516,67.954-23.325,74.854s-63.758,12.348-71.3,7.933C419.632,632.955,419.632,624.339,419.632,624.339Z" transform="translate(-401.657 -391.027)" fill="#fff"/>
            <path id="Trazado_1910" data-name="Trazado 1910" d="M553.922,444.083s22,22.186,30.511,26.325c4.622,2.251,13.568,3.787,16.213,5s7.068,8.105,5.518,12.708-10.691,5.746-12.992,4.711-4.255-7.753-4.255-7.753a52.625,52.625,0,0,1-7.934-3.685c-2.643-1.725-5.288-5.864-5.288-5.864s-27.418-11.32-28.856-10.748S553.922,444.083,553.922,444.083Z" transform="translate(-403.674 -389.924)" fill="#f0c6b4"/>
            <path id="Trazado_1911" data-name="Trazado 1911" d="M523.884,420.549c-.524,3.121,10.937,16.573,15.382,18.643s13.937-3.45,13.937-3.45.17,34.15-6.9,51.052c-1.726,2.579-6.04,19.662-5.521,33.8-3.843,4.14-12.471,14.637-31.739,10.638-23-4.774-14.706-20.171-15.865-24.1-5.864-32.761,6.725-57.425,6.725-57.425s3.11-25.957,18.111-35.843c7.809-5.143,12.073,0,12.073,0S524.4,417.444,523.884,420.549Z" transform="translate(-402.8 -389.407)" fill="#d63a3a"/>
            <path id="Trazado_1912" data-name="Trazado 1912" d="M498.29,472.907c0,11.618,6.755,21.041,15.091,21.041s15.093-9.423,15.093-21.041-6.762-21.049-15.093-21.049S498.29,461.281,498.29,472.907Z" transform="translate(-402.906 -390.047)" fill="#c9a697"/>
            <path id="Trazado_1913" data-name="Trazado 1913" d="M578.647,418.274a28.09,28.09,0,0,1-7.6,10.489s-.976,6.9-2.242,7.416-5.178.094-5.178.094-7.812,7.667-10.8,7.314c-7.017-2.406-9.774-9.078-10.4-10.858s.86-7.244.86-7.244-4.028-5.236-3.1-8.278S556.922,406.5,556.922,406.5l20.677,3.293S579.294,415.5,578.647,418.274Z" transform="translate(-403.569 -389.327)" fill="#f0c6b4"/>
            <path id="Trazado_1914" data-name="Trazado 1914" d="M579.856,416.412c-.688,3.277-4.868.824-10.921,2.415-4.462,1.168-9.235,5.221-12.821,4.485-2.587-.691-2.472-5.52-6.207-5.692s-10.063,5.464-12.365,4.43c-9.082-4.829.98-21.849.98-21.849s4.084-12.99,23.168-10.929C580.777,391.349,579.974,413.825,579.856,416.412Z" transform="translate(-403.469 -389.05)" fill="#603913"/>
            <path id="Trazado_1915" data-name="Trazado 1915" d="M520.038,454.426c17.548,12.206-1.38,29.673-1.38,29.673s-10.752,22.476-22.537,36.329c-.637,21.34-4.772,36.682-3.219,55.646.633,1.247,4.368,6.562,5.289,10.356s1.61,13.453-.115,16.73a7.423,7.423,0,0,1-7.242,4.43c-3.279.055-10.868-2.532-12.423-8.741s2-20.7,1.038-24.836c-10.062-35.7-2.932-56.407-2.932-56.407l23.518-56.963S507.215,445.519,520.038,454.426Z" transform="translate(-402.521 -390.043)" fill="#f0c6b4"/>
          </g>
          <g id="Grupo_635" data-name="Grupo 635" transform="translate(477.055 482.394)">
            <path id="Trazado_1916" data-name="Trazado 1916" d="M702.984,667.169A25.875,25.875,0,1,1,677.109,641.3,25.866,25.866,0,0,1,702.984,667.169Z" transform="translate(-651.233 -641.223)" fill="#fff"/>
            <path id="Trazado_1917" data-name="Trazado 1917" d="M683.014,654.682l5.507-5.809,8.326,5.574.235,9.333-8.837.235Z" transform="translate(-651.738 -641.343)" fill="#39414a"/>
            <path id="Trazado_1918" data-name="Trazado 1918" d="M671.214,654.682l-5.5-5.809-8.328,5.574-.235,9.333,8.837.235Z" transform="translate(-651.327 -641.343)" fill="#39414a"/>
            <path id="Trazado_1919" data-name="Trazado 1919" d="M682.865,674.512H671.394l-2.915,8.8,8.618,5.21,8.682-5.21Z" transform="translate(-651.507 -641.751)" fill="#39414a"/>
            <path id="Trazado_1920" data-name="Trazado 1920" d="M695.273,682.251l5.073-9.431,2.971-.757a23.691,23.691,0,0,1-8.044,14.712Z" transform="translate(-651.932 -641.712)" fill="#39414a"/>
            <path id="Trazado_1921" data-name="Trazado 1921" d="M659.646,682.251l-5.062-9.431-2.975-.757a23.775,23.775,0,0,0,8.037,14.712Z" transform="translate(-651.239 -641.712)" fill="#39414a"/>
            <path id="Trazado_1922" data-name="Trazado 1922" d="M670.837,642.131l1.427.784h10.9l1.206-.686s-1.574-1.008-6.766-1.008S670.837,642.131,670.837,642.131Z" transform="translate(-651.544 -641.222)" fill="#39414a"/>
          </g>
        </g>
      </g>
    </g>
    <g id="Grupo_639" data-name="Grupo 639" transform="translate(856.308 254.018)" opacity="0.8">
      <path id="Trazado_1923" data-name="Trazado 1923" d="M887.4,280.015c.886-21.031,16.281-29.274,35.177-18.38,18.9,10.921,34.329,36.961,35.239,59.032,11.742,8.895,20.781,25.816,20.781,39.991v.573c0,15.647-11.006,22-24.573,14.169L891.156,339.11c-13.557-7.824-24.54-26.87-24.54-42.518v-.581C866.616,281.841,875.63,275.326,887.4,280.015Z" transform="translate(-866.616 -256.826)" fill="url(#radial-gradient)"/>
    </g>
    <g id="Grupo_640" data-name="Grupo 640" transform="translate(421.381 153.242)">
      <path id="Trazado_1924" data-name="Trazado 1924" d="M444.31,176.334c.838-19.877,15.385-27.658,33.242-17.369,17.861,10.318,32.444,34.925,33.3,55.783,11.095,8.412,19.64,24.4,19.64,37.8v.537c0,14.789-10.4,20.791-23.223,13.391L447.859,232.18c-12.807-7.4-23.188-25.392-23.188-40.178v-.545C424.671,178.064,433.19,171.9,444.31,176.334Z" transform="translate(-424.671 -154.423)" fill="url(#linear-gradient-7)"/>
    </g>
    <g id="Grupo_641" data-name="Grupo 641" transform="translate(636.327 115.086)" opacity="0.8">
      <path id="Trazado_1925" data-name="Trazado 1925" d="M656.093,130.166c.556-13.167,10.19-18.321,22.018-11.5s21.488,23.131,22.055,36.944c7.347,5.57,13.007,16.162,13.007,25.032v.353c0,9.8-6.891,13.774-15.379,8.874l-39.35-22.712c-8.486-4.9-15.359-16.82-15.359-26.615v-.361C643.085,131.306,648.726,127.226,656.093,130.166Z" transform="translate(-643.085 -115.652)" fill="url(#radial-gradient-2)"/>
    </g>
    <g id="Grupo_27" data-name="Grupo 27" transform="translate(271.849 172.002)">
      <ellipse id="Elipse_3" data-name="Elipse 3" cx="12.121" cy="12.11" rx="12.121" ry="12.11" transform="translate(538.658)" fill="url(#linear-gradient-8)"/>
      <ellipse id="Elipse_4" data-name="Elipse 4" cx="12.121" cy="12.11" rx="12.121" ry="12.11" transform="translate(388.309 629.958)" opacity="0.7" fill="url(#radial-gradient-3)"/>
      <path id="Trazado_61" data-name="Trazado 61" d="M298.793,254.077a25.089,25.089,0,1,0,25.117-25.061h-.031a25.073,25.073,0,0,0-25.086,25.059Z" transform="translate(-273.14 -174.368)" fill="#76d6b0" opacity="0.5"/>
      <path id="Trazado_63" data-name="Trazado 63" d="M272.726,647.91a41.02,41.02,0,1,0,41.059-40.981h-.035A41,41,0,0,0,272.726,647.9Z" transform="translate(-272.726 -180.369)" fill="url(#linear-gradient-9)"/>
    </g>
    <g id="Grupo_642" data-name="Grupo 642" transform="translate(217.515 346.499)" opacity="0.8">
      <path id="Trazado_1926" data-name="Trazado 1926" d="M232.36,367.363c.635-15.027,11.628-20.909,25.128-13.129,13.5,7.8,24.523,26.4,25.17,42.162,8.385,6.357,14.844,18.444,14.844,28.568v.4c0,11.184-7.864,15.719-17.551,10.128l-44.907-25.92c-9.685-5.6-17.529-19.2-17.529-30.374v-.412C217.515,368.665,223.952,364.008,232.36,367.363Z" transform="translate(-217.515 -350.799)" fill="url(#radial-gradient-4)"/>
    </g>
  </g>
</svg>
