<svg id="Capa_1" data-name="Capa 1" xmlns="http://www.w3.org/2000/svg" xmlns:xlink="http://www.w3.org/1999/xlink" viewBox="0 0 345.96 135.29"><defs><style>.cls-1{fill:url(#Parners_Gradient);}.cls-2{fill:url(#Parners_Gradient-2);}.cls-3{fill:#fff;}.cls-4{fill:#00142a;}.cls-5{fill:url(#Parners_Gradient-3);}.cls-6{fill:url(#Degradado_sin_nombre_6);}</style><linearGradient id="Parners_Gradient" x1="26.14" y1="81.88" x2="64.2" y2="35.71" gradientUnits="userSpaceOnUse"><stop offset="0" stop-color="#d9005a"/><stop offset="0.03" stop-color="#dc0054"/><stop offset="0.22" stop-color="#e42a41"/><stop offset="0.6" stop-color="#f2761e"/><stop offset="0.87" stop-color="#fca608"/><stop offset="1" stop-color="#ffb800"/></linearGradient><linearGradient id="Parners_Gradient-2" x1="48.61" y1="100.4" x2="86.67" y2="54.23" xlink:href="#Parners_Gradient"/><linearGradient id="Parners_Gradient-3" x1="31.19" y1="88.79" x2="53.83" y2="42.27" xlink:href="#Parners_Gradient"/><linearGradient id="Degradado_sin_nombre_6" x1="54.92" y1="100.34" x2="77.56" y2="53.82" gradientUnits="userSpaceOnUse"><stop offset="0" stop-color="#d9005a"/><stop offset="1" stop-color="#ffb800"/></linearGradient></defs><title>LogoLetraNegro</title><path class="cls-1" d="M41.17,85.6c-6.56-3.45-10.42-12.93-8.56-20.71,1.31-5.44,4.53-9.83,7.89-14.13,1.65-2.12,3.39-4.18,5-6.29,4.08-5.17,7.75-10.54,8.05-17.85,5.27,4.16,8.55,9,9,15.46C63,47,61.42,51.3,58.9,55.37A91.81,91.81,0,0,1,51.78,65C46.8,71.11,41.63,77.11,41.17,85.6Z"/><path class="cls-2" d="M59.24,109.16c-5.22-4.19-8.53-9-9-15.48-.35-5.17,1.48-9.7,4.23-14,3.41-5.28,7.68-9.89,11.39-14.94,2.89-3.93,5.2-8.12,5.63-13.11.14-1.6.71-1.42,1.73-.57C81.1,57.73,83,67.8,78,76.84c-3.18,5.78-7.65,10.59-11.65,15.77C62.64,97.41,59.53,102.47,59.24,109.16Z"/><path class="cls-3" d="M118,49.62a8.33,8.33,0,0,1,3,4.18,10.23,10.23,0,0,1,.22,5.59l-.75,3.41a13.9,13.9,0,0,1-2.68,5.59,15.69,15.69,0,0,1-4.89,4.18,12,12,0,0,1-5.85,1.58h-3.75L99.47,91.34H91.88L101.47,48h11.35A8.56,8.56,0,0,1,118,49.62Zm-4.48,7.17a2.83,2.83,0,0,0-2.35-1.15H107.4L105,66.56h3.76a4.61,4.61,0,0,0,2.83-1.07,4.55,4.55,0,0,0,1.75-2.69l.75-3.41A3,3,0,0,0,113.5,56.79Z"/><path class="cls-3" d="M150.08,49.53a8.46,8.46,0,0,1,3.28,4.06,9.52,9.52,0,0,1,.32,5.71l-7.11,32H139l3.84-17.15H135.3l-3.83,17.15H124L133.55,48h11.27A9.42,9.42,0,0,1,150.08,49.53Zm-4.55,7.09a3,3,0,0,0-2.37-1.07h-3.75l-2.43,11h7.51l1.6-7.26A2.92,2.92,0,0,0,145.53,56.62Z"/><path class="cls-3" d="M180.48,70a8.64,8.64,0,0,1,1.41,7.51l-3.11,13.86h-7.59l3.11-13.86a2.79,2.79,0,0,0-.47-2.57c-.53-.68-1.4-.72-2.54-.72h-3.86l-3.84,17.15h-7.16L166,48h11a10,10,0,0,1,5.44,1.45,7.86,7.86,0,0,1,3.22,4A9.6,9.6,0,0,1,186,59l-.75,3.42A13.39,13.39,0,0,1,180.48,70ZM176,65.45a5.6,5.6,0,0,0,1.6-3.07l.75-3.42a3.17,3.17,0,0,0-.5-2.6,2.77,2.77,0,0,0-2.43-1.15h-3.84l-2.5,11.35H173A4.94,4.94,0,0,0,176,65.45Z"/><path class="cls-3" d="M216.62,51.28a9.12,9.12,0,0,1,1.51,8l-7.11,32h-7.59l7.11-32a3.08,3.08,0,0,0-.46-2.73,3.13,3.13,0,0,0-2.55-1h-3.76l-7.94,35.79h-7.17l9.6-43.3h10.92A9,9,0,0,1,216.62,51.28Z"/><path class="cls-3" d="M243.49,91.34H220.88l9.6-43.3h22.61L246,53.78a7.88,7.88,0,0,1-5,1.77h-4.71l-2.42,11h7.51l-1.69,7.63h-7.5l-2.18,9.64h4.88a5.42,5.42,0,0,1,4.25,2.06Z"/><path class="cls-3" d="M275.14,70a8.61,8.61,0,0,1,1.42,7.51l-3.12,13.86h-7.59L269,77.48a2.49,2.49,0,0,0-.39-2.42,3.15,3.15,0,0,0-2.61-.87h-3.88l-3.83,17.15h-7.17l9.6-43.3h11a10,10,0,0,1,5.44,1.45,7.81,7.81,0,0,1,3.22,4,9.52,9.52,0,0,1,.28,5.5l-.75,3.42A13.29,13.29,0,0,1,275.14,70Zm-4.45-4.54a5.57,5.57,0,0,0,1.6-3.05L273,59a3.17,3.17,0,0,0-.49-2.6,2.79,2.79,0,0,0-2.44-1.15h-3.84l-2.5,11.35h3.89A4.84,4.84,0,0,0,270.69,65.43Z"/><path class="cls-3" d="M304.37,59c.21-1,.47-3.54-2.9-3.76-2.33-.16-3.56,1.14-3.8,2.28l-1.35,6.26c-.95,4.38,14.06.89,12.07,10.45-.64,3-2.16,9.55-3.13,11.52-1.21,2.44-4.24,5.91-11.2,5.62-4.56-.13-6.58-2.06-7.64-3.56a9.48,9.48,0,0,1-1.1-7.76l.84-3.47h7l-.82,3.84a3.24,3.24,0,0,0,.4,2.66,3.85,3.85,0,0,0,3,1.11,4.43,4.43,0,0,0,2.95-1,4.29,4.29,0,0,0,1.19-2.77l.9-4.46c.92-5.1-15.14,0-11.87-12.83,0,0,1.52-6.64,2.48-8.55,1.72-3.43,3.24-4.38,5.19-5.37a13,13,0,0,1,6.48-1.1c6,.34,7.66,3.83,8.26,5.5a9.61,9.61,0,0,1,.2,5.39l-.79,3.87h-7.17Z"/><rect class="cls-4" width="345.96" height="135.29"/><path class="cls-5" d="M41,84.69a.23.23,0,0,1-.34.2C34.34,81.3,30.64,72,32.47,64.36c1.3-5.44,4.52-9.83,7.88-14.13,1.65-2.11,3.39-4.17,5-6.28,4-5.06,7.6-10.31,8-17.39a.24.24,0,0,1,.39-.17c5.06,4.1,8.2,8.86,8.69,15.17.37,4.87-1.23,9.21-3.75,13.29a92.74,92.74,0,0,1-7.12,9.63C46.72,70.49,41.64,76.4,41,84.69Z"/><path class="cls-6" d="M59.1,107.9a.24.24,0,0,1-.35.2c-6.36-3.58-10.06-12.87-8.23-20.52,1.3-5.44,4.52-9.84,7.88-14.13,1.66-2.12,3.39-4.18,5.05-6.29,4-5.06,7.6-10.31,8-17.38a.25.25,0,0,1,.39-.18c5.06,4.1,8.2,8.86,8.69,15.17.37,4.87-1.23,9.22-3.75,13.29a90.66,90.66,0,0,1-7.12,9.63C64.77,93.7,59.69,99.62,59.1,107.9Z"/><path class="cls-3" d="M119.21,47.18a8.29,8.29,0,0,1,3,4.18,10.19,10.19,0,0,1,.22,5.58l-.75,3.42A13.86,13.86,0,0,1,119,65.94a15.69,15.69,0,0,1-4.89,4.18,11.87,11.87,0,0,1-5.84,1.58h-3.76l-3.84,17.19h-7.6l9.6-43.29h11.34A8.56,8.56,0,0,1,119.21,47.18Zm-4.48,7.16a2.86,2.86,0,0,0-2.35-1.15h-3.75l-2.41,10.92H110a5,5,0,0,0,4.58-3.75l.75-3.42A3,3,0,0,0,114.73,54.34Z"/><path class="cls-3" d="M150.3,47.09a8.46,8.46,0,0,1,3.28,4.06,9.52,9.52,0,0,1,.32,5.71l-7.11,32H139.2L143,71.74h-7.51l-3.84,17.15h-7.5l9.59-43.29H145A9.42,9.42,0,0,1,150.3,47.09Zm-4.55,7.08a3,3,0,0,0-2.37-1.06h-3.75l-2.42,11h7.5l1.6-7.25A2.94,2.94,0,0,0,145.75,54.17Z"/><path class="cls-3" d="M180.69,67.52A8.64,8.64,0,0,1,182.11,75L179,88.89H171.4L174.51,75a2.79,2.79,0,0,0-.46-2.57c-.53-.68-1.41-.72-2.55-.72h-3.85l-3.84,17.15h-7.17l9.6-43.29h11a10,10,0,0,1,5.44,1.45,7.86,7.86,0,0,1,3.22,4,9.51,9.51,0,0,1,.28,5.5l-.75,3.41A13.25,13.25,0,0,1,180.69,67.52ZM176.25,63a5.68,5.68,0,0,0,1.59-3.08l.75-3.41a3.16,3.16,0,0,0-.49-2.6,2.8,2.8,0,0,0-2.44-1.15h-3.84l-2.49,11.34h3.83A5,5,0,0,0,176.25,63Z"/><path class="cls-3" d="M216.82,48.84a9.14,9.14,0,0,1,1.52,8l-7.12,32h-7.59l7.12-32a3.06,3.06,0,0,0-.47-2.73,3.11,3.11,0,0,0-2.55-1H204L196,88.89h-7.17l9.6-43.29h10.92A8.93,8.93,0,0,1,216.82,48.84Z"/><path class="cls-3" d="M243.69,88.89H221.08l9.6-43.29h22.6l-7.07,5.74a7.91,7.91,0,0,1-5,1.77h-4.7l-2.26,10.31h7.51l-1.69,7.63h-7.5l-2.35,10.33h4.89a5.43,5.43,0,0,1,4.25,2.06Z"/><path class="cls-3" d="M274.33,67.52A8.64,8.64,0,0,1,275.74,75l-3.11,13.86H265L268.15,75a2.51,2.51,0,0,0-.38-2.42,3.16,3.16,0,0,0-2.62-.87h-3.87l-3.83,17.15h-7.17l9.6-43.29h11a10,10,0,0,1,5.44,1.45,7.86,7.86,0,0,1,3.22,4,9.59,9.59,0,0,1,.28,5.5l-.75,3.41A13.36,13.36,0,0,1,274.33,67.52ZM269.88,63a5.57,5.57,0,0,0,1.6-3l.75-3.41a3.16,3.16,0,0,0-.49-2.6,2.8,2.8,0,0,0-2.44-1.15h-3.84L263,64.11h3.88A4.84,4.84,0,0,0,269.88,63Z"/><path class="cls-3" d="M302.54,56.53c.22-1,.48-3.54-2.89-3.76-2.33-.16-3.56,1.14-3.8,2.28L294.5,61.3c-.95,4.39,14.06.9,12.06,10.45-.63,3-2.16,9.55-3.13,11.52-1.2,2.44-4.23,5.91-11.19,5.62-4.56-.13-6.58-2.06-7.64-3.57a9.45,9.45,0,0,1-1.09-7.75l.84-3.47h7l-.81,3.84A3.24,3.24,0,0,0,291,80.6a3.85,3.85,0,0,0,3,1.11,4.41,4.41,0,0,0,2.95-1,4.32,4.32,0,0,0,1.19-2.77l.9-4.46c.92-5.1-15.13,0-11.87-12.83,0,0,1.52-6.64,2.48-8.55,1.73-3.42,3.24-4.37,5.19-5.37a13.07,13.07,0,0,1,6.48-1.09c6,.33,7.65,3.83,8.25,5.5a9.58,9.58,0,0,1,.21,5.38l-.79,3.88h-7.17Z"/></svg>