<svg id="Capa_1" data-name="Capa 1" xmlns="http://www.w3.org/2000/svg" viewBox="0 0 209.93 209.93"><defs><style>.cls-1{fill:#e00059;}</style></defs><title>MenuHamburguesaLlamaRosado</title><path class="cls-1" d="M25.28,62.74c2.95-19.51,23.44-37.53,44.66-39.63,14.84-1.48,28.72,2.79,42.48,7.5,6.78,2.31,13.47,4.88,20.24,7.23,16.58,5.75,33.31,10.31,52,4.66-5.86,16.92-15.18,29.41-31,36.3-11.95,5.2-24.29,5-36.76,2.18-10.42-2.33-20.47-5.85-30.48-9.51C66.69,64.24,47.05,56.49,25.28,62.74Z"/><path class="cls-1" d="M25.91,128.23c5.2-17.06,13.82-30,29.38-37.57,12.44-6,25.47-6,38.74-3.41,16.44,3.18,32.09,9.19,48.25,13.34,12.6,3.24,25.26,4.8,38,.91,4.1-1.24,4.22.34,3.11,3.71-8.58,26-31.65,40.64-58.95,37.29-17.45-2.15-33.8-8.42-50.57-13.15C58.37,125,42.76,122.3,25.91,128.23Z"/><path class="cls-1" d="M25.91,185.6c5.2-17.07,13.82-30,29.38-37.57,12.44-6,25.47-6,38.74-3.42,16.44,3.19,32.09,9.19,48.25,13.35,12.6,3.23,25.26,4.79,38,.91,4.1-1.25,4.22.33,3.11,3.7-8.58,26-31.65,40.64-58.95,37.29-17.45-2.14-33.8-8.42-50.57-13.15C58.37,182.32,42.76,179.66,25.91,185.6Z"/></svg>