<svg id="Grupo_28" data-name="Grupo 28" xmlns="http://www.w3.org/2000/svg" xmlns:xlink="http://www.w3.org/1999/xlink" width="769.459" height="768.839" viewBox="0 0 769.459 768.839">
  <defs>
    <clipPath id="clip-path">
      <path id="Trazado_42" data-name="Trazado 42" d="M706.537,50.4S808.028,63.522,861.893,178.3s141.113,142.653,132.213,235.3S936.114,511.08,873.113,552.07s6.357,118.882-92.466,167.048c-61.827,30.128-143.892-64.566-229.918-39.074C501.3,694.688,365.1,698.082,332.386,614.457s63.432-182,49.189-247.6S294.522-19.36,706.537,50.4Z" transform="translate(-325.55 -40.529)" fill="none"/>
    </clipPath>
    <linearGradient id="linear-gradient" x1="0.656" y1="0.5" x2="0.239" y2="0.5" gradientUnits="objectBoundingBox">
      <stop offset="0" stop-color="#5b9af1"/>
      <stop offset="1" stop-color="#70b9f9" stop-opacity="0"/>
    </linearGradient>
    <linearGradient id="linear-gradient-2" x1="0.292" y1="0.985" x2="0.69" y2="0.356" xlink:href="#linear-gradient"/>
    <linearGradient id="linear-gradient-3" x1="0.661" y1="1.141" x2="0.536" y2="0.427" gradientUnits="objectBoundingBox">
      <stop offset="0" stop-color="#2284c6"/>
      <stop offset="1" stop-color="#2284c6" stop-opacity="0"/>
    </linearGradient>
    <linearGradient id="linear-gradient-4" x1="0.157" y1="0.955" x2="0.637" y2="0.481" xlink:href="#linear-gradient-3"/>
    <linearGradient id="linear-gradient-5" x1="-0.027" y1="0.5" x2="0.537" y2="0.5" xlink:href="#linear-gradient"/>
    <linearGradient id="linear-gradient-6" x1="1" y1="0.5" x2="0" y2="0.5" xlink:href="#linear-gradient"/>
    <linearGradient id="linear-gradient-7" x1="1" y1="0.5" x2="0" y2="0.5" gradientUnits="objectBoundingBox">
      <stop offset="0" stop-color="#192765"/>
      <stop offset="1" stop-color="#193d7c" stop-opacity="0"/>
    </linearGradient>
    <radialGradient id="radial-gradient" cx="66.886" cy="51.352" r="54.954" gradientTransform="matrix(0.466, -0.886, -0.887, -0.466, 81.259, 134.543)" gradientUnits="userSpaceOnUse">
      <stop offset="0.005" stop-color="#fbe54f"/>
      <stop offset="0.327" stop-color="#fae04b"/>
      <stop offset="0.687" stop-color="#f8d242"/>
      <stop offset="1" stop-color="#f6c136"/>
    </radialGradient>
    <linearGradient id="linear-gradient-8" x1="1" y1="0.5" x2="0" y2="0.5" gradientUnits="objectBoundingBox">
      <stop offset="0" stop-color="#fb904f"/>
      <stop offset="1" stop-color="#fbd74f" stop-opacity="0"/>
    </linearGradient>
    <radialGradient id="radial-gradient-2" cx="-646.104" cy="1608.434" r="21.982" gradientTransform="matrix(-0.928, 0.37, 0.369, 0.927, -2540.988, 490.713)" gradientUnits="userSpaceOnUse">
      <stop offset="0.005" stop-color="#76e5b0"/>
      <stop offset="0.268" stop-color="#71e2ae"/>
      <stop offset="0.563" stop-color="#63dbaa"/>
      <stop offset="0.872" stop-color="#4dcfa2"/>
      <stop offset="1" stop-color="#42ca9f"/>
    </radialGradient>
    <linearGradient id="linear-gradient-9" x1="1" y1="0.5" x2="0" y2="0.5" gradientUnits="objectBoundingBox">
      <stop offset="0.005" stop-color="#76e5b0"/>
      <stop offset="0.26" stop-color="#71e0ae"/>
      <stop offset="0.546" stop-color="#64d2aa"/>
      <stop offset="0.846" stop-color="#4fbca3"/>
      <stop offset="1" stop-color="#42ae9f"/>
    </linearGradient>
    <radialGradient id="radial-gradient-3" cx="-1157.323" cy="106.639" r="40.385" gradientTransform="matrix(-0.999, 0, 0, 0.998, -3099.733, 0.065)" gradientUnits="userSpaceOnUse">
      <stop offset="0" stop-color="#70b9f9" stop-opacity="0"/>
      <stop offset="1" stop-color="#5894f5"/>
    </radialGradient>
  </defs>
  <g id="Grupo_17" data-name="Grupo 17" transform="translate(0 0)">
    <path id="Trazado_21" data-name="Trazado 21" d="M351.035,660.479c32.688,83.59,168.876,80.224,218.343,65.58,85.984-25.471,165.826,64.081,229.9,39.054,101.859-39.789,29.458-126.01,92.459-167.048,63.008-40.969,119.715-45.369,120.993-138.482.646-46.688-49.794-98.241-93.98-158.872a245.509,245.509,0,0,1-38.24-76.393c-.987-3.436-2.042-6.8-3.168-10.161C840.356,102.784,720.7,28.37,603.38,32.985,358.365,42.618,287.194,263.9,344.164,377.707c20.044,40.032-5.148,117.633-6.2,186.842C337.293,599.119,340.134,632.572,351.035,660.479Z" transform="translate(-243.913 -32.782)" fill="#edf6ff"/>
    <g id="Grupo_7" data-name="Grupo 7" transform="translate(100.272 53.769)">
      <g id="Grupo_6" data-name="Grupo 6" clip-path="url(#clip-path)">
        <g id="Grupo_5" data-name="Grupo 5" transform="translate(103.054 16.588)">
          <path id="Trazado_22" data-name="Trazado 22" d="M403.03,51.6s34.12,29.622,7.538,86.935c-13.541,29.2-29.215-46.022-29.215-46.022L368.883,50.082Z" transform="translate(-155.625 -0.369)" fill="#193d7c"/>
          <path id="Trazado_23" data-name="Trazado 23" d="M465.457,104.089a460.57,460.57,0,0,0-5.239,46.848,18.8,18.8,0,0,0,13.944,19.155c6.065,1.617,13.958,3.838,23.142,6.7,0,0-18.981,32.259-63.689,32.266-43.444.007-59.138-29.538-59.138-29.538s6.079-2.63,14.854-5.733A24.153,24.153,0,0,0,405.548,152.3c.771-15.269.577-39.158-5.12-64.067C390.854,46.373,465.457,104.089,465.457,104.089Z" transform="translate(-271.104 135.797)" fill="#70b9f9"/>
          <path id="Trazado_24" data-name="Trazado 24" d="M465.457,104.089a460.57,460.57,0,0,0-5.239,46.848,18.8,18.8,0,0,0,13.944,19.155c6.065,1.617,13.958,3.838,23.142,6.7,0,0-18.981,32.259-63.689,32.266-43.444.007-59.138-29.538-59.138-29.538s6.079-2.63,14.854-5.733A24.153,24.153,0,0,0,405.548,152.3c.771-15.269.577-39.158-5.12-64.067C390.854,46.373,465.457,104.089,465.457,104.089Z" transform="translate(-271.104 135.797)" fill="url(#linear-gradient)"/>
          <path id="Trazado_25" data-name="Trazado 25" d="M489.651,200.659s-7.052,20.113-47.313,17.726-100.074-37.721-100.074-37.721l41.964-84.52,97.232,86.227Z" transform="translate(-39.639 273.257)" fill="#70b9f9"/>
          <path id="Trazado_26" data-name="Trazado 26" d="M489.651,200.659s-7.052,20.113-47.313,17.726-100.074-37.721-100.074-37.721l41.964-84.52,97.232,86.227Z" transform="translate(-39.639 273.257)" fill="url(#linear-gradient-2)"/>
          <path id="Trazado_27" data-name="Trazado 27" d="M354.05,86.453s88.936,21.585,153.758,75.095c0,0-5.461,53.385-46.4,96.68,0,0-43.443-20.786-63.237-36.8S354.05,86.453,354.05,86.453Z" transform="translate(-139.681 215.689)" fill="#0053fc"/>
          <path id="Trazado_28" data-name="Trazado 28" d="M354.05,86.453s88.936,21.585,153.758,75.095c0,0-5.461,53.385-46.4,96.68,0,0-43.443-20.786-63.237-36.8S354.05,86.453,354.05,86.453Z" transform="translate(-139.681 215.689)" fill="url(#linear-gradient-3)"/>
          <path id="Trazado_29" data-name="Trazado 29" d="M570.426,86.453s-34.571,52.261-103.263,3.186c0,0-82.795,30.447-96.44,112.24s12.283,241.532,12.283,241.532H626.723s9.8-70.306,6.962-154.736C631.315,218.126,658.682,140.532,570.426,86.453Z" transform="translate(-356.057 215.689)" fill="#0053fc"/>
          <path id="Trazado_30" data-name="Trazado 30" d="M570.426,86.453s-34.571,52.261-103.263,3.186c0,0-82.795,30.447-96.44,112.24s12.283,241.532,12.283,241.532H626.723s9.8-70.306,6.962-154.736C631.315,218.126,658.682,140.532,570.426,86.453Z" transform="translate(-356.057 215.689)" fill="url(#linear-gradient-4)"/>
          <path id="Trazado_31" data-name="Trazado 31" d="M478.828,112.5s-5.461,94.639-1.82,127.814,10.012,48.4,10.012,48.4H437.031s-45.771-77.482-45.66-172" transform="translate(-378.185 370.394)" fill="#70b9f9"/>
          <path id="Trazado_32" data-name="Trazado 32" d="M478.828,112.5s-5.461,94.639-1.82,127.814,10.012,48.4,10.012,48.4H437.031s-45.771-77.482-45.66-172" transform="translate(-378.185 370.394)" fill="url(#linear-gradient-5)"/>
          <path id="Trazado_33" data-name="Trazado 33" d="M460.259,93.38s-22.747-4.768-44.576,30.676-25.588,115.2-25.588,115.2,48.446,21.585,108.835,11.361c0,0,13.986-69.64,6.822-110.88S460.259,93.38,460.259,93.38Z" transform="translate(-390.095 255.568)" fill="#0053fc"/>
          <path id="Trazado_34" data-name="Trazado 34" d="M474.344,361.224s-48.578-54.864-51.114-101.288S416,170.051,399.969,154.012s-42.645-19.836-52.781-34.6-7.607-59.93,16.473-55.287,43.089,43.259,59.145,66.156,57.033,62.561,89.138,141.056,15.208,121.54,15.208,121.54S495.047,381.06,474.344,361.224Z" transform="translate(-76.8 81.044)" fill="#70b9f9"/>
          <path id="Trazado_35" data-name="Trazado 35" d="M560.242,184.42s5.954,53.406-17.987,71.9S452.29,274.839,408.61,239.811,367,142.882,368.022,130.91c1.709-20.12,28.124-68.9,78.522-75.171,39.226-4.886,95.057-27.963,106.91,74.29C560.749,192.97,560.242,184.42,560.242,184.42Z" transform="translate(-287.193 -0.403)" fill="#70b9f9"/>
          <path id="Trazado_36" data-name="Trazado 36" d="M560.242,184.42s5.954,53.406-17.987,71.9S452.29,274.839,408.61,239.811,367,142.882,368.022,130.91c1.709-20.12,28.124-68.9,78.522-75.171,39.226-4.886,95.057-27.963,106.91,74.29C560.749,192.97,560.242,184.42,560.242,184.42Z" transform="translate(-287.193 -0.403)" fill="url(#linear-gradient-6)"/>
          <path id="Trazado_37" data-name="Trazado 37" d="M563.136,65.169c10.533,17.712,15.271,63.99-38.01,73.124s-81.03.694-90.618,16.754c-7.816,13.11,7.038,21.918,2.529,50.838-1.647,10.522-26.22,2.339-27.985,17.691S438.475,283.07,431.374,290s-42.505-38.484-51.836-62.991-20.315-83.1.07-117.341c15.424-25.9,36.26-36.007,55.678-38.922S449.4,46.951,469.8,43.21,487.567,73.352,505.679,64.4,551.29,45.25,563.136,65.169Z" transform="translate(-299.161 -42.919)" fill="#193d7c"/>
          <path id="Trazado_38" data-name="Trazado 38" d="M563.136,65.169c10.533,17.712,15.271,63.99-38.01,73.124s-81.03.694-90.618,16.754c-7.816,13.11,7.038,21.918,2.529,50.838-1.647,10.522-26.22,2.339-27.985,17.691S438.475,283.07,431.374,290s-42.505-38.484-51.836-62.991-20.315-83.1.07-117.341c15.424-25.9,36.26-36.007,55.678-38.922S449.4,46.951,469.8,43.21,487.567,73.352,505.679,64.4,551.29,45.25,563.136,65.169Z" transform="translate(-299.161 -42.919)" fill="url(#linear-gradient-7)"/>
        </g>
      </g>
    </g>
    <g id="Grupo_10" data-name="Grupo 10" transform="translate(580.846 199.058)">
      <ellipse id="Elipse_1" data-name="Elipse 1" cx="55.001" cy="55.048" rx="55.001" ry="55.048" transform="translate(55.588 137.747) rotate(-107.285)" fill="url(#radial-gradient)"/>
      <g id="Grupo_8" data-name="Grupo 8" transform="translate(0 40.656)">
        <path id="Trazado_43" data-name="Trazado 43" d="M326.4,78.629c1.251-7,11.554-10.688,31.5-11.216,4.029-.139,8.323-.139,12.881.125a39.937,39.937,0,0,0-3.3,6.468c-1.522-.062-3.043-.062-4.5-.062H358.1c-9.907.264-16.181,1.381-19.947,2.637-3.828,1.187-5.155,2.505-5.287,3.234-.264,1.451,3.105,6.857,21.468,14.512,2.772,1.124,5.676,2.242,8.782,3.3,14.6,5.282,32.758,9.966,52.045,13.527,21.461,3.956,39.5,5.677,53.5,5.941,21.857.4,34.009-2.644,34.606-5.879s-9.643-10.355-30.181-17.747a45.167,45.167,0,0,0-.792-7.322c21.531,7.26,39.3,16.5,37.51,26.325-1.584,8.509-16.841,11.348-35.732,11.348-2.835,0-5.676-.062-8.65-.194a393.079,393.079,0,0,1-51.447-6,363.841,363.841,0,0,1-50.127-12.673c-4.294-1.513-8.323-3.033-12.019-4.546-17.174-7.128-25.56-13.728-25.56-20.321A10.128,10.128,0,0,1,326.4,78.629Z" transform="translate(-326.263 -67.321)" fill="#f4b442"/>
      </g>
      <g id="Grupo_9" data-name="Grupo 9" transform="translate(0 40.656)">
        <path id="Trazado_44" data-name="Trazado 44" d="M326.4,78.629c1.251-7,11.554-10.688,31.5-11.216,4.029-.139,8.323-.139,12.881.125a39.937,39.937,0,0,0-3.3,6.468c-1.522-.062-3.043-.062-4.5-.062H358.1c-9.907.264-16.181,1.381-19.947,2.637-3.828,1.187-5.155,2.505-5.287,3.234-.264,1.451,3.105,6.857,21.468,14.512,2.772,1.124,5.676,2.242,8.782,3.3,14.6,5.282,32.758,9.966,52.045,13.527,21.461,3.956,39.5,5.677,53.5,5.941,21.857.4,34.009-2.644,34.606-5.879s-9.643-10.355-30.181-17.747a45.167,45.167,0,0,0-.792-7.322c21.531,7.26,39.3,16.5,37.51,26.325-1.584,8.509-16.841,11.348-35.732,11.348-2.835,0-5.676-.062-8.65-.194a393.079,393.079,0,0,1-51.447-6,363.841,363.841,0,0,1-50.127-12.673c-4.294-1.513-8.323-3.033-12.019-4.546-17.174-7.128-25.56-13.728-25.56-20.321A10.128,10.128,0,0,1,326.4,78.629Z" transform="translate(-326.263 -67.321)" fill="url(#linear-gradient-8)"/>
      </g>
    </g>
    <g id="Grupo_12" data-name="Grupo 12" transform="translate(258.3 29.923)">
      <path id="Trazado_45" data-name="Trazado 45" d="M388.814,67.157a21.954,21.954,0,1,0,12.265-28.5A21.969,21.969,0,0,0,388.814,67.157Z" transform="translate(-374.431 -37.093)" fill="url(#radial-gradient-2)"/>
      <g id="Grupo_11" data-name="Grupo 11" transform="translate(0 5.539)">
        <path id="Trazado_46" data-name="Trazado 46" d="M384.788,68.406c-1.065-2.625,1.624-6.062,8.251-10.472,1.333-.9,2.781-1.814,4.377-2.692a15.705,15.705,0,0,0,.258,2.883c-.526.3-1.037.625-1.529.935L394.492,60.1a28.867,28.867,0,0,0-6.173,5.126c-1.042,1.212-1.2,1.938-1.094,2.21.22.549,2.509,1.661,10.335.348,1.175-.21,2.394-.449,3.669-.754a134.579,134.579,0,0,0,20.449-6.482,133.591,133.591,0,0,0,19.331-9.35c7.463-4.506,10.922-8.109,10.435-9.331s-5.461-1.451-13.966.415a18.536,18.536,0,0,0-1.825-2.305c8.81-2.119,16.775-2.773,18.266.926,1.276,3.212-3.273,7.408-9.651,11.417-.96.606-1.93,1.184-2.962,1.771a156.533,156.533,0,0,1-18.653,8.9,145.675,145.675,0,0,1-19.623,6.362c-1.772.4-3.454.745-5.026,1.017-7.315,1.236-11.548.792-12.953-1.437A3.53,3.53,0,0,1,384.788,68.406Z" transform="translate(-384.562 -38.254)" fill="url(#linear-gradient-9)"/>
      </g>
    </g>
    <g id="Grupo_16" data-name="Grupo 16" transform="translate(122.718 296.212)" opacity="0.31">
      <path id="Trazado_47" data-name="Trazado 47" d="M403.58,121.911a40.334,40.334,0,1,0,33.7-45.973A40.323,40.323,0,0,0,403.58,121.911Z" transform="translate(-375.843 -75.461)" fill="#92c3fe"/>
      <path id="Trazado_48" data-name="Trazado 48" d="M403.58,121.911a40.334,40.334,0,1,0,33.7-45.973A40.323,40.323,0,0,0,403.58,121.911Z" transform="translate(-375.843 -75.461)" fill="url(#radial-gradient-3)"/>
      <g id="Grupo_14" data-name="Grupo 14" transform="translate(0 20.713)">
        <g id="Grupo_13" data-name="Grupo 13">
          <path id="Trazado_49" data-name="Trazado 49" d="M399.245,108.437c-.82-5.143,5.419-10.182,19.092-15.359,2.758-1.062,5.725-2.1,8.942-3.012a29.241,29.241,0,0,0-.723,5.268c-1.063.319-2.119.687-3.12,1.041l-3.383,1.18c-6.795,2.568-10.866,4.858-13.166,6.635-2.362,1.742-2.96,2.977-2.876,3.512.167,1.069,3.807,4,18.362,4.865,2.189.1,4.474.18,6.878.167a248.393,248.393,0,0,0,39.282-3.193,246.55,246.55,0,0,0,38.448-8.794c15.229-5,22.9-10.029,22.531-12.409s-9.178-4.844-25.171-5a33.172,33.172,0,0,0-2.32-4.879c16.653-.167,31.181,1.936,32.32,9.168.959,6.274-8.914,11.917-21.982,16.47-1.966.687-3.946,1.326-6.037,1.95A286.305,286.305,0,0,1,469.27,114.3a268.136,268.136,0,0,1-37.746,3.325c-3.342-.021-6.5-.1-9.421-.257-13.6-.784-21-3.331-22.594-7.891A8.469,8.469,0,0,1,399.245,108.437Z" transform="translate(-399.174 -78.446)" fill="#92c3fe"/>
        </g>
      </g>
      <g id="Grupo_15" data-name="Grupo 15" transform="translate(0 20.713)">
        <path id="Trazado_50" data-name="Trazado 50" d="M399.245,108.437c-.82-5.143,5.419-10.182,19.092-15.359,2.758-1.062,5.725-2.1,8.942-3.012a29.241,29.241,0,0,0-.723,5.268c-1.063.319-2.119.687-3.12,1.041l-3.383,1.18c-6.795,2.568-10.866,4.858-13.166,6.635-2.362,1.742-2.96,2.977-2.876,3.512.167,1.069,3.807,4,18.362,4.865,2.189.1,4.474.18,6.878.167a248.393,248.393,0,0,0,39.282-3.193,246.55,246.55,0,0,0,38.448-8.794c15.229-5,22.9-10.029,22.531-12.409s-9.178-4.844-25.171-5a33.172,33.172,0,0,0-2.32-4.879c16.653-.167,31.181,1.936,32.32,9.168.959,6.274-8.914,11.917-21.982,16.47-1.966.687-3.946,1.326-6.037,1.95A286.305,286.305,0,0,1,469.27,114.3a268.136,268.136,0,0,1-37.746,3.325c-3.342-.021-6.5-.1-9.421-.257-13.6-.784-21-3.331-22.594-7.891A8.469,8.469,0,0,1,399.245,108.437Z" transform="translate(-399.174 -78.446)" fill="url(#linear-gradient-6)"/>
      </g>
    </g>
    <path id="Trazado_51" data-name="Trazado 51" d="M388.977,161.077c2.73,17.08,17.612,40.344-27.52,63.5-25.394,13.041-28.34,23.229-24.761,34.5,3.529,11.118,22.01,18.281,48.981,3.436s71.4-45.522,67.413-103.224C450.067,115.583,379.778,103.535,388.977,161.077Z" transform="translate(247.332 497.914)" fill="#edf6ff"/>
    <path id="Trazado_52" data-name="Trazado 52" d="M491.824,86.35s-15.674,47.007-6.6,74.227,30.361,56.349,24.671,72.291-92.369,18.309-85.768-80.6S500.655,44.111,491.824,86.35Z" transform="translate(-423.768 143.941)" fill="#edf6ff"/>
  </g>
  <g id="Grupo_20" data-name="Grupo 20" transform="translate(580.846 199.058)">
    <ellipse id="Elipse_2" data-name="Elipse 2" cx="55.001" cy="55.048" rx="55.001" ry="55.048" transform="translate(55.588 137.747) rotate(-107.285)" fill="url(#radial-gradient)"/>
    <g id="Grupo_18" data-name="Grupo 18" transform="translate(0 40.656)">
      <path id="Trazado_53" data-name="Trazado 53" d="M326.4,78.629c1.251-7,11.554-10.688,31.5-11.216,4.029-.139,8.323-.139,12.881.125a39.937,39.937,0,0,0-3.3,6.468c-1.522-.062-3.043-.062-4.5-.062H358.1c-9.907.264-16.181,1.381-19.947,2.637-3.828,1.187-5.155,2.505-5.287,3.234-.264,1.451,3.105,6.857,21.468,14.512,2.772,1.124,5.676,2.242,8.782,3.3,14.6,5.282,32.758,9.966,52.045,13.527,21.461,3.956,39.5,5.677,53.5,5.941,21.857.4,34.009-2.644,34.606-5.879s-9.643-10.355-30.181-17.747a45.167,45.167,0,0,0-.792-7.322c21.531,7.26,39.3,16.5,37.51,26.325-1.584,8.509-16.841,11.348-35.732,11.348-2.835,0-5.676-.062-8.65-.194a393.079,393.079,0,0,1-51.447-6,363.841,363.841,0,0,1-50.127-12.673c-4.294-1.513-8.323-3.033-12.019-4.546-17.174-7.128-25.56-13.728-25.56-20.321A10.128,10.128,0,0,1,326.4,78.629Z" transform="translate(-326.263 -67.321)" fill="#f4b442"/>
    </g>
    <g id="Grupo_19" data-name="Grupo 19" transform="translate(0 40.656)">
      <path id="Trazado_54" data-name="Trazado 54" d="M326.4,78.629c1.251-7,11.554-10.688,31.5-11.216,4.029-.139,8.323-.139,12.881.125a39.937,39.937,0,0,0-3.3,6.468c-1.522-.062-3.043-.062-4.5-.062H358.1c-9.907.264-16.181,1.381-19.947,2.637-3.828,1.187-5.155,2.505-5.287,3.234-.264,1.451,3.105,6.857,21.468,14.512,2.772,1.124,5.676,2.242,8.782,3.3,14.6,5.282,32.758,9.966,52.045,13.527,21.461,3.956,39.5,5.677,53.5,5.941,21.857.4,34.009-2.644,34.606-5.879s-9.643-10.355-30.181-17.747a45.167,45.167,0,0,0-.792-7.322c21.531,7.26,39.3,16.5,37.51,26.325-1.584,8.509-16.841,11.348-35.732,11.348-2.835,0-5.676-.062-8.65-.194a393.079,393.079,0,0,1-51.447-6,363.841,363.841,0,0,1-50.127-12.673c-4.294-1.513-8.323-3.033-12.019-4.546-17.174-7.128-25.56-13.728-25.56-20.321A10.128,10.128,0,0,1,326.4,78.629Z" transform="translate(-326.263 -67.321)" fill="url(#linear-gradient-8)"/>
    </g>
  </g>
  <g id="Grupo_26" data-name="Grupo 26" transform="translate(122.718 296.212)" opacity="0.31">
    <path id="Trazado_57" data-name="Trazado 57" d="M403.58,121.911a40.334,40.334,0,1,0,33.7-45.973A40.323,40.323,0,0,0,403.58,121.911Z" transform="translate(-375.843 -75.461)" fill="#92c3fe"/>
    <path id="Trazado_58" data-name="Trazado 58" d="M403.58,121.911a40.334,40.334,0,1,0,33.7-45.973A40.323,40.323,0,0,0,403.58,121.911Z" transform="translate(-375.843 -75.461)" fill="url(#radial-gradient-3)"/>
    <g id="Grupo_24" data-name="Grupo 24" transform="translate(0 20.713)">
      <g id="Grupo_23" data-name="Grupo 23">
        <path id="Trazado_59" data-name="Trazado 59" d="M399.245,108.437c-.82-5.143,5.419-10.182,19.092-15.359,2.758-1.062,5.725-2.1,8.942-3.012a29.241,29.241,0,0,0-.723,5.268c-1.063.319-2.119.687-3.12,1.041l-3.383,1.18c-6.795,2.568-10.866,4.858-13.166,6.635-2.362,1.742-2.96,2.977-2.876,3.512.167,1.069,3.807,4,18.362,4.865,2.189.1,4.474.18,6.878.167a248.393,248.393,0,0,0,39.282-3.193,246.55,246.55,0,0,0,38.448-8.794c15.229-5,22.9-10.029,22.531-12.409s-9.178-4.844-25.171-5a33.172,33.172,0,0,0-2.32-4.879c16.653-.167,31.181,1.936,32.32,9.168.959,6.274-8.914,11.917-21.982,16.47-1.966.687-3.946,1.326-6.037,1.95A286.305,286.305,0,0,1,469.27,114.3a268.136,268.136,0,0,1-37.746,3.325c-3.342-.021-6.5-.1-9.421-.257-13.6-.784-21-3.331-22.594-7.891A8.469,8.469,0,0,1,399.245,108.437Z" transform="translate(-399.174 -78.446)" fill="#92c3fe"/>
      </g>
    </g>
    <g id="Grupo_25" data-name="Grupo 25" transform="translate(0 20.713)">
      <path id="Trazado_60" data-name="Trazado 60" d="M399.245,108.437c-.82-5.143,5.419-10.182,19.092-15.359,2.758-1.062,5.725-2.1,8.942-3.012a29.241,29.241,0,0,0-.723,5.268c-1.063.319-2.119.687-3.12,1.041l-3.383,1.18c-6.795,2.568-10.866,4.858-13.166,6.635-2.362,1.742-2.96,2.977-2.876,3.512.167,1.069,3.807,4,18.362,4.865,2.189.1,4.474.18,6.878.167a248.393,248.393,0,0,0,39.282-3.193,246.55,246.55,0,0,0,38.448-8.794c15.229-5,22.9-10.029,22.531-12.409s-9.178-4.844-25.171-5a33.172,33.172,0,0,0-2.32-4.879c16.653-.167,31.181,1.936,32.32,9.168.959,6.274-8.914,11.917-21.982,16.47-1.966.687-3.946,1.326-6.037,1.95A286.305,286.305,0,0,1,469.27,114.3a268.136,268.136,0,0,1-37.746,3.325c-3.342-.021-6.5-.1-9.421-.257-13.6-.784-21-3.331-22.594-7.891A8.469,8.469,0,0,1,399.245,108.437Z" transform="translate(-399.174 -78.446)" fill="url(#linear-gradient-6)"/>
    </g>
  </g>
  <g id="Grupo_27" data-name="Grupo 27" transform="translate(87.078 165.185)">
    <ellipse id="Elipse_3" data-name="Elipse 3" cx="12.317" cy="12.305" rx="12.317" ry="12.305" transform="translate(588.961 249.845)" fill="#76f4bd" opacity="0.5"/>
    <ellipse id="Elipse_4" data-name="Elipse 4" cx="12.317" cy="12.305" rx="12.317" ry="12.305" transform="translate(50.58)" fill="#76f4bd" opacity="0.5"/>
    <path id="Trazado_61" data-name="Trazado 61" d="M331,143.591a30.92,30.92,0,1,0,30.917-30.885A30.9,30.9,0,0,0,331,143.591Z" transform="translate(251.677 276.814)" fill="#fbe54f" opacity="0.5"/>
    <path id="Trazado_62" data-name="Trazado 62" d="M412.942,112.5a17.376,17.376,0,1,0,17.376-17.358A17.369,17.369,0,0,0,412.942,112.5Z" transform="translate(-372.479 172.501)" fill="#fbe54f" opacity="0.5"/>
    <path id="Trazado_63" data-name="Trazado 63" d="M411.769,162.448a41.682,41.682,0,1,0,41.686-41.642A41.66,41.66,0,0,0,411.769,162.448Z" transform="translate(-411.769 324.931)" fill="#76d6b0" opacity="0.5"/>
  </g>
</svg>
