<svg xmlns="http://www.w3.org/2000/svg" xmlns:xlink="http://www.w3.org/1999/xlink" width="733.099" height="867" viewBox="0 0 733.099 867">
  <defs>
    <linearGradient id="linear-gradient" x1="-4.104" y1="-2.903" x2="-4.104" y2="-2.91" gradientUnits="objectBoundingBox">
      <stop offset="0" stop-color="#fbe34d"/>
      <stop offset="1" stop-color="#f90"/>
    </linearGradient>
    <clipPath id="clip-path">
      <path id="Trazado_1860" data-name="Trazado 1860" d="M1025.683,945.758c37.381,117.9,14.606,254.983-54.636,300.541-56.309,37.052-99.652,24.015-150.962,137.977-46.75,103.837-92.363,111.683-209.914,112.145-116.773.455-234.359-46.009-251.606-169.66s58.062-162.472,51.118-258.871c-7.234-100.266,30.167-139.327,84.928-211.706C648.215,653.189,988.3,827.863,1025.683,945.758Z" transform="translate(-355.991 -762.987)" fill="none"/>
    </clipPath>
    <linearGradient id="linear-gradient-2" x1="-5.199" y1="-1.679" x2="-5.196" y2="-1.676" gradientUnits="objectBoundingBox">
      <stop offset="0" stop-color="#5b9af1"/>
      <stop offset="1" stop-color="#70b9f9" stop-opacity="0"/>
    </linearGradient>
    <linearGradient id="linear-gradient-3" x1="-7.206" y1="-1.841" x2="-7.212" y2="-1.841" xlink:href="#linear-gradient-2"/>
    <linearGradient id="linear-gradient-4" x1="-7.099" y1="-1.29" x2="-7.106" y2="-1.29" gradientUnits="objectBoundingBox">
      <stop offset="0" stop-color="#192765"/>
      <stop offset="1" stop-color="#193d7c" stop-opacity="0"/>
    </linearGradient>
    <linearGradient id="linear-gradient-5" x1="-4.12" y1="-4.798" x2="-4.118" y2="-4.794" xlink:href="#linear-gradient-2"/>
    <linearGradient id="linear-gradient-6" x1="0.591" y1="0.028" x2="0.742" y2="1.022" gradientUnits="objectBoundingBox">
      <stop offset="0" stop-color="#0053fc"/>
      <stop offset="1" stop-color="#0877d6"/>
    </linearGradient>
  </defs>
  <g id="Grupo_629" data-name="Grupo 629" transform="translate(-324.149 -668.783)">
    <path id="Trazado_65" data-name="Trazado 65" d="M1025.683,945.758c37.381,117.9,14.606,254.983-54.636,300.541-56.309,37.052-99.652,24.015-150.962,137.977-46.75,103.837-92.363,111.683-209.914,112.145-116.773.455-234.359-46.009-251.606-169.66s58.062-162.472,51.118-258.871c-7.234-100.266,30.167-139.327,84.928-211.706C648.215,653.189,988.3,827.863,1025.683,945.758Z" transform="translate(1.849 5.469)" fill="#edf6ff"/>
    <rect id="Rectángulo_14" data-name="Rectángulo 14" width="422.353" height="262.557" rx="0.73" transform="translate(324.149 943.805) rotate(-7.53)" fill="#c0e0fc" opacity="0.5"/>
    <path id="Rectángulo_15" data-name="Rectángulo 15" d="M364.251,1035.52a.437.437,0,0,1-.491-.377L344.322,888.49A.438.438,0,0,1,344.7,888l236.437-31.338a.436.436,0,0,1,.49.376l19.438,146.654a.437.437,0,0,1-.376.491L364.251,1035.52Z" transform="translate(1.171 10.908)" fill="#76f4bd" opacity="0.5"/>
    <path id="Rectángulo_16" data-name="Rectángulo 16" d="M0,0H239.38V148.812H0Z" transform="matrix(0.991, -0.131, 0.131, 0.991, 541.099, 1060.897)" opacity="0.54" fill="url(#linear-gradient)"/>
    <rect id="Rectángulo_17" data-name="Rectángulo 17" width="46.804" height="108.045" rx="0.3" transform="matrix(0.991, -0.132, 0.132, 0.991, 603.68, 923.008)" fill="#fff" opacity="0.5"/>
    <path id="Rectángulo_18" data-name="Rectángulo 18" d="M379.707,1156.444a.316.316,0,0,1-.356-.273l-14.006-106.494h0a.317.317,0,0,1,.274-.355l151.749-19.957h0a.317.317,0,0,1,.356.274l14.005,106.492h0a.319.319,0,0,1-.274.357l-151.749,19.956Z" transform="translate(2.392 20.935)" fill="#fff" opacity="0.5"/>
    <rect id="Rectángulo_19" data-name="Rectángulo 19" width="46.787" height="108.004" rx="0.3" transform="translate(662.681 915.356) rotate(-7.53)" fill="#fff" opacity="0.5"/>
    <g id="Grupo_31" data-name="Grupo 31" transform="translate(357.839 768.456)">
      <g id="Grupo_628" data-name="Grupo 628">
        <g id="Grupo_627" data-name="Grupo 627" clip-path="url(#clip-path)">
          <g id="Grupo_30" data-name="Grupo 30" transform="translate(76.039 173.805)">
            <g id="Grupo_29" data-name="Grupo 29">
              <path id="Trazado_67" data-name="Trazado 67" d="M680.187,1069.645c7.674,15.36-.455,39.314.9,50.152s27.546,36.1,44.2,49.563c18,14.56,72.359,36.275,72.359,36.275l23.489,84.928s-33.891,7.684-60.091-15.357-44.275-51.5-67.312-83.121-35.926-40.149-41.342-46.079-18.453-14.23-23.2-21.517-5.764-20.832-8.136-29.983-3.894-14.231-4.065-17.453,1.357-4.408,1.357-4.408c3.894-2.034,8.643-1.018,13.723,4.232s6.1,16.947,8.3,21.517,5.929,4.905,6.154-.741-2.932-12.866-7.451-21.227-9.487-20.332-9.039-33.211a17,17,0,0,1,11.522-16.036C654.429,1027.18,672.513,1054.285,680.187,1069.645Z" transform="translate(-416.877 -921.454)" fill="#70b9f9"/>
              <path id="Trazado_68" data-name="Trazado 68" d="M680.187,1069.645c7.674,15.36-.455,39.314.9,50.152s27.546,36.1,44.2,49.563c18,14.56,72.359,36.275,72.359,36.275l23.489,84.928s-33.891,7.684-60.091-15.357-44.275-51.5-67.312-83.121-35.926-40.149-41.342-46.079-18.453-14.23-23.2-21.517-5.764-20.832-8.136-29.983-3.894-14.231-4.065-17.453,1.357-4.408,1.357-4.408c3.894-2.034,8.643-1.018,13.723,4.232s6.1,16.947,8.3,21.517,5.929,4.905,6.154-.741-2.932-12.866-7.451-21.227-9.487-20.332-9.039-33.211a17,17,0,0,1,11.522-16.036C654.429,1027.18,672.513,1054.285,680.187,1069.645Z" transform="translate(-416.877 -921.454)" fill="url(#linear-gradient-2)"/>
              <path id="Trazado_69" data-name="Trazado 69" d="M876.935,1138.811a119.326,119.326,0,0,1-25.859,22.07c7.364.935,10.757,3.32,6.666,8.031-16.267,18.717-18.072,45.432-18.072,45.432-25.3,3.616-51.514-7.544-51.514-7.544s4.065-10.838,3.163-21.181c-.77-8.828-14.066-15.291-17.966-17-.3-.125-.594-.256-.9-.388l-.2-.079h.006c-11.029-4.869-19.554-11.871-24.093-19.172-15.588-25.075,2.028-69.8,14.23-99.614s44.727-50.828,44.727-50.828c30.5-12.873,71.152-.678,83.354,16.945S927.753,1081.887,876.935,1138.811Z" transform="translate(-409.616 -923.428)" fill="#70b9f9"/>
              <path id="Trazado_70" data-name="Trazado 70" d="M876.935,1138.811a119.326,119.326,0,0,1-25.859,22.07c7.364.935,10.757,3.32,6.666,8.031-16.267,18.717-18.072,45.432-18.072,45.432-25.3,3.616-51.514-7.544-51.514-7.544s4.065-10.838,3.163-21.181c-.77-8.828-14.066-15.291-17.966-17-.3-.125-.594-.256-.9-.388l-.2-.079h.006c-11.029-4.869-19.554-11.871-24.093-19.172-15.588-25.075,2.028-69.8,14.23-99.614s44.727-50.828,44.727-50.828c30.5-12.873,71.152-.678,83.354,16.945S927.753,1081.887,876.935,1138.811Z" transform="translate(-409.616 -923.428)" fill="url(#linear-gradient-3)"/>
              <path id="Trazado_71" data-name="Trazado 71" d="M849.556,968.475c9.487,14.232,37.269.687,43.37,21.69s3.387,11.523,23.039,38.626,13.559,65.73,2.036,90.127c-15.18,32.15-54.219,69.813-79.968,70.48s-35.23-6.11-40.862-11.037,20.76-56.117,13.763-61.473c-15.924-12.2-2.028-27.848-2.708-38.627s-14.564-12.287-31.176-31.176C733,997,780.436,942.051,780.436,942.051,810.25,902.063,840.069,954.243,849.556,968.475Z" transform="translate(-408.671 -927.255)" fill="#193d7c"/>
              <path id="Trazado_72" data-name="Trazado 72" d="M849.556,968.475c9.487,14.232,37.269.687,43.37,21.69s3.387,11.523,23.039,38.626,13.559,65.73,2.036,90.127c-15.18,32.15-54.219,69.813-79.968,70.48s-35.23-6.11-40.862-11.037,20.76-56.117,13.763-61.473c-15.924-12.2-2.028-27.848-2.708-38.627s-14.564-12.287-31.176-31.176C733,997,780.436,942.051,780.436,942.051,810.25,902.063,840.069,954.243,849.556,968.475Z" transform="translate(-408.671 -927.255)" fill="url(#linear-gradient-4)"/>
              <path id="Trazado_76" data-name="Trazado 76" d="M752.156,1193.888c-110.229,44.385-83.354,277.278-83.354,277.278h180.26s5.422-36.6,25.753-78.614,48.252-81.035,38.765-130.111c-9.626-49.807-38.765-60-38.765-60C830.089,1181.071,752.156,1193.885,752.156,1193.888Z" transform="translate(-414.035 -911.996)" fill="#0053fc"/>
              <path id="Trazado_77" data-name="Trazado 77" d="M752.156,1193.888c-110.229,44.385-83.354,277.278-83.354,277.278h180.26s5.422-36.6,25.753-78.614,48.252-81.035,38.765-130.111c-9.626-49.807-38.765-60-38.765-60C830.089,1181.071,752.156,1193.885,752.156,1193.888Z" transform="translate(-414.035 -911.996)" fill="#0053fc"/>
              <path id="Trazado_78" data-name="Trazado 78" d="M761.884,1222.709c18.981,8.13,51.958,61.442-32.526,100.292S564,1353.261,553.615,1344.683s-12.2-18.527,0-37.046,113.847-74.993,113.847-74.993C701.99,1212.783,742.9,1214.579,761.884,1222.709Z" transform="translate(-421.048 -910.436)" fill="#70b9f9"/>
              <path id="Trazado_79" data-name="Trazado 79" d="M761.884,1222.709c18.981,8.13,51.958,61.442-32.526,100.292S564,1353.261,553.615,1344.683s-12.2-18.527,0-37.046,113.847-74.993,113.847-74.993C701.99,1212.783,742.9,1214.579,761.884,1222.709Z" transform="translate(-421.048 -910.436)" fill="url(#linear-gradient-5)"/>
              <path id="Trazado_80" data-name="Trazado 80" d="M594.931,1285.919c-12.722,3.05-13.929-20.211-31.037-46.42s-58.792-75-70.54-90.358-17.163-42.467-17.163-42.467l-29.371,14.007s17.154,46.081,37.046,113.847,72.1,113.4,72.1,113.4" transform="translate(-426.756 -916.839)" fill="#70b9f9"/>
              <path id="Trazado_81" data-name="Trazado 81" d="M764.226,1194.166c31.286,5.349,46.879,22.216,40.1,69.651S696.8,1342.875,696.8,1342.875c-30.721-29.814-50.142-113.847-50.142-113.847S732.941,1188.816,764.226,1194.166Z" transform="translate(-415.153 -911.787)" fill="url(#linear-gradient-6)"/>
              <path id="Trazado_82" data-name="Trazado 82" d="M465.542,1134.5l-17.617-7.814s-4.065-11.16-9.151-21.326-9.487-14.909-10.844-30.839c-.717-8.414,3.96-15.977,8.532-21.24,4.6-5.3,7-7.734,6.338-14.731-.179-1.858-1.041-5.172-.073-19.936,1.146-17.629,8.808-16.823,9.711-13.664s.567,7,1.47,16.491c.653,6.871,4.816,19.4,7.063,25.792a7.821,7.821,0,0,0,5.053,4.9c3.551,1.1,8.908,3.307,12.314,7.254,5.455,6.325,4.032,27.1,1.239,38.851s0,23.646,0,23.646Z" transform="translate(-427.857 -922.848)" fill="#70b9f9"/>
            </g>
          </g>
        </g>
      </g>
    </g>
    <path id="Trazado_84" data-name="Trazado 84" d="M928.374,1290.94c-34.588,24.706-26.362,75.761-48.18,88.117s-56.408,9.882-52.29-48.588S932.492,1240.7,932.492,1240.7C967.3,1226.343,962.962,1266.235,928.374,1290.94Z" transform="translate(29.228 33.029)" fill="#edf6ff"/>
    <path id="Trazado_85" data-name="Trazado 85" d="M470.7,735.971c47.217-56,141.647-83.453,164.7-57.1,25.886,29.588,1.763,62.443-32.942,71.719-74.17,19.836-122.98,74.321-122.98,74.321C430.072,850.164,429.471,784.868,470.7,735.971Z" transform="translate(6.785)" fill="#edf6ff"/>
    <g id="Grupo_32" data-name="Grupo 32" transform="translate(426.526 812.888)">
      <circle id="Elipse_5" data-name="Elipse 5" cx="20.198" cy="20.198" r="20.198" transform="translate(500.72 116.437)" fill="#fbe54f" opacity="0.5"/>
      <circle id="Elipse_6" data-name="Elipse 6" cx="11.68" cy="11.68" r="11.68" transform="translate(224.67)" fill="#76f4bd" opacity="0.5"/>
      <circle id="Elipse_7" data-name="Elipse 7" cx="11.857" cy="11.857" r="11.857" transform="translate(607.009 445.95)" fill="#fbe54f" opacity="0.5"/>
      <path id="Trazado_86" data-name="Trazado 86" d="M450.232,1303.358h-.006a29.321,29.321,0,1,0,.006,0Z" transform="translate(-420.908 -776.045)" fill="#fbe54f" opacity="0.5"/>
      <path id="Trazado_87" data-name="Trazado 87" d="M639.345,1453.023a39.524,39.524,0,0,0-39.519-39.529h0a39.526,39.526,0,1,0,39.521,39.531Z" transform="translate(-412.815 -769.651)" fill="#76d6b0" opacity="0.3"/>
    </g>
  </g>
</svg>
